<svg xmlns="http://www.w3.org/2000/svg" width="160" height="160" viewBox="0 0 160 160"><path fill="#E5CA2C" d="M79 0h2v160h-2z"/><g fill="#E5CA2C"><path d="M0 79h74v2H0zM86 79h74v2H86z"/></g><g fill="#E5CA2C"><path d="M22.723 135.89l52.325-52.326 1.414 1.414-52.325 52.326zM84.958 76.497l-1.416-1.414L135.86 22.75l1.415 1.415z"/></g><g fill="#E5CA2C"><path d="M135.86 137.277L83.535 84.95l1.414-1.413 52.324 52.325zM22.727 24.135l1.415-1.415L76.46 75.052l-1.416 1.415z"/></g><g fill="#E5CA2C"><path d="M48.474 153.528l28.32-68.37 1.85.767-28.32 68.37zM83.238 74.84l-1.85-.766 28.305-68.376 1.85.766zM153.527 111.508L85.16 83.188l.764-1.848 68.37 28.32zM5.708 50.28l.765-1.848 68.368 28.32-.765 1.847z"/></g><g fill="#E5CA2C"><path d="M109.718 154.29l-28.32-68.37 1.848-.764 28.32 68.368zM78.67 74.07l-1.848.767-28.35-68.353 1.85-.767zM154.29 50.297l-68.368 28.32-.765-1.848 68.368-28.32zM6.468 111.517l-.764-1.848L74.08 81.37l.763 1.848z"/></g></svg>