<?xml version="1.0" encoding="utf-8"?>
<!-- Generator: Adobe Illustrator 16.0.4, SVG Export Plug-In . SVG Version: 6.00 Build 0)  -->
<!DOCTYPE svg PUBLIC "-//W3C//DTD SVG 1.1//EN" "http://www.w3.org/Graphics/SVG/1.1/DTD/svg11.dtd">
<svg version="1.1" id="Layer_1" xmlns="http://www.w3.org/2000/svg" xmlns:xlink="http://www.w3.org/1999/xlink" x="0px" y="0px"
	 width="114.826px" height="42.67px" viewBox="0 2.66 114.826 42.67" enable-background="new 0 2.66 114.826 42.67"
	 xml:space="preserve">
<g>
	<path fill="#E16120" d="M110.96,8.022h-0.664V7.49h1.865v0.533h-0.666v1.6h-0.665v-1.6L110.96,8.022L110.96,8.022z M112.431,7.49
		h0.664l0.53,0.8l0.534-0.8h0.666v2.13h-0.533V8.423l-0.667,0.933l-0.53-0.8v1.2h-0.535V7.49h-0.131H112.431z"/>
</g>
<path fill="#E16120" d="M40.093,11.62c-0.53-0.8-1.598-0.933-2.797-0.8c-0.934,0.133-1.733,0.4-1.867,0.533
	c-0.267,0.133-0.267,0.4-0.267,0.533c0,0.4,0.4,0.8,0.134,2.53c-0.134,0.934-1.6,8.926-1.6,8.926c-0.797,0.4-1.73,0.8-2.396,0.8
	c-1.2,0-1.73-0.534-1.464-2.266s1.332-7.593,1.332-7.593c0.134-1.066,0.134-1.866-0.133-2.398c-0.53-0.8-1.6-1.065-2.797-0.932
	c-0.933,0.133-1.73,0.4-1.865,0.533c-0.268,0.134-0.268,0.4-0.268,0.533c0,0.398,0.4,0.798,0.134,2.53
	c-0.534,3.064-1.333,7.594-1.466,8.525c-0.533,3.464,0.533,5.995,3.863,5.995c0.8,0,2.797-0.532,4.664-1.332
	c0,0.267,0.133,0.533,0.268,0.666c0.933,1.466,3.995,0.8,4.793,0.398c0.27-0.133,0.27-0.398,0.27-0.53c0-0.4-0.4-0.802-0.133-2.534
	c0.132-0.932,2-11.455,2-11.455c-0.003-1.2-0.003-2.13-0.404-2.663L40.093,11.62z M91.913,3.626c-0.533-0.8-1.6-1.066-2.797-0.933
	c-0.934,0.133-1.733,0.4-1.865,0.533c-0.268,0.133-0.268,0.4-0.268,0.533c0,0.4,0.398,0.798,0.135,2.53
	c-0.135,0.666-3.465,19.448-3.465,19.448c-0.133,1.066-0.133,1.867,0.136,2.398c0.53,0.8,1.599,1.067,2.797,0.934
	c0.933-0.133,1.729-0.4,1.864-0.532c0.265-0.134,0.265-0.4,0.265-0.534c0-0.398-0.399-0.8-0.132-2.53
	c0.132-0.934,3.463-19.45,3.463-19.45C92.312,5.09,92.181,4.158,91.913,3.626L91.913,3.626z M111.628,23.075
	c-0.8-0.532-1.6-0.666-1.865-0.8c-0.266,0-0.397,0.134-0.533,0.268c-0.129,0.266-0.933,2.396-3.861,4.795
	c0.133-1.064,2.264-13.188,2.264-13.188c0.27-1.066,0.27-2-0.132-2.53c-0.535-0.8-1.601-1.067-2.8-0.934
	c-0.93,0.133-1.73,0.4-1.864,0.532c-0.133,0.267-0.267,0.4-0.267,0.666c0,0.4,0.267,0.667,0.133,2l-1.598,9.324
	c-0.799,0.533-1.732,0.8-2.529,0.8c-1.2,0-1.732-0.533-1.467-2.266c0.266-1.332,1.33-7.592,1.33-7.592
	c0.136-1.066,0.136-1.865-0.133-2.398c-0.801-1.464-3.73-1.065-4.662-0.4c-0.268,0.134-0.268,0.4-0.268,0.534
	c0,0.4,0.4,0.8,0.134,2.265c-0.532,3.064-1.465,7.86-1.6,8.926c-0.532,3.464,0.534,5.994,3.864,5.994c0.8,0,2.664-0.53,4.529-1.332
	l-0.4,2.663c-0.27,0.136-5.062,1.732-7.062,2.666c-3.597,1.601-5.327,6.261-2.53,9.19c2.666,2.933,7.061,1.333,8.525,0.271
	c3.332-2.268,4.795-6.131,5.729-9.86c4.529-2.396,7.328-5.06,7.328-5.06c0.799-0.67,1.332-1.335,1.463-2
	C113.358,24.542,112.694,23.742,111.628,23.075L111.628,23.075z M97.108,38.395c-0.801,0.666-1.866,0.533-2.267,0
	c-0.397-0.397-0.532-1.729,1.466-2.396c1.467-0.534,2.932-1.2,2.932-1.2c-0.4,1.466-1.334,3.065-2.133,3.597H97.108z M82.319,16.148
	c0.4-1.865,0.135-3.064-0.266-3.863c-0.666-1.332-1.73-1.598-3.063-1.732c-1.601-0.133-4.128,1.066-5.595,1.865
	c-0.4-1.065-1.599-1.865-3.196-1.865c-1.866,0-4.53,1.332-5.464,1.865c-0.532-1.332-1.729-1.73-3.063-1.865
	c-1.864-0.133-4.262,1.066-5.596,1.865c-0.53-1.332-1.73-1.73-3.062-1.865c-1.6-0.133-3.464,0.8-5.062,1.466
	c-0.4-1.2-1.73-1.333-2.93-1.2c-0.933,0.133-1.734,0.4-1.866,0.533c-0.267,0.133-0.267,0.4-0.267,0.533c0,0.4,0.267,0.667,0.133,2
	l-2.13,11.988c-0.134,1.065-0.134,1.864,0.132,2.397c0.533,0.8,1.6,1.067,2.8,0.935c0.93-0.135,1.73-0.4,1.863-0.534
	c0.266-0.13,0.266-0.398,0.266-0.53c0-0.4-0.4-0.934-0.132-1.866l1.73-9.858c0.668-0.532,1.732-0.932,2.267-0.932
	c1.065,0,1.464,0.666,1.197,2.132l-1.465,8.26c-0.133,1.064-0.133,1.863,0.132,2.396c0.535,0.8,1.6,1.066,2.798,0.934
	c0.933-0.135,1.73-0.4,1.865-0.534c0.268-0.132,0.268-0.4,0.268-0.532c0-0.4-0.4-0.8-0.134-1.865c0.267-1.064,1.733-9.99,1.733-9.99
	c0.665-0.534,1.73-0.933,2.266-0.933c1.064,0,1.465,0.666,1.196,2.13c-0.397,2.665-0.132,0.534-1.465,8.26
	c-0.134,1.066-0.134,1.865,0.135,2.398c0.532,0.8,1.599,1.066,2.8,0.932c0.931-0.13,1.729-0.398,1.862-0.53
	c0.267-0.136,0.267-0.4,0.267-0.535c0-0.4-0.267-0.666-0.131-2l1.73-9.724c0.396-0.266,1.6-0.932,2.266-0.932
	c1.065,0,1.331,0.8,1.065,2.266c-0.136,0.8-1.468,8.125-1.468,8.125c-0.135,1.067-0.135,1.868,0.134,2.4
	c0.397,0.665,1.196,0.933,2.266,0.933h0.53c0.936-0.133,1.73-0.4,1.865-0.532c0.269-0.133,0.269-0.4,0.269-0.533
	c0-0.398-0.399-0.8-0.134-2.53c0-0.134,0.533-3.465,1.064-6.128l0.535-3.198c0.668-0.533,1.729-0.933,2.264-0.933
	c1.065,0,1.466,0.665,1.199,2.13l-1.332,8.26c-0.131,1.065-0.131,1.864,0.135,2.397c0.533,0.8,1.6,1.064,2.797,0.934
	c0.934-0.134,1.732-0.398,1.865-0.534c0.27-0.133,0.27-0.398,0.27-0.53c0-0.4-0.402-0.802-0.135-2.532
	c0.396,0.13,1.992-9.196,1.992-9.196V16.148z M33.43,34.13c0-0.264-0.263-0.397-0.398-0.397c-0.4-0.133-0.8,0-1.865-0.531
	c-0.932-0.4-5.062-2.396-10.79-3.064l4.13-23.712c0.132-1.065,0.132-1.865-0.134-2.397c-0.533-0.8-1.6-1.065-2.797-0.933
	c-0.934,0.134-1.732,0.4-1.866,0.534c-0.266,0.133-0.266,0.4-0.266,0.533c0,0.4,0.4,0.8,0.134,2.532c0,0.4-1.465,7.993-2.53,14.387
	c-3.066,1.864-7.062,2.663-7.995,1.598c-0.4-0.532-0.266-1.6,0.133-3.063c0.134-0.4,1.865-7.06,2.398-9.06
	c0.798-3.862,0.132-7.326-3.73-7.592c-3.33-0.268-6.527,1.597-7.46,2.663c-0.666,0.8-0.4,1.598,0.133,2.665
	c0.534,0.798,1.2,1.33,1.333,1.464c0.267,0.133,0.533,0.133,0.533,0c1.066-1.2,3.198-2.13,3.864-1.6
	c0.666,0.534,0.4,1.467,0.133,2.4c0,0-2.13,8.125-3.064,11.59c-0.666,2.53,0,4.793,1.865,5.86c1.333,0.8,3.33,0.8,4.93,0.534
	c3.463-0.4,5.462-1.866,5.862-2.134c-0.4,2.134-0.667,3.598-0.667,3.598s-3.862,0.398-7.06,2.266
	C3.993,34.8,2.394,40.53,5.058,43.458c2.665,2.931,7.46,1.866,9.326,0.534c1.866-1.2,4.262-3.864,5.328-9.725
	c6.395,0.266,7.994,3.596,10.66,3.729c1.995,0,3.328-1.865,3.06-3.864L33.43,34.13z M11.852,39.859
	c-0.933,0.533-1.865,0.533-2.398,0c-0.532-0.664-0.8-4.396,5.195-5.594c-0.002,0-0.934,4.529-2.798,5.596L11.852,39.859z"/>
</svg>
