<svg xmlns="http://www.w3.org/2000/svg" width="41.277" height="56.167" viewBox="0 0 41.277 56.167"><g fill="#434343"><path d="M35.474 29.83c-.586-1.352-.915-2.865-.915-4.464 0-.675.058-1.33.17-1.958.482-2.72 1.964-4.967 4.01-6.42.365-.26.747-.495 1.145-.702-2.757-4.346-7.242-5.016-8.654-5.163-3.07-.318-7.396 2.062-9.746 2.1h-.06c-2.35-.04-6.675-2.418-9.748-2.1-1.528.16-6.412 1.172-9.357 5.864-1.034 1.646-1.83 3.747-2.157 6.42-.118.967-.174 2.007-.16 3.126.016 1.123.104 2.224.258 3.296.33 2.286.952 4.443 1.754 6.42.89 2.19 2 4.163 3.185 5.837 2.62 3.707 5.586 5.85 7.257 5.89 3.438.076 6.425-2.246 8.89-2.187.025.005.053.008.078.005h.06c.025.002.052 0 .077-.005 2.464-.063 5.453 2.263 8.893 2.187 1.67-.04 4.638-2.183 7.258-5.89 1.184-1.674 2.295-3.646 3.186-5.837.13-.327.26-.66.38-.995-2.562-.8-4.67-2.804-5.806-5.426zM27.49 7.854C30.13 4.73 30.03.23 29.79.03c-.24-.202-4.603.6-7.308 3.622s-2.537 7.625-2.298 7.824c.237.2 4.668-.496 7.307-3.622z"/></g></svg>