<?xml version="1.0" encoding="utf-8"?>
<!-- Generator: Adobe Illustrator 16.0.4, SVG Export Plug-In . SVG Version: 6.00 Build 0)  -->
<!DOCTYPE svg PUBLIC "-//W3C//DTD SVG 1.1//EN" "http://www.w3.org/Graphics/SVG/1.1/DTD/svg11.dtd">
<svg version="1.1" id="Layer_1" xmlns="http://www.w3.org/2000/svg" xmlns:xlink="http://www.w3.org/1999/xlink" x="0px" y="0px"
	 width="318.689px" height="112px" viewBox="0 0 318.689 112" enable-background="new 0 0 318.689 112" xml:space="preserve">
<polygon fill="#F47424" points="305.501,9.579 305.501,3.368 303.267,3.368 303.267,1.937 309.363,1.937 309.363,3.368 
	307.14,3.368 307.14,9.579 "/>
<polygon fill="#F47424" points="317.051,9.579 317.051,4.067 314.897,9.579 314.188,9.579 312.033,4.067 312.033,9.579 
	310.404,9.579 310.404,1.937 312.686,1.937 314.542,6.714 316.396,1.937 318.689,1.937 318.689,9.579 "/>
<g>
	<g>
		<g>
			<path fill="#F47424" d="M0,33.415v-0.181C0,14.955,13.766,0,33.484,0c12.122,0,19.403,4.04,25.351,9.909l-8.988,10.378
				c-4.97-4.499-10.002-7.251-16.455-7.251c-10.824,0-18.612,8.994-18.612,20.017v0.181c0,11.021,7.598,20.2,18.612,20.2
				c7.374,0,11.869-2.938,16.9-7.534l8.988,9.096c-6.584,7.072-13.928,11.477-26.332,11.477C14.02,66.473,0,51.868,0,33.415"/>
		</g>
	</g>
	<g>
		<g>
			<path fill="#F47424" d="M64.154,1.093h29.401c8.166,0,14.496,2.301,18.705,6.528c3.608,3.581,5.539,8.624,5.539,14.686v0.184
				c0,10.373-5.635,16.897-13.801,19.93l15.699,22.947h-16.523L89.409,44.803H78.3v20.565H64.154V1.093 M92.638,32.316
				c6.867,0,10.824-3.677,10.824-9.093v-0.18c0-6.058-4.244-9.184-11.111-9.184H78.3v18.457H92.638z"/>
		</g>
	</g>
	<g>
		<g>
			<polygon fill="#F47424" points="124.571,1.093 173.056,1.093 173.056,13.68 138.624,13.68 138.624,26.713 168.944,26.713 
				168.944,39.295 138.624,39.295 138.624,52.79 173.499,52.79 173.499,65.368 124.571,65.368 			"/>
		</g>
	</g>
	<g>
		<g>
			<path fill="#F47424" d="M178.757,1.093h25.064c20.191,0,34.147,13.862,34.147,31.96v0.181c0,18.084-13.956,32.134-34.147,32.134
				h-25.064V1.093 M203.821,52.607c11.553,0,19.369-7.806,19.369-19.192v-0.181c0-11.386-7.816-19.375-19.369-19.375h-10.92v38.749
				L203.821,52.607L203.821,52.607z"/>
		</g>
	</g>
	<g>
		<g>
			<path fill="#F47424" d="M240.916,33.415v-0.181C240.916,14.955,255.313,0,275.159,0c19.845,0,34.054,14.777,34.054,33.053v0.181
				c0,18.273-14.401,33.239-34.241,33.239C255.124,66.473,240.916,51.689,240.916,33.415 M294.433,33.415v-0.181
				c0-11.024-8.07-20.198-19.461-20.198c-11.396,0-19.274,8.994-19.274,20.017v0.181c0,11.021,8.065,20.2,19.464,20.2
				C286.554,53.434,294.433,44.436,294.433,33.415"/>
		</g>
	</g>
	<g>
		<g>
			<path fill="#F47424" d="M179.64,78.064h4.623v3.049c1.299-1.783,3.069-3.469,6.17-3.469c2.879,0,4.907,1.41,5.983,3.549
				c1.644-2.139,3.763-3.549,6.837-3.549c4.362,0,7.057,2.789,7.057,7.709V98.22h-4.621V86.764c0-3.203-1.485-4.923-4.084-4.923
				c-2.527,0-4.305,1.763-4.305,5.007v11.373h-4.617V86.727c0-3.123-1.553-4.886-4.086-4.886c-2.562,0-4.334,1.905-4.334,5.04v11.34
				h-4.623V78.064"/>
		</g>
	</g>
	<g>
		<g>
			<path fill="#F47424" d="M212.905,88.254V88.18c0-5.764,4.588-10.533,10.758-10.533c6.176,0,10.73,4.688,10.73,10.453v0.08
				c0,5.726-4.591,10.494-10.824,10.494C217.431,98.674,212.905,93.982,212.905,88.254 M229.771,88.254V88.18
				c0-3.549-2.559-6.494-6.199-6.494c-3.701,0-6.045,2.9-6.045,6.414v0.08c0,3.51,2.531,6.488,6.139,6.488
				C227.396,94.668,229.771,91.73,229.771,88.254"/>
		</g>
	</g>
	<g>
		<g>
			<path fill="#F47424" d="M241.8,95.086v3.135h-4.621V71.919h4.621v9.5c1.49-2.089,3.576-3.772,6.838-3.772
				c4.746,0,9.367,3.772,9.367,10.451v0.082c0,6.678-4.559,10.461-9.367,10.461C245.312,98.641,243.19,96.956,241.8,95.086
				 M253.321,88.18v-0.082c0-3.884-2.627-6.449-5.76-6.449c-3.138,0-5.891,2.601-5.891,6.449v0.082c0,3.891,2.753,6.449,5.891,6.449
				C250.726,94.629,253.321,92.15,253.321,88.18"/>
		</g>
	</g>
	<g>
		<g>
			<path fill="#F47424" d="M261.674,72.67h4.97v4.389h-4.97V72.67z M261.866,79.96h4.619v18.261h-4.619V79.96z"/>
		</g>
	</g>
	<g>
		<g>
			<rect x="272.403" y="71.919" fill="#F47424" width="4.621" height="26.302"/>
		</g>
	</g>
	<g>
		<g>
			<path fill="#F47424" d="M280.792,88.217v-0.078c0-5.766,4.081-10.492,9.872-10.492c6.396,0,9.655,5.037,9.655,10.84
				c0,0.416-0.03,0.834-0.096,1.303H285.41c0.506,3.273,2.849,5.107,5.825,5.107c2.248,0,3.83-0.846,5.445-2.404l2.717,2.404
				c-1.897,2.295-4.558,3.777-8.258,3.777C285.317,98.674,280.792,94.436,280.792,88.217 M295.729,86.727
				c-0.318-2.979-2.058-5.309-5.127-5.309c-2.818,0-4.776,2.186-5.225,5.309H295.729z"/>
		</g>
	</g>
</g>
</svg>
