<?xml version="1.0" encoding="UTF-8" standalone="no"?>
<svg
   xmlns:dc="http://purl.org/dc/elements/1.1/"
   xmlns:cc="http://creativecommons.org/ns#"
   xmlns:rdf="http://www.w3.org/1999/02/22-rdf-syntax-ns#"
   xmlns:svg="http://www.w3.org/2000/svg"
   xmlns="http://www.w3.org/2000/svg"
   id="svg2"
   xml:space="preserve"
   viewBox="0 0 378.1 73.8"
   width="378.1"
   height="73.8"
   y="0px"
   x="0px"
   version="1.1"><g
     id="Layer_1"><g
       id="g6"><path
         style="fill:#00b625;fill-opacity:1"
         id="path8"
         d="m 0,0 c 27.5,0 54.8,0 82.3,0 0,24.6 0,49.1 0,73.8 -27.4,0 -54.8,0 -82.3,0 C 0,49.2 0,24.7 0,0 Z m 44.7,51.3 0,-28.3 -10,0 0,35.1 c 0,0 16.5,0.3 24.1,0 6.9,-0.2 11.5,-4.2 13.3,-10.8 1.9,-7.1 2,-14.3 0.3,-21.5 -1.1,-4.7 -3.8,-8.5 -8.7,-10 -2.4,-0.7 -4.9,-1.1 -7.4,-1.1 -15.4,-0.1 -48,0 -48,0 l 0,6.4 c 0,0 12.9,0 14.1,0 0,0.7 0,1.1 0,1.6 0,8.1 0,35.4 0,35.4 l 9.8,0 0,-37 c 0,0 14.7,0 21.3,0 4.8,0 7.3,2 8.4,6.6 1.1,4.3 1,8.7 0.6,13 -0.2,2.3 -0.9,4.6 -1.6,6.8 -0.8,2.1 -2.5,3.6 -4.8,3.9 -4.2,-0.1 -11.4,-0.1 -11.4,-0.1 z" /><path
         style="fill:#163d22;fill-opacity:1"
         id="path10"
         d="m 141.4,44.9 c 0,-7.5 0,-14.8 0,-22.3 3.4,0 6.7,0 10.2,0 0,1.1 0,2.2 0,3.3 1.8,-2.8 4.4,-3.9 7.5,-3.9 3,0 5.8,0.6 7.4,3.6 2.1,-3.2 5.2,-3.8 8.7,-3.6 4.2,0.3 6.4,2.4 6.5,6.7 0.1,4.6 0.1,9.1 0.1,13.7 0,0.8 0,1.6 0,2.5 -3.6,0 -7.1,0 -10.9,0 0,-0.4 0,-0.9 0,-1.3 0,-3.8 0,-7.6 0,-11.5 0,-0.4 0,-0.8 0,-1.1 -0.1,-1.4 -0.8,-2.1 -2,-2.1 -1.1,0.1 -1.8,0.7 -1.8,2.2 0,4.1 0,8.1 0,12.2 0,0.5 0,1 0,1.6 -3.6,0 -7.2,0 -10.9,0 0,-0.4 0,-0.9 0,-1.3 0,-3.7 0,-7.4 0,-11.1 0,-0.6 0,-1.3 -0.1,-1.9 -0.1,-1.1 -0.7,-1.7 -1.8,-1.7 -1.1,0 -1.7,0.6 -1.9,1.7 -0.1,0.6 -0.1,1.2 -0.1,1.8 0,4.1 0,8.3 0,12.6 -3.7,-0.1 -7.3,-0.1 -10.9,-0.1 z" /><path
         style="fill:#163d22;fill-opacity:1"
         id="path12"
         d="m 101.1,45 c 1.3,-3.6 2.5,-7 3.7,-10.4 2.2,-6.3 4.4,-12.5 6.6,-18.8 0.3,-0.8 0.6,-1.1 1.5,-1.1 4.9,0.1 9.9,0 14.9,0 3.6,10 7.1,20 10.8,30.2 -1.3,0 -2.3,0 -3.4,0 -2.6,0 -5.1,0 -7.7,0 -0.8,0 -1.2,-0.2 -1.4,-1 -0.4,-1.6 -0.9,-3.2 -1.5,-4.7 -0.1,-0.4 -0.7,-0.8 -1.1,-0.8 -2.7,-0.1 -5.4,0 -8.1,-0.1 -0.7,0 -1,0.2 -1.1,0.9 -0.4,1.6 -0.9,3.2 -1.4,4.8 -0.1,0.3 -0.5,0.8 -0.8,0.8 -3.6,0.2 -7.2,0.2 -11,0.2 z m 15.1,-13.9 c 2.3,0 4.4,0 6.7,0 -1.1,-3.3 -2.1,-6.4 -3.2,-9.6 -0.1,0 -0.2,0 -0.3,0 -1.1,3.1 -2.1,6.3 -3.2,9.6 z" /><path
         style="fill:#163d22;fill-opacity:1"
         id="path14"
         d="m 349.6,45 c -3.3,0 -6.6,0 -10,0 0,-1.2 0,-2.4 0,-3.6 -0.2,0.1 -0.3,0.1 -0.4,0.1 -1.6,3.3 -4.4,4.3 -7.8,4.1 -3.5,-0.2 -6.2,-1.8 -7.7,-5 -1.9,-4.2 -2,-8.6 -0.4,-13 2.4,-6.8 11.9,-7.4 15.4,-2.3 0,-4.3 0,-8.4 0,-12.7 3.7,0 7.2,0 10.9,0 0,10.7 0,21.5 0,32.4 z M 339.3,33.5 c -0.2,-1.1 -0.4,-2.3 -0.7,-3.4 -0.3,-1 -1.2,-1.5 -2.3,-1.5 -1,0 -1.8,0.5 -2.2,1.4 -0.8,2.2 -0.8,4.5 0,6.7 0.4,1 1.2,1.5 2.3,1.5 1.1,0 1.9,-0.6 2.2,-1.6 0.4,-0.9 0.5,-2 0.7,-3.1 z" /><path
         style="fill:#163d22;fill-opacity:1"
         id="path16"
         d="m 308.7,30.6 c -0.2,-1.6 -1,-2.5 -2.9,-2.8 -3.1,-0.6 -6,-0.1 -8.9,1.1 -0.4,0.1 -0.7,0.3 -1.1,0.4 -0.1,0 -0.2,0 -0.3,-0.1 0,-1.8 0,-3.6 0,-5.4 0,-0.3 0.4,-0.7 0.7,-0.8 5.5,-1.5 11,-1.7 16.4,-0.1 4,1.1 6,3.8 6.1,8 0.1,4.6 0,9.3 0,14 -3.4,0 -6.7,0 -10.1,0 0,-1 0,-1.9 0,-2.8 -0.2,0 -0.3,0 -0.3,0 -2.7,3.5 -6.4,3.9 -10.4,2.9 -2.6,-0.6 -4.6,-2.2 -4.9,-5.1 -0.4,-3.2 0.4,-5.9 3.4,-7.7 2.1,-1.2 4.4,-1.6 6.8,-1.7 1.8,0.1 3.6,0.1 5.5,0.1 z m 0,4.3 c -1.6,0.3 -3.2,0.4 -4.6,0.8 -1.1,0.3 -1.4,1.3 -1.3,2.5 0.2,1.1 0.9,1.5 1.9,1.7 2.6,0.2 4.3,-1.7 4,-5 z" /><path
         style="fill:#163d22;fill-opacity:1"
         id="path18"
         d="m 210.4,36.3 c -5.3,0 -10.2,0 -15.1,0 -0.1,1.6 0.7,2.6 2.4,3.1 2.8,0.8 5.6,0.5 8.3,-0.1 0.8,-0.2 1.5,-0.4 2.5,-0.7 0,1.8 0,3.5 0,5.3 0,0.2 -0.4,0.5 -0.6,0.6 -5.1,1.2 -10.3,1.7 -15.4,0.3 -4.9,-1.4 -7.7,-5 -8,-10.1 -0.1,-1.1 -0.1,-2.3 0.1,-3.4 0.5,-4 2.7,-6.8 6.5,-8.2 3.4,-1.2 7,-1.4 10.5,-0.8 4.1,0.7 6.8,3.2 7.8,7.2 0.6,2.1 0.7,4.4 1,6.8 z m -9.6,-4.8 c -0.1,-1.5 -0.1,-3 -1.4,-4 -0.9,-0.7 -1.9,-0.6 -2.8,0 -1.3,1 -1.5,2.4 -1.5,4 1.9,0 3.7,0 5.7,0 z" /><path
         style="fill:#163d22;fill-opacity:1"
         id="path20"
         d="m 378.1,36.2 c -5,0 -9.9,0 -14.8,0 -0.1,1.6 0.8,2.9 2.7,3.1 2,0.3 4,0.3 6,0.2 1.5,-0.1 2.9,-0.6 4.5,-0.9 0,1.8 0,3.6 0,5.6 -5.7,1.2 -11.5,2.1 -17.2,0 -4.2,-1.5 -6.3,-4.8 -6.7,-9.2 -0.1,-1.5 -0.1,-3.1 0.2,-4.6 0.5,-3.4 2.4,-5.8 5.6,-7.1 4,-1.7 8.2,-2 12.5,-0.9 4.3,1.1 6.8,4.6 7.3,9.8 0,1.3 -0.1,2.6 -0.1,4 z m -15,-4.8 c 2,0 3.8,0 5.7,0 -0.1,-1.6 0,-3.3 -1.6,-4 -0.7,-0.4 -2,-0.3 -2.7,0.1 -1.4,0.8 -1.5,2.4 -1.4,3.9 z" /><path
         style="fill:#163d22;fill-opacity:1"
         id="path22"
         d="m 264.9,22.5 c 1.8,0 3.3,0 4.9,0 0,2.2 0,4.2 0,6.4 -1.6,0 -3.2,0 -4.8,0 0,2.6 -0.1,4.9 0,7.3 0.1,1.4 1.1,2.1 2.5,2.1 0.7,0 1.4,-0.2 2.3,-0.2 0,2 0,3.9 0,5.9 0,0.2 -0.3,0.6 -0.6,0.6 -3,0.9 -6,1.3 -9.1,0.8 -3.4,-0.5 -5.5,-2.6 -5.9,-6.1 -0.3,-2.8 -0.2,-5.7 -0.2,-8.5 0,-0.5 0,-1.1 0,-1.8 -1.3,0 -2.5,0 -3.8,0 0,-2.2 0,-4.2 0,-6.4 1.2,0 2.4,0 3.8,0 0,-1.6 0,-3 0,-4.4 0,-0.4 0.4,-1 0.7,-1.1 3.1,-1 6.2,-1.9 9.3,-2.9 0.2,-0.1 0.5,-0.1 0.9,-0.2 0,2.8 0,5.5 0,8.5 z" /><path
         style="fill:#163d22;fill-opacity:1"
         id="path24"
         d="m 232.1,22.1 c 0,0.3 0.1,0.5 0.1,0.8 0,2.7 0,5.4 0,8.2 -0.5,-0.1 -0.8,-0.1 -1.2,-0.2 -3.8,-0.5 -6.8,2 -6.9,5.9 0,2.3 0,4.5 0,6.8 0,0.4 0,0.8 0,1.3 -3.7,0 -7.2,0 -10.8,0 0,-7.4 0,-14.8 0,-22.3 3.3,0 6.7,0 10.1,0 0,1.5 0,3 0,4.5 2,-3.5 4.4,-5.8 8.7,-5 z" /><path
         style="fill:#163d22;fill-opacity:1"
         id="path26"
         d="m 283.9,44.9 c -3.7,0 -7.2,0 -10.8,0 0,-7.5 0,-14.9 0,-22.4 3.3,0 6.6,0 10,0 0,1.5 0,3 0,4.5 0.1,0.1 0.2,0.1 0.2,0.2 1.7,-3.5 4.1,-6 8.5,-5.1 0,3 0,5.9 0,8.9 -0.4,-0.1 -0.8,-0.1 -1.1,-0.2 -3.8,-0.5 -6.8,2.1 -6.8,5.9 0,2.3 0,4.7 0,7 0,0.5 0,0.8 0,1.2 z" /><path
         style="fill:#163d22;fill-opacity:1"
         id="path28"
         d="m 247.2,44.9 c -3.6,0 -7.1,0 -10.7,0 0,-7.5 0,-14.9 0,-22.4 3.6,0 7.1,0 10.7,0 0,7.5 0,14.9 0,22.4 z" /><path
         style="fill:#163d22;fill-opacity:1"
         id="path30"
         d="m 236.4,19.9 c 0,-2.4 0,-4.8 0,-7.3 3.5,0 7.1,0 10.7,0 0,2.4 0,4.8 0,7.3 -3.5,0 -7,0 -10.7,0 z" /></g></g></svg>