<svg xmlns="http://www.w3.org/2000/svg" width="512" height="512" viewBox="0 0 512 512"><g fill="#fff"><path d="M255.984 31.984c-123.712 0-224 100.29-224 224.002 0 123.71 100.288 224 224 224 123.713 0 224-100.29 224-224 0-123.713-100.29-224.002-224-224.002zm141.422 365.422c-18.375 18.375-39.768 32.8-63.58 42.872-24.643 10.423-50.832 15.707-77.842 15.707s-53.2-5.284-77.842-15.707c-23.813-10.07-45.204-24.496-63.58-42.87-18.375-18.376-32.8-39.768-42.872-63.58-10.422-24.643-15.707-50.832-15.707-77.84 0-27.012 5.285-53.202 15.707-77.844 10.072-23.813 24.496-45.205 42.872-63.58s39.767-32.8 63.58-42.872c24.64-10.423 50.83-15.708 77.842-15.708 27.01 0 53.2 5.285 77.842 15.708 23.812 10.072 45.205 24.496 63.58 42.872s32.8 39.767 42.87 63.58c10.423 24.643 15.708 50.833 15.708 77.843 0 27.01-5.285 53.2-15.707 77.84-10.07 23.814-24.496 45.204-42.87 63.58zM255.984 205.984c28.033 0 51.42-19.888 56.824-46.324l11.676-11.676-11.676-11.676c-5.403-26.436-28.79-46.324-56.824-46.324-32.033 0-58 25.968-58 58s25.967 58 58 58zM255.984 305.984c-28.034 0-51.42 19.888-56.824 46.324l-11.676 11.676 11.677 11.676c5.404 26.436 28.792 46.324 56.825 46.324 32.032 0 58-25.97 58-58 0-32.033-25.968-58-58-58zM363.984 197.984c-32.033 0-58 25.968-58 58 0 28.033 19.888 51.42 46.324 56.825l11.676 11.675 11.676-11.676c26.437-5.405 46.324-28.793 46.324-56.826 0-32.032-25.967-58-58-58zM205.984 255.984c0-28.033-19.888-51.42-46.324-56.824l-11.676-11.676-11.676 11.676c-26.436 5.403-46.324 28.79-46.324 56.824 0 32.032 25.968 58 58 58 32.033 0 58-25.968 58-58z"/></g></svg>