<?xml version="1.0" encoding="utf-8"?>
<!-- Generator: Adobe Illustrator 16.0.4, SVG Export Plug-In . SVG Version: 6.00 Build 0)  -->
<!DOCTYPE svg PUBLIC "-//W3C//DTD SVG 1.1//EN" "http://www.w3.org/Graphics/SVG/1.1/DTD/svg11.dtd">
<svg version="1.1" id="svg2" xmlns:svg="http://www.w3.org/2000/svg"
	 xmlns="http://www.w3.org/2000/svg" xmlns:xlink="http://www.w3.org/1999/xlink" x="0px" y="0px" width="250px" height="78px"
	 viewBox="0 -3 250 78" enable-background="new 0 -3 250 78" xml:space="preserve">
<g id="layer1" transform="translate(-182.578,-514.8209)">
	<g id="g2422" transform="matrix(2.1423054,0,0,2.1423054,184.3056,517.08031)">
		<polygon id="polygon2384" fill="#E2001A" points="59.011,14.988 54.164,4.496 47.904,4.496 52.914,14.988 		"/>
		<polygon id="polygon2386" fill="#E2001A" points="36.264,14.988 38.118,10.11 40.155,14.988 46.012,14.988 41.354,4.496 
			34.699,4.496 30.467,14.988 		"/>
		<rect id="rect2388" x="16.844" y="4.496" fill="#E2001A" width="5.746" height="10.493"/>
		<rect id="rect2390" x="0" y="4.496" fill="#E2001A" width="5.743" height="10.493"/>
		<path id="path2392" fill="#E2001A" d="M111.269,14.988c-3.453-2.048-8.149-2.467-8.149-4.67c0-1.152,1.312-1.897,3.378-1.897
			c1.961,0,3.958,0.577,7.296,2.064V5.987c-2.906-1.249-5.231-1.786-7.8-1.786c-5.347,0-8.792,2.631-8.792,6.622
			c0,1.793,0.547,3.124,1.406,4.165H111.269L111.269,14.988z"/>
		<polygon id="polygon2394" fill="#E2001A" points="67.43,14.988 72.213,4.496 66.029,4.496 61.417,14.988 		"/>
		<polygon id="polygon2396" fill="#E2001A" points="80.299,14.988 82.156,10.11 84.19,14.988 90.044,14.988 85.385,4.496 
			78.728,4.496 74.491,14.988 		"/>
		<polygon id="polygon2398" fill="#E2001A" points="73.376,17.769 69.429,27.56 75.516,27.56 79.245,17.769 		"/>
		<polygon id="polygon2400" fill="#E2001A" points="85.346,17.769 89.436,27.56 95.625,27.56 91.279,17.769 		"/>
		<polygon id="polygon2402" fill="#E2001A" points="54.24,17.769 59.065,27.855 61.562,27.855 66.171,17.769 		"/>
		<path id="path2404" fill="#E2001A" d="M102.862,17.769c2.999,1.217,6.068,1.8,6.068,3.732c0,1.358-1.187,2.136-3.381,2.136
			c-2.539,0-4.563-0.777-7.878-2.976v4.972c2.302,1.177,4.299,2.222,8.322,2.222c5.133,0,8.851-2.567,8.851-6.988
			c0-1.229-0.27-2.246-0.736-3.098H102.862L102.862,17.769z"/>
		<rect id="rect2406" x="16.844" y="17.768" fill="#E2001A" width="5.746" height="9.791"/>
		<rect id="rect2408" x="0.002" y="17.768" fill="#E2001A" width="5.744" height="9.791"/>
		<polygon id="polygon2410" fill="#E2001A" points="29.344,17.769 25.394,27.56 31.482,27.56 35.208,17.769 		"/>
		<polygon id="polygon2412" fill="#E2001A" points="41.318,17.769 45.41,27.56 51.595,27.56 47.249,17.769 		"/>
	</g>
</g>
</svg>
