<svg xmlns="http://www.w3.org/2000/svg" width="124.49" height="48" viewBox="0 0 124.49 48"><g fill-rule="evenodd" clip-rule="evenodd" fill="#FB9A39"><path d="M16.033 46.21l-7.32-2.625V32.858l7.32 2.494zM17.375 46.21l7.317-2.625V32.858l-7.317 2.494zM9.466 32.056l7.407-2.085 6.867 2.216-6.867 2.33z"/></g><g fill-rule="evenodd" clip-rule="evenodd" fill="#FB9A39"><path d="M7.32 31.225L0 28.6V17.873l7.32 2.493zM8.66 31.225l7.32-2.625V17.873l-7.32 2.493zM.752 17.07l7.408-2.085 6.868 2.215-6.868 2.332z"/></g><g fill-rule="evenodd" clip-rule="evenodd" fill="#FB9A39"><path d="M24.396 31.225L17.078 28.6V17.873l7.318 2.493zM25.74 31.225l7.317-2.625V17.873l-7.318 2.493zM17.83 17.07l7.407-2.085 6.867 2.215-6.867 2.332z"/></g><g fill-rule="evenodd" clip-rule="evenodd" fill="#FB9A39"><path d="M33.11 16.24l-7.32-2.626V2.888l7.32 2.493zM34.45 16.24l7.32-2.626V2.888L34.45 5.38zM26.542 2.084L33.95 0l6.867 2.214-6.868 2.332z"/></g><g fill-rule="evenodd" clip-rule="evenodd" fill="#FB9A39"><path d="M50.185 16.24l-7.318-2.626V2.888l7.318 2.493zM51.527 16.24l7.32-2.626V2.888l-7.32 2.493zM43.62 2.084L51.025 0l6.867 2.214-6.867 2.332z"/></g><path d="M46.462 39.223l-2.46 8.54h-1.067L41.02 41.42l-1.755 6.343h-1.088l-2.556-8.54h1.322l1.86 6.364 1.772-6.364h.975l1.925 6.384 1.912-6.384h1.075zM53.262 45.215l1.238.253c-.226.73-.665 1.335-1.317 1.813-.653.48-1.42.72-2.305.72-1.164 0-2.106-.41-2.828-1.232-.72-.82-1.08-1.897-1.08-3.23 0-1.36.375-2.458 1.123-3.296.748-.838 1.688-1.257 2.82-1.257 1.114 0 2.01.386 2.688 1.157.68.772 1.026 1.926 1.043 3.463h-6.198c0 1.292.27 2.163.81 2.614.54.45 1.11.676 1.713.676 1.085 0 1.85-.56 2.294-1.68zm-.072-2.6c-.01-.478-.09-.904-.236-1.275-.146-.373-.395-.69-.742-.95-.35-.263-.77-.394-1.258-.394-.657 0-1.216.237-1.674.71-.46.473-.716 1.11-.772 1.91h4.682zM57.032 47.763h-.64v-11.53h1.33v4.413c.607-1.107 1.445-1.66 2.514-1.66.978 0 1.797.385 2.457 1.16.66.772.992 1.895.992 3.367 0 1.27-.325 2.335-.975 3.196-.65.86-1.497 1.29-2.537 1.29-1.16 0-2.05-.55-2.667-1.65l-.474 1.413zm.69-3.348c.063.876.33 1.513.808 1.91.476.395.98.593 1.508.593.676 0 1.22-.294 1.634-.88.414-.587.62-1.39.62-2.412 0-1.1-.2-1.964-.6-2.593-.4-.628-.954-.943-1.663-.943-.56 0-1.06.224-1.51.672-.447.448-.713 1.026-.797 1.735v1.918zM67.075 45.55l1.27-.263c.28 1.073 1.172 1.61 2.673 1.61.552 0 1.02-.125 1.402-.372.384-.248.576-.596.576-1.046 0-.67-.487-1.094-1.464-1.274l-1.8-.342c-.704-.135-1.265-.4-1.68-.795-.417-.395-.626-.917-.626-1.565 0-.715.284-1.314.854-1.797.567-.48 1.334-.723 2.297-.723 1.853 0 2.996.724 3.43 2.172l-1.217.262c-.35-.888-1.067-1.332-2.153-1.332-.54 0-.983.11-1.33.333-.346.223-.52.532-.52.93 0 .63.443 1.023 1.327 1.187l1.663.305c1.74.316 2.61 1.16 2.61 2.533 0 .784-.323 1.418-.972 1.9-.648.484-1.51.725-2.586.725-2.026 0-3.276-.817-3.755-2.45zM81.462 45.215l1.24.253c-.227.73-.665 1.335-1.32 1.813-.65.48-1.42.72-2.302.72-1.164 0-2.107-.41-2.827-1.232-.72-.82-1.08-1.897-1.08-3.23 0-1.36.374-2.458 1.123-3.296.748-.838 1.688-1.257 2.82-1.257 1.112 0 2.01.386 2.687 1.157.68.772 1.026 1.926 1.043 3.463h-6.198c0 1.292.27 2.163.81 2.614s1.11.676 1.713.676c1.084 0 1.85-.56 2.292-1.68zm-.07-2.6c-.012-.478-.09-.904-.238-1.275-.145-.373-.393-.69-.74-.95-.35-.263-.77-.394-1.258-.394-.658 0-1.216.237-1.675.71-.458.473-.715 1.11-.77 1.91h4.68zM85.607 47.763h-1.33v-8.54h1.166v1.99c.41-.932.823-1.537 1.236-1.812.413-.276.837-.414 1.27-.414.135 0 .31.01.523.03v1.27h-.27c-.73 0-1.338.272-1.822.814-.482.543-.74 1.257-.774 2.142v4.52zM96.738 39.223l-2.948 8.54h-1.38l-3.046-8.54h1.472l2.37 6.94 2.353-6.94h1.178zM99.225 36.232v1.474H97.8v-1.474h1.425zm-.03 2.99v8.54h-1.33v-8.54h1.33zM106.144 44.772l1.196.21c-.17.944-.544 1.683-1.123 2.217-.58.533-1.305.8-2.17.8-1.18 0-2.076-.435-2.69-1.304-.618-.87-.927-1.93-.927-3.183 0-1.297.325-2.376.976-3.237s1.536-1.29 2.657-1.29c.93 0 1.674.277 2.234.833s.907 1.273 1.043 2.155l-1.196.228c-.226-1.41-.906-2.114-2.043-2.114-.73 0-1.292.31-1.687.933s-.59 1.43-.59 2.42c0 1.092.194 1.94.586 2.545.39.605.94.908 1.648.908 1.098 0 1.793-.708 2.086-2.124zM114.844 45.215l1.236.253c-.224.73-.663 1.335-1.315 1.813s-1.422.72-2.305.72c-1.166 0-2.108-.41-2.828-1.232-.72-.82-1.08-1.897-1.08-3.23 0-1.36.373-2.458 1.123-3.296.748-.838 1.688-1.257 2.82-1.257 1.112 0 2.01.386 2.688 1.157.678.772 1.025 1.926 1.042 3.463h-6.2c0 1.292.272 2.163.812 2.614s1.11.676 1.713.676c1.084 0 1.85-.56 2.294-1.68zm-.073-2.6c-.01-.478-.088-.904-.234-1.275-.146-.373-.395-.69-.743-.95-.35-.263-.768-.394-1.257-.394-.658 0-1.216.237-1.675.71-.457.473-.715 1.11-.77 1.91h4.68zM116.977 45.55l1.27-.263c.28 1.073 1.172 1.61 2.67 1.61.555 0 1.022-.125 1.405-.372.384-.248.576-.596.576-1.046 0-.67-.49-1.094-1.466-1.274l-1.797-.342c-.705-.135-1.266-.4-1.682-.795-.418-.395-.627-.917-.627-1.565 0-.715.286-1.314.854-1.797.57-.48 1.334-.723 2.3-.723 1.85 0 2.995.724 3.428 2.172l-1.216.262c-.35-.888-1.067-1.332-2.154-1.332-.54 0-.982.11-1.33.333-.345.223-.52.532-.52.93 0 .63.444 1.023 1.328 1.187l1.663.305c1.74.316 2.61 1.16 2.61 2.533 0 .784-.324 1.418-.973 1.9-.648.484-1.51.725-2.587.725-2.023 0-3.274-.817-3.753-2.45z"/><g fill-rule="evenodd" clip-rule="evenodd"><path d="M86.988 20.97v-2.05c.002-.313.236-.522.52-.52h9.194c.294 0 .53.213.53.517v1.76c-.003.294-.25.68-.692 1.29l-4.763 6.8c1.77-.042 3.64.223 5.245 1.126.36.204.46.505.487.8v2.19c0 .3-.33.65-.678.468-2.83-1.48-6.586-1.643-9.715.02-.32.17-.654-.174-.654-.476v-2.08c0-.334.006-.903.342-1.41l5.518-7.917H87.52c-.295 0-.53-.21-.532-.517zM54.084 33.783h-2.797c-.268-.018-.48-.218-.5-.474V18.953c0-.288.24-.517.54-.517h2.604c.275.013.493.22.51.48v1.875h.053c.68-1.812 1.958-2.658 3.682-2.658 1.75 0 2.847.846 3.63 2.658.68-1.812 2.22-2.658 3.864-2.658 1.174 0 2.453.483 3.236 1.57.89 1.21.706 2.96.706 4.5l-.003 9.06c0 .288-.242.518-.54.518h-2.795c-.28-.02-.502-.24-.502-.516v-7.61c0-.604.052-2.115-.08-2.69-.208-.966-.834-1.238-1.644-1.238-.68 0-1.384.453-1.672 1.18-.287.724-.26 1.932-.26 2.748v7.61c0 .286-.243.516-.54.516h-2.795c-.28-.02-.502-.24-.502-.516v-7.61c0-1.602.26-3.958-1.725-3.958-2.01 0-1.932 2.295-1.932 3.958l-.002 7.61c.004.287-.24.517-.536.517zM103.987 18.134c4.118 0 6.346 3.565 6.346 8.096 0 4.38-2.46 7.854-6.346 7.854-4.04 0-6.242-3.564-6.242-8.006 0-4.47 2.227-7.944 6.242-7.944zm.025 3.3c-2.046 0-2.176 2.81-2.176 4.562s-.025 5.13 2.15 5.13c2.15 0 2.254-2.652 2.254-4.495 0-1.207-.053-2.658-.415-3.806-.31-.997-.932-1.39-1.813-1.39zM116.293 33.783h-2.786c-.28-.02-.502-.24-.502-.516L113 18.905c.024-.263.256-.468.538-.468h2.594c.244.012.446.178.497.4v2.197h.052c.783-1.964 1.88-2.9 3.812-2.9 1.254 0 2.48.453 3.265 1.69.73 1.15.73 3.083.73 4.472v9.034c-.032.255-.26.453-.536.453h-2.804c-.26-.017-.47-.208-.5-.453v-7.794c0-1.57.184-3.868-1.75-3.868-.678 0-1.305.453-1.617 1.148-.392.876-.444 1.75-.444 2.72v7.73c-.006.287-.248.517-.547.517zM79.975 26.927c0 1.09.026 1.998-.522 2.967-.444.787-1.15 1.27-1.937 1.27-1.073 0-1.702-.816-1.702-2.028 0-2.382 2.14-2.815 4.16-2.815v.607zm2.82 6.82c-.185.166-.452.178-.66.065-.93-.772-1.095-1.13-1.604-1.864-1.535 1.563-2.622 2.033-4.61 2.033-2.355 0-4.188-1.453-4.188-4.36 0-2.27 1.23-3.813 2.983-4.57 1.517-.666 3.637-.787 5.26-.97v-.363c0-.666.053-1.453-.34-2.028-.342-.516-.995-.728-1.57-.728-1.067 0-2.016.547-2.25 1.68-.047.25-.23.5-.483.514l-2.712-.294c-.23-.05-.483-.235-.417-.585.622-3.29 3.593-4.283 6.255-4.283 1.36 0 3.14.364 4.212 1.393 1.36 1.27 1.23 2.967 1.23 4.814v4.36c0 1.31.544 1.885 1.056 2.592.18.254.22.557-.01.742-.57.48-1.586 1.36-2.145 1.858l-.005-.005zM43.624 26.927c0 1.09.027 1.998-.522 2.967-.444.787-1.15 1.27-1.936 1.27-1.074 0-1.7-.816-1.7-2.028 0-2.382 2.136-2.815 4.158-2.815v.607zm2.82 6.82c-.186.166-.452.178-.66.065-.93-.772-1.096-1.13-1.604-1.864-1.535 1.563-2.623 2.033-4.61 2.033-2.356 0-4.188-1.453-4.188-4.36 0-2.27 1.23-3.813 2.982-4.57 1.52-.666 3.637-.787 5.26-.97v-.363c0-.666.053-1.453-.34-2.028-.34-.516-.995-.728-1.57-.728-1.066 0-2.016.547-2.248 1.68-.05.25-.233.5-.486.514l-2.71-.294c-.23-.05-.484-.235-.42-.585.625-3.29 3.595-4.283 6.257-4.283 1.36 0 3.14.364 4.213 1.393 1.36 1.27 1.23 2.967 1.23 4.814v4.36c0 1.31.543 1.885 1.054 2.592.18.254.22.557-.007.742-.572.48-1.588 1.36-2.146 1.858l-.006-.005z"/></g></svg>