<svg xmlns="http://www.w3.org/2000/svg" width="167.375" height="48" viewBox="0 0 167.375 48"><linearGradient id="a" gradientUnits="userSpaceOnUse" x1="-1547.285" y1="-158.397" x2="-1561.977" y2="-158.497" gradientTransform="matrix(-.977 -.323 .29 -.877 -1462.665 -615.036)"><stop offset=".231" stop-color="#9C9879"/><stop offset=".565" stop-color="#9D9A7B"/><stop offset=".686" stop-color="#A39F82"/><stop offset=".772" stop-color="#ACA98D"/><stop offset=".841" stop-color="#BAB69E"/><stop offset=".901" stop-color="#CBC8B4"/><stop offset=".953" stop-color="#E0DECF"/><stop offset=".999" stop-color="#FAF7EE"/><stop offset="1" stop-color="#FAF8EF"/></linearGradient><path fill="url(#a)" d="M11.48 46.465l-1.247-.414s.158-6.307-2.116-6.75c-1.5-1.737.23-74.246 5.68-.247 0 0-1.864.937-2.218 2.526-.353 1.593-.1 4.885-.1 4.885z"/><linearGradient id="b" gradientUnits="userSpaceOnUse" x1="-1545.022" y1="-132.684" x2="-1566.158" y2="-169.293" gradientTransform="matrix(-.977 -.323 .29 -.877 -1462.665 -615.036)"><stop offset="0" stop-color="#459E55"/><stop offset="1" stop-color="#338D4A"/></linearGradient><path fill="url(#b)" d="M12.15 40.374s10.83-7.133 8.293-21.946C18 7.666 12.23 4.128 11.61 2.778c-.682-.957-1.368-2.65-1.368-2.65l.46 29.985s-.952 9.156 1.45 10.26z"/><linearGradient id="c" gradientUnits="userSpaceOnUse" x1="-1543.077" y1="-159.018" x2="-1558.059" y2="-148.954" gradientTransform="matrix(-.977 -.323 .29 -.877 -1462.665 -615.036)"><stop offset="0" stop-color="#2FA352"/><stop offset=".198" stop-color="#39A758"/><stop offset=".538" stop-color="#55B169"/><stop offset=".976" stop-color="#81C283"/><stop offset="1" stop-color="#84C385"/></linearGradient><path fill="url(#c)" d="M9.6 40.772S-.56 33.842.024 21.614C.61 9.387 7.785 3.374 9.182 2.284c.904-.963.94-1.334 1.01-2.284.634 1.36.528 20.317.595 22.533.26 8.625-.477 16.61-1.188 18.24z"/><path fill="#947757" d="M125.578 18.352c.582 0 2.795.102 3.822.102 1.918 0 3.253-.102 6.85-.102 3.014 0 5.548.812 7.362 2.368 2.192 1.894 3.356 4.532 3.356 7.746 0 4.566-2.09 7.204-4.178 8.692-2.09 1.556-4.795 2.435-8.665 2.435-2.055 0-5.583-.068-8.528-.1h-.04c-.137-.272.253-1.327.493-1.354.796-.09 1.012-.122 1.382-.274.62-.256.77-.573.838-1.69.103-2.096.068-4.6.068-7.44 0-2.03.034-5.987-.035-7.238-.103-1.048-.547-1.32-1.438-1.522-.445-.1-1.062-.203-1.918-.304-.067-.204.46-1.118.63-1.32zm6.836 18.805c.72.575 2.157.812 3.425.812 1.643 0 3.253-.306 4.828-1.726 1.61-1.456 2.705-3.688 2.705-7.24 0-3.415-1.302-6.188-3.973-7.812-1.507-.947-3.46-1.32-5.685-1.32-.65 0-1.302.035-1.68.204-.102.067-.308.338-.308.474-.068.61-.068 5.242-.068 7.982 0 2.807 0 6.73.067 7.205.037.406.242 1.116.687 1.42zM149.854 18.352c.31 0 1.22.102 3.55.102 2.19 0 3.97-.067 6.095-.067 2.636 0 6.267.947 6.267 4.87 0 1.928-1.37 3.484-3.15 4.23-.104.033-.104.1 0 .134 2.534.644 4.76 2.2 4.76 5.176 0 2.91-1.815 4.735-4.452 5.886-1.61.71-3.596.946-5.617.946-1.54 0-5.67-.17-7.966-.135-.24-.102.22-1.184.425-1.353.55-.034.972-.073 1.554-.243.822-.203.92-.467 1.022-1.686.07-1.047.07-4.8.07-7.474 0-3.653.032-6.122 0-7.34-.036-.946-.38-1.25-1.03-1.42-.513-.1-1.368-.203-2.054-.304-.173-.17.355-1.185.526-1.32zm13.96 15.186c0-2.976-2.192-4.667-6.2-4.667-.17 0-1.438-.033-1.747.035-.103.034-.204.1-.204.17 0 2.13-.035 5.546.067 6.898.068.575.48 1.387.993 1.624.55.305 1.78.373 2.638.373 2.365 0 4.453-1.32 4.453-4.432zm-7.775-13.53c-.138.035-.31.373-.31.542-.033 1.217-.067 4.397-.067 6.595 0 .067.102.17.17.17.446.033 1.54.067 2.466.067 1.3 0 2.055-.17 2.466-.372 1.096-.54 1.61-1.725 1.61-3.01 0-2.942-2.057-4.06-5.104-4.06-.206 0-.788 0-1.233.07z"/><path fill="#411306" d="M27.332 39.577c-.058-.09-.118-.36-.105-.683.01-.246.06-.403.104-.456.647-.102.952-.17 1.315-.268.605-.15.834-.477.87-1.25.1-1.825.104-5.246.068-7.65v-.072c.003-.258.007-.61-.317-.86-.475-.313-1.066-.572-1.816-.796-.286-.085-.445-.236-.437-.412.01-.17.188-.385.562-.457.992-.102 3.592-.72 4.612-1.192.06.074.155.233.138.487l-.026.334c-.03.34-.063.726-.063 1.11 0 .113.122.22.252.22.065 0 .127-.026.177-.075 1.944-1.522 3.684-2.065 4.58-2.065 1.47 0 2.615.702 3.5 2.146.052.076.122.117.2.117.073 0 .144-.04.185-.1 1.788-1.354 3.56-2.163 4.744-2.163 2.805 0 4.48 2.096 4.48 5.606 0 1.01-.012 2.288-.02 3.48-.01 1.048-.017 2.03-.017 2.71 0 .164.22.62.552.712.41.2 1.002.3 1.75.43l.03.005c.056.2-.063.983-.178 1.144-.186 0-.442-.015-.763-.03-.58-.03-1.38-.07-2.308-.07-1.863 0-2.837.036-3.767.096-.07-.232-.094-.98-.01-1.138.543-.102.812-.17 1.137-.266.593-.196.764-.465.798-1.25.015-.56.122-5.483-.07-6.653-.175-1.21-1.09-2.63-3.088-2.63-.74 0-1.94.31-3.082 1.174-.07.07-.11.204-.11.292v.022c.136.63.136 1.367.136 2.48 0 .634-.005 1.308-.008 1.976-.01 1.357-.016 2.64.008 3.607 0 .66.4.817.72.945l.452.105c.27.065.548.132.96.198.057.13.062.52-.016.85-.043.185-.093.266-.12.292-1.035-.036-2.098-.067-3.632-.067-.465 0-1.225.02-1.894.038-.543.015-1.057.03-1.35.03-.042-.067-.1-.282-.1-.59 0-.287.052-.49.105-.55.146-.028.282-.052.413-.076.36-.063.67-.12.97-.192.507-.154.696-.437.733-1.08.1-1.506.177-5.842-.036-6.928-.363-1.743-1.356-2.625-2.95-2.625-.937 0-2.117.45-3.082 1.172-.162.118-.284.418-.284.695 0 .516-.002 1.13-.004 1.79-.007 2.178-.015 4.888.04 6.062.03.36.157.79.838.948.148.042.405.084.703.134.173.027.36.06.554.093.07.187.026.917-.092 1.145-.298 0-.664-.02-1.084-.037-.642-.027-1.44-.063-2.35-.063-1.07 0-1.816.036-2.414.064-.397.02-.745.036-1.092.037zM61.856 39.882c-5.146 0-6.98-3.77-6.98-7.297 0-2.464 1.01-4.39 3-5.727 1.415-.87 3.104-1.368 4.63-1.368 3.927 0 6.67 2.82 6.67 6.858 0 2.746-1.097 4.913-3.17 6.267-.992.61-2.718 1.267-4.15 1.267zm-.548-12.954c-.623 0-1.205.163-1.638.46-1.19.72-1.795 2.164-1.795 4.283 0 3.97 1.99 6.74 4.837 6.74.84 0 1.525-.24 2.094-.738.875-.713 1.34-2.17 1.34-4.21 0-3.908-1.945-6.534-4.838-6.534zM115.14 39.882c-5.146 0-6.98-3.77-6.98-7.297 0-2.465 1.01-4.392 3-5.727 1.415-.87 3.104-1.368 4.63-1.368 3.928 0 6.67 2.82 6.67 6.858 0 2.746-1.097 4.913-3.17 6.267-.993.61-2.718 1.267-4.15 1.267zm-.548-12.954c-.624 0-1.207.163-1.64.46-1.188.72-1.794 2.163-1.794 4.283 0 3.97 1.99 6.74 4.837 6.74.84 0 1.525-.24 2.095-.738.875-.712 1.34-2.17 1.34-4.208 0-3.91-1.946-6.536-4.838-6.536zM97.373 48c-1.848 0-3.178-.39-4.315-1.263-1.105-.853-1.602-2.118-1.602-2.99 0-.252.06-.902.606-1.522.322-.365 1.067-1.05 2.79-2.232.052-.02.09-.072.09-.136 0-.07-.047-.127-.11-.14-1.418-.544-1.847-1.435-1.975-1.918l-.015-.075c-.04-.19-.08-.37.178-.553.198-.142.518-.33.855-.53.5-.294 1.064-.627 1.378-.896.05-.048.07-.12.058-.19-.01-.072-.053-.13-.113-.16-2.1-.706-3.16-2.264-3.16-4.638 0-1.532.71-2.917 1.942-3.8.843-.667 2.964-1.47 4.338-1.47l.08.002c1.413.033 2.21.33 3.312.737.6.22 1.165.31 1.958.31 1.17 0 1.68-.37 2.12-.794.024.053.084.22.11.604.028.393-.08.975-.38 1.39-.24.33-.793.57-1.317.57-.05 0-.103 0-.152-.007-.54-.053-.792-.13-.794-.132l-.133.046c-.04.06-.014.128.022.214.008.02.017.04.02.053.068.275.19 1.074.19 1.298 0 2.49-.983 3.574-2.046 4.377-1.014.765-2.2 1.224-3.534 1.365h-.002c-.026 0-.153.01-.408.034-.165.015-.37.034-.4.034l-.03.004c-.23.066-.834.352-.834.884 0 .443.273.992 1.575 1.09.264.02.548.04.843.06 1.72.12 3.866.27 4.877.61 1.39.507 2.254 1.75 2.254 3.246 0 2.234-1.59 4.334-4.253 5.617-1.29.605-2.603.9-4.02.9zm-.205-7.848c-.596 0-1.03.173-1.288.318-1.256.804-1.838 1.607-1.838 2.53 0 .873.34 1.566 1.067 2.18.88.748 2.07 1.11 3.633 1.11 3.075 0 4.454-1.652 4.454-3.29 0-1.14-.572-1.903-1.75-2.334-.908-.33-2.424-.514-4.28-.514zm.205-13.36c-1.586 0-2.61 1.25-2.61 3.188 0 1.955.88 4.236 3.364 4.236.427 0 1.2-.19 1.583-.61.576-.53.953-1.625.953-2.78 0-2.526-1.23-4.034-3.29-4.034zM89.012 38.334c-.753-.102-1.3-.203-1.952-.507-.103-.068-.24-.372-.24-.474-.068-1.048-.068-4.092-.068-6.087 0-1.624-.273-3.044-.958-4.06-.822-1.15-1.986-1.826-3.493-1.826-1.335 0-3.116.914-4.588 2.165-.035.034-.262.248-.257-.085.006-.333.058-1.01.088-1.436.03-.426-.224-.627-.224-.627-.96.474-3.662 1.115-4.66 1.218-.728.14-.943.84-.137 1.082l.047.015c.792.24 1.333.498 1.735.763.308.237.273.575.273.846.034 2.267.034 5.75-.068 7.645-.034.726-.235.998-.754 1.137-.403.1-.744.167-1.25.233-.173.168-.173 1.15 0 1.353.34 0 2.088-.102 3.526-.102 1.985 0 3.014.102 3.527.102.205-.237.273-1.15.136-1.353-.582-.034-.993-.102-1.404-.203-.548-.135-.685-.406-.72-1.015-.067-1.59-.067-4.972-.067-7.272 0-.643.17-.947.377-1.116.685-.61 1.814-1.016 2.808-1.016.96 0 1.61.305 2.09.71.65.542.89 1.32.96 1.895.136 1.285.102 3.855.102 6.087 0 1.218-.103 1.522-.55 1.658-.204.1-.752.203-1.402.27-.205.203-.138 1.15 0 1.354.89 0 1.918-.103 3.425-.103 1.884 0 3.082.102 3.562.102.203-.24.27-1.12.135-1.356z"/></svg>