<svg xmlns="http://www.w3.org/2000/svg" width="160" height="160" viewBox="0 0 160 160"><path fill="#C43E23" d="M80 2c43.01 0 78 34.99 78 78s-34.99 78-78 78S2 123.01 2 80 36.99 2 80 2m0-2C35.817 0 0 35.817 0 80s35.817 80 80 80 80-35.817 80-80S124.183 0 80 0zM80 19c33.636 0 61 27.364 61 61s-27.364 61-61 61-61-27.364-61-61 27.364-61 61-61m0-2c-34.794 0-63 28.206-63 63s28.206 63 63 63 63-28.206 63-63-28.206-63-63-63zM80 35c24.812 0 45 20.187 45 45s-20.188 45-45 45c-24.813 0-45-20.187-45-45s20.187-45 45-45m0-2c-25.957 0-47 21.043-47 47s21.043 47 47 47 47-21.043 47-47-21.043-47-47-47zM80 51c15.99 0 29 13.01 29 29s-13.01 29-29 29-29-13.01-29-29 13.01-29 29-29m0-2c-17.12 0-31 13.88-31 31 0 17.12 13.88 31 31 31 17.12 0 31-13.88 31-31 0-17.12-13.88-31-31-31zM80 66c7.72 0 14 6.28 14 14s-6.28 14-14 14-14-6.28-14-14 6.28-14 14-14m0-2c-8.836 0-16 7.164-16 16s7.164 16 16 16 16-7.164 16-16-7.164-16-16-16z"/></svg>