<?xml version="1.0" encoding="utf-8"?>
<!-- Generator: Adobe Illustrator 16.0.4, SVG Export Plug-In . SVG Version: 6.00 Build 0)  -->
<!DOCTYPE svg PUBLIC "-//W3C//DTD SVG 1.1//EN" "http://www.w3.org/Graphics/SVG/1.1/DTD/svg11.dtd">
<svg version="1.1" id="Layer_1" xmlns="http://www.w3.org/2000/svg" xmlns:xlink="http://www.w3.org/1999/xlink" x="0px" y="0px"
	 width="372px" height="116px" viewBox="-32 0 372 116" enable-background="new -32 0 372 116" xml:space="preserve">
<symbol  id="New_Symbol" viewBox="-40 -40 80 80">
	<polygon fill="#D83E14" points="40,-40 -40,-40 -40,40 40,40 	"/>
	<path fill="#FFFFFF" d="M10.404-13.414C9.556-13.414,9-12.737,9-11.876v7.183c0,0.863,0.558,1.54,1.407,1.54
		c0.851-0.001,1.462-0.677,1.462-1.54l-0.02-7.184c0-0.411-0.119-0.799-0.407-1.089C11.157-13.254,10.813-13.414,10.404-13.414
		L10.404-13.414z M-10.354-13.414c0.409,0,0.859,0.16,1.146,0.448c0.288,0.29,0.479,0.678,0.479,1.089l0.011,7.184
		c0,0.863-0.791,1.539-1.641,1.54c-0.85,0-1.641-0.677-1.641-1.54v-7.183C-12-12.737-11.202-13.414-10.354-13.414L-10.354-13.414z
		 M0.276-13.414c0.409,0,0.673,0.16,0.959,0.448c0.289,0.29,0.388,0.678,0.388,1.089L1.587-4.693c0,0.863-0.444,1.539-1.293,1.54
		C-0.557-3.153-1-3.83-1-4.693v-7.183C-1-12.737-0.574-13.414,0.276-13.414L0.276-13.414z M24.402-19.111
		c0.001,0.011,3.289,24.441,3.289,24.441c0.06,0.438-0.078,0.859-0.366,1.188C27.038,6.849,26.615,7,26.167,7H7.192
		c0-1-0.236-2-0.703-3h16.744c0.297,0,0.578-0.129,0.772-0.352C24.2,3.424,24.29,3.128,24.25,2.835l-3.034-22.52
		c-0.068-0.511-0.503-0.891-1.017-0.891l-40.386-0.002c-0.513,0-0.947,0.379-1.017,0.888L-24.25,2.834
		c-0.039,0.293,0.05,0.59,0.244,0.813C-23.81,3.871-23.528,4-23.232,4h16.768c-0.468,1-0.703,2-0.703,3h-18.999
		c-0.448,0-0.872-0.151-1.158-0.479c-0.292-0.336-0.426-0.76-0.366-1.196l3.299-24.387c0.006-0.029,0.011-0.058,0.015-0.087
		c0.315-2.562,2.502-4.491,5.088-4.492c0.02,0,0.039,0.001,0.06,0l38.527-0.032c0.073,0,0.146-0.007,0.215-0.022
		C22.036-23.595,24.12-21.657,24.402-19.111z M3.074,7.096c0,0.121-0.008,0.244-0.025,0.377C3.011,7.786,3.119,8.1,3.343,8.323
		l14.744,14.745c0.601,0.6,0.601,1.574,0,2.176c-0.29,0.29-0.676,0.451-1.087,0.451s-0.798-0.161-1.089-0.451l-14.79-14.79
		c-0.193-0.193-0.454-0.301-0.725-0.301c-0.033,0-0.067,0.001-0.101,0.004c-0.102,0.011-0.202,0.016-0.3,0.016
		c-1.697,0-3.077-1.38-3.077-3.077c0-1.695,1.38-3.078,3.077-3.078C1.692,4.018,3.074,5.398,3.074,7.096z"/>
	<polygon display="none" fill="none" points="-40,40 40,40 40,-40 -40,-40 	"/>
</symbol>
<g>
	<g>
		<g>
			<defs>
				<path id="SVGID_1_" d="M84,79.733C84,86.507,78.507,92,71.733,92H4.267C-2.509,92-8,86.507-8,79.733V12.266
					C-8,5.492-2.509,0,4.267,0h67.467C78.507,0,84,5.492,84,12.266V79.733z"/>
			</defs>
			<clipPath id="SVGID_2_">
				<use xlink:href="#SVGID_1_"  overflow="visible"/>
			</clipPath>
			<g clip-path="url(#SVGID_2_)">
				
					<linearGradient id="SVGID_3_" gradientUnits="userSpaceOnUse" x1="-20.3896" y1="506.2002" x2="-20.3897" y2="414.2002" gradientTransform="matrix(1 0 0 1 58.3896 -414.1992)">
					<stop  offset="0" style="stop-color:#F3F3F3"/>
					<stop  offset="1" style="stop-color:#EEEEEE"/>
				</linearGradient>
				<rect x="-8" fill="url(#SVGID_3_)" width="92" height="92"/>
				<path fill="#E8532A" d="M59.861,64.823L46.323,41.736V25.943h1.814c1.421,0,2.57-1.33,2.57-2.75c0-1.417-1.149-2.748-2.57-2.748
					H28.613c-1.418,0-2.569,1.331-2.569,2.748c0,1.421,1.151,2.75,2.569,2.75h1.214v15.793L16.591,64.823
					c-2.825,4.895-0.35,8.776,5.303,8.776h32.967C60.51,73.599,62.686,69.717,59.861,64.823z M35.325,25.941h6.133l-0.005,17.142
					l4.103,6.688H31.189c2.309-3.666,4.136-6.67,4.136-6.672V25.941z M54.86,69.017H21.893c-0.533,0-0.912-0.217-1.155-0.283
					c0.065-0.243,0.201-0.719,0.466-1.18c0,0,3.507-5.868,7.022-12.285h20.296l7.024,12.206c0.268,0.46,0.402,0.995,0.466,1.239
					C55.768,68.781,55.392,69.017,54.86,69.017z"/>
			</g>
		</g>
	</g>
</g>
<g>
	<g>
		<g>
			<defs>
				<path id="SVGID_4_" d="M200,79.732C200,86.507,194.508,92,187.732,92h-67.465C113.492,92,108,86.507,108,79.732V12.268
					C108,5.492,113.492,0,120.268,0h67.467C194.508,0,200,5.492,200,12.268V79.732z"/>
			</defs>
			<clipPath id="SVGID_5_">
				<use xlink:href="#SVGID_4_"  overflow="visible"/>
			</clipPath>
			<g clip-path="url(#SVGID_5_)">
				
					<use xlink:href="#New_Symbol"  width="80" height="80" id="XMLID_2_" x="-40" y="-40" transform="matrix(1.15 0 0 -1.15 154 46)" overflow="visible"/>
			</g>
		</g>
	</g>
</g>
<g>
	<g>
		<g>
			<defs>
				<path id="SVGID_6_" d="M316,79.232c0,6.774-5.492,12.268-12.268,12.268h-67.465C229.492,91.5,224,86.007,224,79.232V11.768
					C224,4.992,229.492-0.5,236.268-0.5h67.467C310.508-0.5,316,4.992,316,11.768V79.232z"/>
			</defs>
			<clipPath id="SVGID_7_">
				<use xlink:href="#SVGID_6_"  overflow="visible"/>
			</clipPath>
			<g clip-path="url(#SVGID_7_)">
				
					<use xlink:href="#New_Symbol"  width="80" height="80" id="XMLID_1_" x="-40" y="-40" transform="matrix(1.15 0 0 -1.15 270 45.5)" overflow="visible"/>
			</g>
		</g>
	</g>
</g>
<g>
	<g>
		<g>
			<defs>
				<path id="SVGID_8_" d="M200,79.733C200,86.507,194.508,92,187.732,92h-67.467C113.492,92,108,86.507,108,79.733V12.267
					C108,5.492,113.492,0,120.268,0h67.467C194.508,0,200,5.492,200,12.267V79.733z"/>
			</defs>
			<clipPath id="SVGID_9_">
				<use xlink:href="#SVGID_8_"  overflow="visible"/>
			</clipPath>
			<g clip-path="url(#SVGID_9_)">
				<rect x="108" fill="#2CC5D2" width="92" height="92"/>
			</g>
		</g>
	</g>
</g>
<path fill="#FFFFFF" d="M185.107,25.905c0,1.559-1.266,2.822-2.823,2.822h-42.894c-1.56,0-2.822-1.264-2.822-2.822l0,0
	c0-1.558,1.264-2.822,2.822-2.822h42.895C183.844,23.083,185.107,24.347,185.107,25.905L185.107,25.905z"/>
<path fill="#FFFFFF" d="M185.107,65.414c0,1.559-1.266,2.822-2.823,2.822h-42.894c-1.56,0-2.822-1.264-2.822-2.822l0,0
	c0-1.559,1.264-2.822,2.822-2.822h42.895C183.844,62.592,185.107,63.855,185.107,65.414L185.107,65.414z"/>
<path fill="#FFFFFF" d="M185.107,52.244c0,1.559-1.266,2.822-2.823,2.822h-42.894c-1.56,0-2.822-1.263-2.822-2.822l0,0
	c0-1.559,1.264-2.822,2.822-2.822h42.895C183.844,49.422,185.107,50.686,185.107,52.244L185.107,52.244z"/>
<path fill="#FFFFFF" d="M185.107,39.075c0,1.559-1.266,2.822-2.823,2.822h-42.894c-1.56,0-2.822-1.264-2.822-2.822l0,0
	c0-1.559,1.264-2.822,2.822-2.822h42.895C183.844,36.253,185.107,37.517,185.107,39.075L185.107,39.075z"/>
<circle fill="#FFFFFF" cx="126.408" cy="25.905" r="4.515"/>
<circle fill="#FFFFFF" cx="126.408" cy="65.414" r="4.515"/>
<circle fill="#FFFFFF" cx="126.408" cy="52.244" r="4.515"/>
<circle fill="#FFFFFF" cx="126.408" cy="39.075" r="4.515"/>
<g>
</g>
<g>
</g>
<g>
</g>
</svg>
