<svg xmlns="http://www.w3.org/2000/svg" width="1200" height="432.654" viewBox="0 0 1200 432.654"><g><path fill="#11BA71" d="M432.95 223.54c-213.968 29.513-323.946-7.548-432.884-6.3v133.168H1200V1.595C875.06 40.37 686.68 188.54 432.95 223.54z"/><path fill="#338CC2" d="M432.95 291.07C218.983 320.586 109.005 300.373.067 301.62v80.446H1200v-229.23c-328.436 0-513.32 103.24-767.05 138.237z"/><path fill="#EE5B30" d="M522.5 358.73c-213.972 29.513-413.496 1.577-522.433 2.823v71.1H1200v-159.63c-96.742 2.727-423.773 50.71-677.5 85.706z"/><path fill-opacity=".3" d="M1200 0c-42.033 5.022-82.756 11.933-124.482 21.125-37.03 8.158-73.88 17.91-112.652 29.813-71.768 22.035-137.627 47.69-201.316 72.5-108.777 42.374-211.523 82.4-328.15 98.493-55.744 7.693-108.202 11.433-160.37 11.433-62.397 0-114.333-5.424-160.154-10.21-37.224-3.888-72.384-7.56-106.606-7.56-1.824 0-3.662.01-5.457.03l-.813.012v1.556h1.634v.035c1.47-.014 3.085-.02 4.63-.02 34.136 0 69.255 3.666 106.436 7.55 45.862 4.79 97.844 10.22 160.325 10.22 52.246 0 104.78-3.745 160.6-11.448 116.82-16.12 219.652-56.18 328.523-98.59 63.662-24.8 129.492-50.444 201.2-72.46 38.73-11.892 75.51-21.633 112.497-29.78 41.41-9.124 81.84-15.996 123.502-21.004v-.098h.653V0z"/><g opacity=".5" fill="#fff"><path d="M40.47 259.582c0-.104.093-.196.196-.196h.958c.113 0 .196.093.196.196v2.73h3.357v-2.73c0-.104.083-.196.196-.196h.948c.104 0 .197.093.197.196v6.818c0 .103-.093.195-.196.195h-.947c-.113 0-.196-.093-.196-.195v-2.843H41.82v2.843c0 .103-.083.195-.196.195h-.958c-.103 0-.195-.093-.195-.195v-6.818zM51.46 259.582c0-.104.082-.196.195-.196h4.192c.113 0 .196.093.196.196v.844c0 .104-.083.196-.196.196H52.8v1.688h2.543c.103 0 .196.093.196.196v.854c0 .113-.094.196-.197.196H52.8v1.802h3.047c.113 0 .196.093.196.196v.845c0 .102-.083.194-.196.194h-4.192c-.113 0-.195-.093-.195-.195v-6.818zM60.63 259.582c0-.104.083-.196.196-.196h.948c.103 0 .196.093.196.196v5.777h2.626c.113 0 .195.092.195.195v.845c0 .103-.08.195-.194.195h-3.77c-.113 0-.195-.093-.195-.195v-6.818zM68.88 259.582c0-.104.083-.196.196-.196h2.42c1.267 0 2.307 1.03 2.307 2.276 0 1.277-1.04 2.317-2.297 2.317H70.22v2.42c0 .103-.093.195-.196.195h-.948c-.113 0-.195-.093-.195-.195v-6.818zm2.535 3.14c.577 0 1.06-.462 1.06-1.07 0-.566-.483-1-1.06-1H70.22v2.07h1.195zM77.996 259.582c0-.104.082-.196.195-.196h4.193c.114 0 .196.093.196.196v.844c0 .104-.083.196-.197.196h-3.048v1.937h2.544c.102 0 .195.092.195.194v.845c0 .102-.093.194-.196.194h-2.545v2.606c0 .103-.093.195-.196.195h-.95c-.112 0-.194-.093-.194-.195v-6.818zM86.71 259.582c0-.104.092-.196.195-.196h.98c.112 0 .195.093.195.196v4.212c0 .876.598 1.565 1.494 1.565s1.503-.69 1.503-1.556v-4.223c0-.103.083-.195.196-.195h.98c.102 0 .195.093.195.196v4.285c0 1.565-1.247 2.832-2.874 2.832-1.617 0-2.863-1.267-2.863-2.832v-4.283zM97.312 259.582c0-.104.082-.196.195-.196h.948c.103 0 .196.093.196.196v5.777h2.627c.113 0 .195.092.195.195v.845c0 .103-.082.195-.195.195h-3.77c-.113 0-.195-.093-.195-.195v-6.818zM105.37 265.586l.372-.64c.083-.143.257-.143.35-.07.052.03.886.64 1.555.64.536 0 .938-.352.938-.795 0-.523-.443-.885-1.308-1.234-.968-.392-1.937-1.01-1.937-2.225 0-.916.68-1.977 2.318-1.977 1.05 0 1.854.535 2.06.69.103.06.134.236.062.34l-.392.587c-.083.123-.237.206-.36.123-.083-.052-.865-.566-1.432-.566-.587 0-.906.392-.906.72 0 .485.38.815 1.215 1.155 1 .4 2.152 1 2.152 2.327 0 1.06-.917 2.038-2.37 2.038-1.297 0-2.06-.607-2.265-.803-.092-.092-.144-.144-.05-.31z"/></g><g opacity=".5" fill="#fff"><path d="M43.664 330.007c1.04 0 1.792.33 2.492.958.093.082.093.206.01.288l-.628.648c-.072.084-.175.084-.258 0-.433-.38-1.01-.606-1.586-.606-1.318 0-2.297 1.103-2.297 2.4 0 1.287.99 2.38 2.307 2.38.618 0 1.143-.238 1.576-.588.083-.072.196-.062.258 0l.638.66c.083.07.062.205-.01.276-.7.68-1.586 1-2.502 1-2.06 0-3.718-1.638-3.718-3.698s1.658-3.717 3.718-3.717zM53.595 330.007c2.06 0 3.708 1.658 3.708 3.718s-1.648 3.697-3.708 3.697c-2.06 0-3.697-1.637-3.697-3.697s1.638-3.718 3.697-3.718zm0 6.076c1.298 0 2.37-1.06 2.37-2.358s-1.072-2.38-2.37-2.38c-1.297 0-2.358 1.082-2.358 2.38s1.06 2.358 2.358 2.358zM62.427 330.16c.01-.08.072-.153.186-.153h.165c.082 0 .144.04.175.103l2.266 4.86h.03l2.266-4.86c.03-.062.082-.103.175-.103h.166c.113 0 .175.072.185.154l1.217 6.922c.03.145-.052.237-.186.237h-.937c-.093 0-.175-.083-.195-.155l-.608-3.903h-.03l-1.804 4.047c-.02.06-.082.112-.175.112h-.185c-.093 0-.144-.05-.175-.113l-1.823-4.048h-.03l-.6 3.903c-.01.072-.092.154-.185.154h-.927c-.134 0-.216-.094-.196-.238l1.227-6.92zM74.532 330.16c.01-.08.072-.153.186-.153h.165c.082 0 .144.04.175.103l2.266 4.86h.03l2.267-4.86c.032-.062.083-.103.176-.103h.165c.114 0 .176.072.186.154l1.216 6.922c.03.145-.052.237-.186.237h-.938c-.093 0-.175-.083-.195-.155l-.608-3.903h-.03L77.6 337.31c-.02.06-.08.112-.174.112h-.186c-.093 0-.144-.05-.175-.113l-1.823-4.048h-.03l-.6 3.903c-.01.072-.092.154-.185.154H73.5c-.134 0-.216-.094-.196-.238l1.228-6.92zM85.844 330.306c0-.104.082-.196.195-.196h4.19c.114 0 .197.093.197.196v.844c0 .104-.083.196-.196.196h-3.047v1.69h2.544c.103 0 .196.09.196.194v.854c0 .113-.093.196-.196.196h-2.544v1.802h3.048c.114 0 .197.093.197.196v.845c0 .103-.083.195-.196.195h-4.19c-.114 0-.196-.093-.196-.195v-6.817zM95.014 330.192c0-.104.092-.186.195-.186h.257l4.285 4.552h.01v-4.253c0-.104.082-.196.196-.196h.947c.103 0 .196.092.196.195v6.932c0 .103-.092.185-.195.185h-.247l-4.305-4.728h-.01v4.43c0 .103-.083.195-.196.195h-.938c-.104 0-.196-.094-.196-.196v-6.932zM106.98 331.346h-1.575c-.113 0-.196-.093-.196-.196v-.844c0-.104.082-.196.195-.196h4.5c.114 0 .197.093.197.196v.844c0 .104-.083.196-.196.196h-1.576v5.778c0 .103-.093.195-.196.195h-.958c-.103 0-.196-.094-.196-.196v-5.778zM113.96 336.31l.37-.638c.083-.145.257-.145.35-.072.052.03.886.64 1.555.64.536 0 .938-.352.938-.795 0-.524-.443-.886-1.308-1.235-.968-.392-1.937-1.01-1.937-2.225 0-.917.68-1.978 2.317-1.978 1.05 0 1.854.535 2.06.69.103.06.134.236.062.34l-.392.587c-.082.123-.237.206-.36.123-.083-.052-.865-.566-1.432-.566-.587 0-.906.393-.906.722 0 .484.38.814 1.215 1.154 1 .4 2.152 1 2.152 2.327 0 1.062-.917 2.04-2.37 2.04-1.297 0-2.06-.608-2.265-.804-.092-.094-.143-.145-.05-.31z"/></g><g opacity=".5" fill="#fff"><path d="M40.47 394.654c0-.104.083-.196.196-.196h2.946c1.236 0 2.246.99 2.246 2.215 0 .947-.628 1.72-1.524 2.08l1.41 2.616c.073.133 0 .298-.174.298h-1.082c-.093 0-.144-.052-.165-.093l-1.37-2.73H41.81v2.628c0 .103-.093.195-.196.195h-.948c-.113 0-.195-.093-.195-.195v-6.82zm3.03 3.09c.545 0 1.02-.475 1.02-1.05 0-.547-.475-1-1.02-1h-1.68v2.05h1.68zM50.418 394.654c0-.104.082-.196.195-.196h4.192c.113 0 .196.093.196.196v.844c0 .104-.082.196-.195.196h-3.048v1.688H54.3c.104 0 .197.093.197.196v.854c0 .113-.093.196-.196.196h-2.543v1.802h3.048c.113 0 .196.093.196.196v.845c0 .104-.082.196-.195.196h-4.192c-.113 0-.195-.093-.195-.195v-6.816zM59.14 400.658l.37-.64c.084-.143.258-.143.35-.07.053.03.887.64 1.556.64.536 0 .938-.352.938-.795 0-.524-.443-.886-1.308-1.235-.968-.392-1.937-1.01-1.937-2.225 0-.917.68-1.978 2.317-1.978 1.05 0 1.854.535 2.06.69.103.06.134.236.062.34l-.393.587c-.083.123-.237.206-.36.123-.083-.052-.865-.566-1.432-.566-.587 0-.906.39-.906.72 0 .484.38.814 1.214 1.154 1 .4 2.152 1 2.152 2.327 0 1.063-.917 2.04-2.37 2.04-1.297 0-2.06-.607-2.265-.803-.092-.092-.143-.144-.05-.31zM68.258 394.654c0-.104.082-.196.195-.196h2.42c1.267 0 2.307 1.03 2.307 2.276 0 1.277-1.04 2.317-2.297 2.317h-1.287v2.422c0 .103-.093.195-.196.195h-.948c-.113 0-.195-.093-.195-.195v-6.818zm2.534 3.14c.577 0 1.06-.462 1.06-1.07 0-.566-.483-1-1.06-1h-1.195v2.07h1.195zM80.726 394.355c2.06 0 3.708 1.658 3.708 3.718s-1.648 3.697-3.708 3.697c-2.06 0-3.698-1.637-3.698-3.697s1.638-3.718 3.698-3.718zm0 6.077c1.297 0 2.37-1.06 2.37-2.358s-1.072-2.38-2.37-2.38-2.36 1.082-2.36 2.38 1.062 2.358 2.36 2.358zM88.89 394.54c0-.103.093-.185.196-.185h.258l4.285 4.552h.01v-4.253c0-.104.082-.196.195-.196h.947c.103 0 .196.093.196.196v6.932c0 .103-.093.185-.196.185h-.247l-4.305-4.727h-.01v4.43c0 .103-.083.195-.196.195h-.938c-.103 0-.195-.093-.195-.195v-6.932zM99.548 400.658l.37-.64c.084-.143.258-.143.35-.07.053.03.887.64 1.556.64.536 0 .938-.352.938-.795 0-.524-.443-.886-1.308-1.235-.968-.392-1.937-1.01-1.937-2.225 0-.917.68-1.978 2.318-1.978 1.05 0 1.854.535 2.06.69.103.06.134.236.062.34l-.392.587c-.083.123-.237.206-.36.123-.083-.052-.865-.566-1.432-.566-.587 0-.906.39-.906.72 0 .484.38.814 1.215 1.154 1 .4 2.152 1 2.152 2.327 0 1.063-.917 2.04-2.37 2.04-1.297 0-2.06-.607-2.265-.803-.094-.092-.145-.144-.052-.31zM108.666 394.654c0-.104.082-.196.195-.196h4.193c.113 0 .196.093.196.196v.844c0 .104-.084.196-.197.196h-3.048v1.688h2.544c.102 0 .195.093.195.196v.854c0 .113-.093.196-.196.196h-2.545v1.802h3.048c.113 0 .196.093.196.196v.845c0 .104-.084.196-.197.196h-4.192c-.112 0-.194-.093-.194-.195v-6.816zM117.388 400.658l.37-.64c.084-.143.258-.143.35-.07.053.03.887.64 1.556.64.536 0 .938-.352.938-.795 0-.524-.443-.886-1.308-1.235-.968-.392-1.937-1.01-1.937-2.225 0-.917.68-1.978 2.318-1.978 1.05 0 1.854.535 2.06.69.103.06.134.236.062.34l-.392.587c-.083.123-.237.206-.36.123-.083-.052-.865-.566-1.432-.566-.587 0-.906.39-.906.72 0 .484.38.814 1.215 1.154 1 .4 2.152 1 2.152 2.327 0 1.063-.917 2.04-2.37 2.04-1.297 0-2.06-.607-2.265-.803-.094-.092-.145-.144-.052-.31z"/></g><circle fill="#999" cx="718.26" cy="140.812" r="5.118"/></g><g><path fill="#333" d="M701.01 135.66v9.007l5.983-4.503-5.984-4.503zM698 73.655H424c-1.657 0-3 1.343-3 3v124c0 1.657 1.343 3 3 3h274c1.657 0 3-1.343 3-3v-124c0-1.657-1.343-3-3-3z" opacity=".902"/><g fill="#fff"><path d="M440.62 99.2l-2.09-6.722h-.053c.075 1.367.113 2.28.113 2.736v3.984h-1.645v-8.566h2.505l2.055 6.55h.035l2.18-6.55h2.505v8.566h-1.716v-4.055c0-.19.002-.412.008-.662s.033-.913.08-1.99h-.053l-2.238 6.708h-1.686zM456.32 99.2l-.63-2.04h-3.164l-.63 2.04h-1.982l3.063-8.603h2.25l3.076 8.602h-1.983zm-1.068-3.563c-.582-1.848-.91-2.893-.982-3.135-.074-.242-.126-.434-.158-.574-.13.5-.504 1.736-1.122 3.71h2.262zM463.877 94.16l1.81-3.527h1.984l-2.88 5.232V99.2h-1.827v-3.276l-2.88-5.29h1.995l1.8 3.526zM481.91 92.55c0 .534-.165.99-.493 1.364-.33.375-.79.633-1.384.773v.035c.7.086 1.23.296 1.592.63.36.334.54.784.54 1.35 0 .825-.303 1.467-.908 1.926s-1.47.688-2.595.688c-.942 0-1.777-.154-2.506-.463v-1.54c.337.167.707.304 1.11.41.404.104.804.157 1.2.157.604 0 1.052-.102 1.34-.305s.435-.53.435-.98c0-.4-.165-.687-.498-.854-.332-.167-.862-.25-1.59-.25h-.66V94.1h.67c.674 0 1.166-.087 1.477-.26s.465-.473.465-.895c0-.648-.41-.973-1.234-.973-.284 0-.574.047-.87.14s-.62.257-.98.487l-.85-1.25c.79-.56 1.735-.843 2.83-.843.9 0 1.61.18 2.13.54s.78.86.78 1.502zM497.21 99.2h-6.067v-1.26l2.18-2.175c.644-.652 1.065-1.104 1.264-1.356.197-.253.34-.486.428-.7.087-.216.13-.44.13-.67 0-.343-.096-.6-.288-.767-.19-.168-.448-.252-.77-.252-.335 0-.662.077-.978.23s-.648.37-.992.65l-.998-1.166c.428-.36.782-.613 1.062-.762.28-.148.588-.263.92-.343.333-.08.705-.12 1.117-.12.54 0 1.02.097 1.436.292.416.195.738.47.968.82s.345.754.345 1.207c0 .394-.07.764-.212 1.11s-.358.7-.653 1.062-.814.88-1.56 1.553l-1.115 1.037v.082h3.782V99.2zM506.74 94.916c0 1.496-.25 2.604-.746 3.322-.496.72-1.262 1.078-2.294 1.078-1.002 0-1.757-.37-2.266-1.113s-.763-1.838-.763-3.287c0-1.512.248-2.626.743-3.343.494-.717 1.257-1.075 2.286-1.075 1 0 1.757.375 2.27 1.125s.77 1.848.77 3.293zm-4.246 0c0 1.05.093 1.804.276 2.26.185.454.494.682.93.682.427 0 .735-.23.926-.69s.285-1.212.285-2.25c0-1.052-.095-1.807-.287-2.266s-.5-.688-.923-.688c-.432 0-.74.23-.927.688-.185.458-.28 1.213-.28 2.264zM514.67 99.2h-1.835V94.24l.018-.814.03-.89c-.306.3-.517.497-.636.59l-.997.792-.885-1.09 2.796-2.197h1.51V99.2zM525.418 97.424h-1.045V99.2h-1.793v-1.776h-3.705v-1.26l3.806-5.53h1.693v5.384h1.045v1.406zm-2.838-1.406v-1.453c0-.242.01-.594.03-1.055s.034-.73.047-.803h-.048c-.147.32-.323.633-.53.938l-1.59 2.373h2.09z"/></g><g fill="#fff"><path d="M669.385 99.2l-.867-2.38H665.2l-.85 2.38h-1.496l3.248-8.603h1.543l3.248 8.602h-1.508zm-1.24-3.587l-.814-2.332c-.06-.155-.14-.4-.245-.737-.105-.336-.178-.582-.217-.738-.107.48-.264 1.006-.47 1.576l-.783 2.233h2.53zM673.218 99.2l-2.493-6.48h1.473l1.336 3.767c.23.633.368 1.145.415 1.535h.047c.035-.28.174-.793.416-1.535l1.335-3.768h1.484l-2.505 6.48h-1.51zM683.797 92.72v.755l-1.122.205c.103.137.188.305.255.504s.102.41.102.633c0 .668-.234 1.193-.7 1.576s-1.11.574-1.93.574c-.21 0-.4-.016-.57-.047-.3.184-.45.398-.45.645 0 .148.068.26.21.334s.398.11.774.11h1.146c.725 0 1.274.152 1.65.457s.564.744.564 1.318c0 .734-.307 1.3-.92 1.7-.614.397-1.5.597-2.66.597-.895 0-1.577-.156-2.05-.47-.47-.31-.705-.757-.705-1.335 0-.398.13-.733.384-1.005s.612-.46 1.07-.565c-.185-.078-.338-.204-.46-.378-.12-.175-.18-.357-.18-.55 0-.24.07-.446.208-.614.138-.168.344-.334.617-.498-.342-.145-.617-.38-.83-.706s-.317-.708-.317-1.146c0-.703.225-1.248.675-1.635.448-.386 1.09-.58 1.92-.58.187 0 .38.014.585.04s.357.05.46.078h2.274zm-5.16 7.487c0 .297.136.525.407.686s.652.24 1.143.24c.76 0 1.326-.107 1.698-.322s.56-.5.56-.854c0-.28-.104-.48-.307-.6-.204-.12-.583-.18-1.138-.18h-1.057c-.4 0-.718.093-.953.278s-.352.437-.352.753zm.6-5.39c0 .405.105.718.317.937s.516.328.91.328c.81 0 1.212-.426 1.212-1.277 0-.422-.1-.747-.3-.976-.2-.23-.503-.344-.91-.344-.404 0-.71.113-.918.34s-.31.557-.31.99z"/></g><g fill="#fff"><path d="M604.998 99.2h-1.42v-7.366h-2.553v-1.2h6.525v1.2h-2.553V99.2zM613.65 95.947c0 1.06-.275 1.885-.825 2.48-.55.593-1.316.89-2.298.89-.614 0-1.156-.137-1.627-.41-.472-.273-.833-.666-1.087-1.178-.253-.513-.38-1.106-.38-1.782 0-1.05.273-1.87.82-2.46s1.315-.886 2.31-.886c.95 0 1.7.302 2.255.905.555.603.832 1.417.832 2.44zm-4.78 0c0 1.496.56 2.244 1.68 2.244 1.11 0 1.663-.747 1.663-2.243 0-1.48-.558-2.22-1.674-2.22-.587 0-1.012.19-1.274.573-.264.384-.396.932-.396 1.647zM617.496 99.316c-.82 0-1.458-.293-1.918-.88-.46-.585-.688-1.407-.688-2.466 0-1.062.232-1.89.698-2.48.465-.593 1.108-.89 1.932-.89.863 0 1.52.315 1.972.944h.07c-.066-.465-.1-.832-.1-1.102v-2.36h1.4v9.116h-1.092l-.244-.85h-.064c-.448.646-1.103.968-1.966.968zm.374-1.113c.574 0 .99-.16 1.253-.478s.396-.835.403-1.55v-.193c0-.816-.134-1.396-.403-1.74s-.69-.516-1.265-.516c-.49 0-.87.196-1.134.59-.266.392-.398.95-.398 1.678 0 .72.13 1.267.387 1.644s.642.565 1.157.565zM626.887 99.2l-.28-.903h-.047c-.316.395-.635.663-.956.806-.32.143-.732.214-1.234.214-.646 0-1.15-.172-1.512-.516-.36-.343-.543-.83-.543-1.458 0-.668.252-1.172.754-1.512.502-.34 1.268-.525 2.297-.557l1.134-.035v-.346c0-.414-.097-.724-.293-.93-.195-.204-.5-.307-.91-.307-.337 0-.66.05-.97.146s-.604.214-.89.347l-.45-.984c.355-.184.745-.323 1.17-.42s.822-.143 1.198-.143c.835 0 1.466.18 1.89.54.427.358.64.923.64 1.692v4.365h-.998zm-2.078-.938c.505 0 .912-.14 1.22-.42s.46-.67.46-1.174v-.562l-.844.035c-.657.024-1.135.133-1.434.326s-.448.49-.448.888c0 .29.087.513.26.67s.436.238.785.238zM628.7 92.72h1.52l1.335 3.673c.202.523.337 1.016.404 1.477h.046c.036-.215.102-.476.196-.782s.598-1.763 1.508-4.368h1.51l-2.81 7.342c-.51 1.348-1.362 2.02-2.553 2.02-.31 0-.61-.032-.903-.1v-1.09c.21.048.45.07.72.07.672 0 1.145-.384 1.418-1.153l.243-.61-2.636-6.48z"/></g><g fill="#fff"><path d="M456.72 124.2h-1.01v-7.683h-2.75v-.885h6.508v.885h-2.75v7.682zM465.297 120.982c0 1.047-.267 1.864-.8 2.452s-1.273.882-2.216.882c-.58 0-1.098-.135-1.55-.404s-.8-.656-1.044-1.16-.368-1.094-.368-1.77c0-1.047.266-1.862.796-2.446s1.267-.876 2.21-.876c.91 0 1.632.3 2.17.896.535.598.803 1.407.803 2.426zm-4.957 0c0 .82.166 1.445.5 1.875.33.43.82.645 1.465.645.646 0 1.135-.214 1.47-.642.334-.428.502-1.054.502-1.878 0-.816-.168-1.437-.502-1.86-.335-.424-.828-.636-1.48-.636-.647 0-1.133.21-1.46.627-.33.418-.495 1.04-.495 1.87zM469.028 123.514c.175 0 .343-.013.505-.038s.29-.052.386-.08v.745c-.107.052-.265.094-.473.127s-.395.05-.562.05c-1.26 0-1.888-.654-1.888-1.963v-3.82h-.933v-.47l.933-.403.416-1.37h.57v1.488h1.888v.756h-1.888v3.78c0 .386.093.683.28.89.186.206.442.31.766.31zM475.433 124.2l-.196-.915h-.047c-.325.402-.648.675-.972.817-.322.143-.725.214-1.208.214-.645 0-1.15-.164-1.517-.492s-.55-.795-.55-1.4c0-1.297 1.052-1.977 3.153-2.04l1.104-.034v-.398c0-.504-.11-.876-.33-1.116s-.57-.36-1.054-.36c-.542 0-1.155.164-1.84.492l-.304-.744c.32-.172.672-.307 1.054-.404.383-.098.766-.146 1.15-.146.774 0 1.35.17 1.724.51s.562.885.562 1.635v4.382h-.73zm-2.227-.686c.613 0 1.096-.166 1.445-.498.352-.332.526-.797.526-1.395v-.58l-.985.042c-.782.027-1.348.147-1.694.36-.346.213-.52.544-.52.993 0 .352.108.62.324.803s.518.276.906.276zM479.116 124.2h-.985v-9.118h.986v9.117zM489.352 124.2h-4.84v-8.567h4.84v.885h-3.83v2.76h3.6v.88h-3.6v3.15h3.83v.89zM495.415 124.2v-4.155c0-.523-.12-.914-.362-1.172s-.62-.387-1.134-.387c-.682 0-1.18.182-1.497.545-.317.364-.476.964-.476 1.8v3.37h-.985v-6.423h.802l.16.88h.048c.2-.317.484-.563.85-.736s.77-.26 1.216-.26c.784 0 1.374.187 1.77.56s.594.97.594 1.79v4.19h-.987zM503.687 117.777v.615l-1.206.14c.112.138.21.316.298.537s.13.47.13.746c0 .63-.217 1.13-.652 1.506s-1.033.562-1.793.562c-.193 0-.376-.016-.546-.047-.42.22-.63.494-.63.826 0 .176.073.306.22.39s.398.126.755.126h1.15c.705 0 1.247.145 1.625.438s.566.72.566 1.277c0 .71-.288 1.253-.866 1.626s-1.42.56-2.53.56c-.85 0-1.506-.155-1.968-.468-.462-.312-.692-.754-.692-1.324 0-.39.127-.73.38-1.014.254-.285.61-.48 1.07-.58-.168-.074-.308-.19-.42-.346-.113-.156-.17-.338-.17-.545 0-.234.063-.44.19-.615s.327-.346.6-.51c-.336-.137-.61-.37-.822-.697s-.317-.702-.317-1.124c0-.703.213-1.245.64-1.626.428-.38 1.033-.57 1.817-.57.34 0 .647.038.92.116h2.25zm-5.19 7.5c0 .348.148.61.445.79s.722.27 1.276.27c.827 0 1.44-.12 1.838-.365.397-.244.597-.575.597-.993 0-.35-.11-.59-.327-.725s-.627-.202-1.23-.202h-1.18c-.448 0-.797.105-1.046.316s-.373.513-.373.907zm.534-5.443c0 .45.13.79.387 1.02.258.23.615.346 1.075.346.962 0 1.442-.46 1.442-1.383 0-.965-.486-1.447-1.46-1.447-.464 0-.82.123-1.07.37s-.373.61-.373 1.094zM508.92 124.2l-.195-.915h-.047c-.325.402-.648.675-.972.817-.322.143-.725.214-1.208.214-.645 0-1.15-.164-1.517-.492s-.55-.795-.55-1.4c0-1.297 1.053-1.977 3.154-2.04l1.104-.034v-.398c0-.504-.11-.876-.33-1.116s-.57-.36-1.054-.36c-.542 0-1.155.164-1.84.492l-.304-.744c.32-.172.672-.307 1.054-.404.383-.098.766-.146 1.15-.146.774 0 1.35.17 1.724.51s.562.885.562 1.635v4.382h-.73zm-2.226-.686c.613 0 1.096-.166 1.445-.498.35-.332.524-.797.524-1.395v-.58l-.985.042c-.784.027-1.35.147-1.696.36-.346.213-.52.544-.52.993 0 .352.108.62.324.803s.52.276.906.276zM516.94 117.777v.615l-1.206.14c.11.138.21.316.297.537s.132.47.132.746c0 .63-.218 1.13-.653 1.506s-1.034.562-1.794.562c-.193 0-.376-.016-.546-.047-.42.22-.63.494-.63.826 0 .176.073.306.22.39s.398.126.755.126h1.15c.705 0 1.247.145 1.625.438s.566.72.566 1.277c0 .71-.288 1.253-.866 1.626s-1.42.56-2.53.56c-.85 0-1.506-.155-1.968-.468-.46-.312-.69-.754-.69-1.324 0-.39.126-.73.38-1.014.253-.285.608-.48 1.068-.58-.167-.074-.307-.19-.42-.346-.112-.156-.168-.338-.168-.545 0-.234.062-.44.19-.615s.326-.346.6-.51c-.337-.137-.61-.37-.823-.697s-.318-.702-.318-1.124c0-.703.214-1.245.642-1.626.427-.38 1.032-.57 1.816-.57.34 0 .647.038.92.116h2.25zm-5.19 7.5c0 .348.15.61.446.79s.722.27 1.276.27c.827 0 1.44-.12 1.838-.365.397-.244.597-.575.597-.993 0-.35-.11-.59-.327-.725s-.627-.202-1.23-.202h-1.18c-.448 0-.797.105-1.046.316s-.373.513-.373.907zm.535-5.443c0 .45.13.79.386 1.02.26.23.616.346 1.076.346.962 0 1.442-.46 1.442-1.383 0-.965-.486-1.447-1.46-1.447-.464 0-.82.123-1.07.37s-.373.61-.373 1.094zM520.83 124.316c-.962 0-1.72-.29-2.277-.867-.556-.58-.834-1.382-.834-2.41 0-1.034.258-1.856.774-2.466s1.21-.914 2.08-.914c.815 0 1.46.265 1.937.794.476.53.713 1.228.713 2.095v.614h-4.482c.02.754.214 1.326.58 1.717s.882.587 1.546.587c.7 0 1.394-.145 2.078-.434v.867c-.348.148-.678.255-.988.32s-.686.096-1.126.096zm-.268-5.84c-.522 0-.938.167-1.25.503-.31.335-.493.8-.55 1.394h3.403c0-.613-.14-1.083-.416-1.41-.276-.326-.673-.49-1.188-.49zM533.157 124.2v-4.18c0-.51-.11-.895-.332-1.15s-.566-.384-1.033-.384c-.613 0-1.066.174-1.36.52s-.438.884-.438 1.606v3.586h-.985v-4.178c0-.512-.112-.896-.334-1.15s-.567-.385-1.04-.385c-.616 0-1.068.183-1.355.548s-.43.964-.43 1.796v3.368h-.985v-6.422h.802l.16.88h.048c.186-.313.448-.558.786-.733.34-.176.72-.264 1.138-.264 1.018 0 1.683.362 1.995 1.09h.048c.194-.337.476-.603.844-.798s.788-.293 1.26-.293c.735 0 1.286.186 1.652.56s.55.97.55 1.79v4.188h-.99zM538.883 124.316c-.962 0-1.72-.29-2.277-.867-.556-.58-.834-1.382-.834-2.41 0-1.034.26-1.856.775-2.466s1.21-.914 2.08-.914c.815 0 1.46.265 1.937.794.475.53.712 1.228.712 2.095v.614h-4.482c.02.754.213 1.326.58 1.717s.88.587 1.545.587c.7 0 1.393-.145 2.077-.434v.867c-.348.148-.678.255-.988.32s-.688.096-1.127.096zm-.268-5.84c-.522 0-.938.167-1.25.503-.31.335-.493.8-.55 1.394h3.403c0-.613-.14-1.083-.416-1.41-.276-.326-.672-.49-1.187-.49zM547.37 124.2v-4.155c0-.523-.122-.914-.363-1.172s-.62-.387-1.134-.387c-.68 0-1.18.182-1.496.545-.317.364-.476.964-.476 1.8v3.37h-.984v-6.423h.802l.16.88h.048c.2-.317.484-.563.85-.736s.77-.26 1.216-.26c.784 0 1.374.187 1.77.56s.594.97.594 1.79v4.19h-.987zM552.456 123.514c.175 0 .343-.013.505-.038s.292-.052.387-.08v.745c-.106.052-.264.094-.472.127s-.395.05-.562.05c-1.26 0-1.888-.654-1.888-1.963v-3.82h-.933v-.47l.933-.403.416-1.37h.57v1.488h1.89v.756h-1.89v3.78c0 .386.093.683.28.89.186.206.442.31.766.31zM460.638 144.2h-1.01v-4.032h-4.57v4.03h-1.01v-8.565h1.01v3.645h4.57v-3.645h1.01v8.566zM465.587 144.316c-.962 0-1.72-.29-2.277-.867-.556-.58-.834-1.382-.834-2.41 0-1.034.26-1.856.775-2.466s1.21-.914 2.082-.914c.814 0 1.46.265 1.936.794.475.53.712 1.228.712 2.095v.614h-4.482c.02.754.213 1.326.58 1.717s.88.587 1.545.587c.7 0 1.394-.145 2.078-.434v.867c-.347.148-.677.255-.987.32s-.687.096-1.126.096zm-.268-5.84c-.523 0-.94.167-1.25.503-.312.335-.494.8-.55 1.394h3.402c0-.613-.14-1.083-.416-1.41-.276-.326-.672-.49-1.187-.49zM470.613 144.2h-.985v-9.118h.985v9.117zM475.637 144.316c-.424 0-.81-.077-1.16-.23s-.646-.393-.883-.713h-.07c.047.375.07.73.07 1.066v2.642h-.985v-9.305h.8l.138.88h.047c.254-.353.55-.606.885-.763.337-.156.723-.234 1.158-.234.862 0 1.528.29 1.998.873.47.582.703 1.398.703 2.45 0 1.054-.24 1.873-.717 2.457-.477.584-1.14.876-1.986.876zm-.143-5.83c-.665 0-1.146.182-1.443.545s-.448.942-.456 1.735v.217c0 .902.152 1.548.457 1.937s.795.582 1.468.582c.562 0 1.003-.225 1.32-.674s.48-1.068.48-1.857c0-.8-.16-1.414-.48-1.842s-.766-.642-1.344-.642zM482.956 138.533H481.3v5.666h-.985v-5.667h-1.164v-.44l1.165-.35v-.358c0-1.578.698-2.367 2.096-2.367.346 0 .75.068 1.212.205l-.255.78c-.38-.122-.705-.183-.974-.183-.372 0-.647.122-.825.366-.18.244-.268.636-.268 1.175v.417h1.656v.756zM485.197 137.777v4.166c0 .523.12.914.362 1.172.24.258.62.387 1.134.387.68 0 1.178-.184 1.493-.55.314-.368.472-.968.472-1.8v-3.375h.984v6.422h-.813l-.142-.862h-.053c-.202.316-.482.56-.84.727s-.768.252-1.227.252c-.792 0-1.385-.186-1.778-.557s-.59-.965-.59-1.78v-4.202h.997zM492.626 144.2h-.985v-9.118h.986v9.117zM498.846 142.447c0 .598-.226 1.06-.677 1.383s-1.085.486-1.9.486c-.863 0-1.536-.135-2.02-.404v-.902c.313.156.648.28 1.007.37s.704.134 1.036.134c.515 0 .91-.08 1.188-.243s.417-.408.417-.74c0-.25-.11-.464-.33-.642s-.648-.388-1.285-.63c-.605-.223-1.036-.417-1.29-.583-.257-.166-.446-.354-.57-.565s-.19-.463-.19-.756c0-.523.217-.937.648-1.24s1.023-.453 1.775-.453c.7 0 1.386.142 2.055.423l-.35.79c-.654-.265-1.246-.397-1.776-.397-.467 0-.82.072-1.057.217s-.356.344-.356.598c0 .173.046.32.135.44s.232.236.43.346c.198.11.578.268 1.14.475.772.278 1.294.558 1.565.84s.406.63.406 1.057zM457.764 156.4c-.954 0-1.707.313-2.26.94-.552.627-.828 1.485-.828 2.575 0 1.12.267 1.987.8 2.6s1.29.916 2.276.916c.605 0 1.296-.106 2.072-.32v.872c-.603.223-1.344.334-2.227.334-1.28 0-2.266-.383-2.96-1.148s-1.042-1.854-1.042-3.264c0-.883.167-1.656.502-2.32.334-.664.817-1.176 1.448-1.535.632-.36 1.375-.54 2.23-.54.91 0 1.705.164 2.386.492l-.427.855c-.655-.304-1.312-.457-1.97-.457zM466.997 160.982c0 1.047-.267 1.864-.8 2.452s-1.273.882-2.216.882c-.58 0-1.098-.135-1.55-.404s-.8-.656-1.044-1.16-.368-1.094-.368-1.77c0-1.047.266-1.862.796-2.446s1.267-.876 2.21-.876c.91 0 1.632.3 2.17.896.535.598.803 1.407.803 2.426zm-4.957 0c0 .82.166 1.445.5 1.875.33.43.82.645 1.465.645.646 0 1.135-.214 1.47-.642.334-.428.502-1.054.502-1.878 0-.816-.168-1.437-.502-1.86-.335-.424-.828-.636-1.48-.636-.647 0-1.133.21-1.46.627-.33.418-.495 1.04-.495 1.87zM476.974 164.2v-4.18c0-.51-.11-.895-.332-1.15s-.566-.384-1.033-.384c-.614 0-1.067.174-1.36.52s-.44.884-.44 1.606v3.586h-.984v-4.178c0-.512-.11-.896-.333-1.15s-.567-.385-1.04-.385c-.616 0-1.068.183-1.355.548s-.43.964-.43 1.796v3.368h-.986v-6.422h.802l.16.88h.048c.186-.313.448-.558.786-.733.34-.176.718-.264 1.137-.264 1.018 0 1.683.362 1.995 1.09h.048c.193-.337.475-.603.843-.798s.79-.293 1.26-.293c.736 0 1.287.186 1.653.56s.55.97.55 1.79v4.188h-.99zM488.218 164.2v-4.18c0-.51-.11-.895-.332-1.15s-.566-.384-1.033-.384c-.613 0-1.066.174-1.36.52s-.438.884-.438 1.606v3.586h-.985v-4.178c0-.512-.11-.896-.333-1.15s-.567-.385-1.04-.385c-.616 0-1.068.183-1.355.548s-.43.964-.43 1.796v3.368h-.986v-6.422h.802l.16.88h.048c.186-.313.448-.558.786-.733.34-.176.718-.264 1.137-.264 1.017 0 1.682.362 1.994 1.09h.048c.193-.337.475-.603.843-.798s.788-.293 1.26-.293c.735 0 1.286.186 1.652.56s.55.97.55 1.79v4.188h-.99zM493.948 164.316c-.962 0-1.72-.29-2.277-.867-.555-.58-.833-1.382-.833-2.41 0-1.034.26-1.856.775-2.466s1.21-.914 2.08-.914c.815 0 1.46.265 1.937.794.474.53.71 1.228.71 2.095v.614h-4.48c.02.754.212 1.326.578 1.717s.882.587 1.546.587c.7 0 1.394-.145 2.078-.434v.867c-.348.148-.678.255-.988.32s-.686.096-1.126.096zm-.267-5.84c-.52 0-.937.167-1.248.503-.312.335-.494.8-.55 1.394h3.402c0-.613-.14-1.083-.416-1.41-.276-.326-.673-.49-1.187-.49zM502.44 164.2v-4.155c0-.523-.122-.914-.363-1.172s-.62-.387-1.134-.387c-.68 0-1.18.182-1.496.545-.317.364-.476.964-.476 1.8v3.37h-.984v-6.423h.802l.16.88h.048c.2-.317.484-.563.85-.736s.77-.26 1.216-.26c.784 0 1.374.187 1.77.56s.594.97.594 1.79v4.19h-.987zM507.526 163.514c.175 0 .343-.013.505-.038s.292-.052.387-.08v.745c-.106.052-.264.094-.472.127s-.395.05-.562.05c-1.26 0-1.888-.654-1.888-1.963v-3.82h-.933v-.47l.933-.403.416-1.37h.57v1.488h1.89v.756h-1.89v3.78c0 .386.093.683.28.89.186.206.442.31.766.31zM514.15 162.447c0 .598-.225 1.06-.676 1.383s-1.084.486-1.9.486c-.862 0-1.535-.135-2.018-.404v-.902c.312.156.647.28 1.006.37s.704.134 1.036.134c.515 0 .91-.08 1.188-.243s.416-.408.416-.74c0-.25-.11-.464-.33-.642s-.648-.388-1.285-.63c-.605-.223-1.036-.417-1.29-.583-.257-.166-.446-.354-.57-.565s-.19-.463-.19-.756c0-.523.217-.937.648-1.24s1.023-.453 1.775-.453c.7 0 1.386.142 2.055.423l-.35.79c-.654-.265-1.246-.397-1.776-.397-.468 0-.82.072-1.058.217s-.356.344-.356.598c0 .173.045.32.134.44s.232.236.43.346c.198.11.578.268 1.14.475.772.278 1.294.558 1.565.84s.406.63.406 1.057zM455.057 180.637v3.562h-1.01v-8.567h2.38c1.065 0 1.853.2 2.36.604.51.402.764 1.008.764 1.816 0 1.133-.58 1.898-1.744 2.297l2.356 3.85h-1.193l-2.103-3.562h-1.81zm0-.856h1.383c.713 0 1.235-.14 1.567-.418.333-.28.5-.698.5-1.257 0-.566-.17-.975-.51-1.225-.337-.25-.88-.375-1.63-.375h-1.31v3.276zM464.056 184.316c-.962 0-1.72-.29-2.277-.867-.557-.58-.835-1.382-.835-2.41 0-1.034.26-1.856.775-2.466s1.21-.914 2.08-.914c.815 0 1.46.265 1.937.794.475.53.712 1.228.712 2.095v.614h-4.483c.02.754.213 1.326.58 1.717s.88.587 1.545.587c.7 0 1.394-.145 2.078-.434v.867c-.348.148-.678.255-.988.32s-.687.096-1.126.096zm-.268-5.84c-.522 0-.938.167-1.25.503-.31.335-.493.8-.55 1.394h3.403c0-.613-.138-1.083-.415-1.41-.276-.326-.672-.49-1.187-.49zM472.344 182.447c0 .598-.226 1.06-.677 1.383s-1.084.486-1.9.486c-.862 0-1.535-.135-2.018-.404v-.902c.31.156.646.28 1.005.37s.704.134 1.036.134c.516 0 .91-.08 1.19-.243s.415-.408.415-.74c0-.25-.11-.464-.33-.642s-.648-.388-1.285-.63c-.605-.223-1.036-.417-1.29-.583-.257-.166-.446-.354-.57-.565s-.19-.463-.19-.756c0-.523.217-.937.648-1.24s1.023-.453 1.775-.453c.7 0 1.386.142 2.055.423l-.35.79c-.654-.265-1.246-.397-1.776-.397-.467 0-.82.072-1.057.217s-.356.344-.356.598c0 .173.044.32.133.44s.232.236.43.346c.198.11.578.268 1.14.475.772.278 1.294.558 1.565.84s.406.63.406 1.057zM476.89 184.316c-.424 0-.81-.077-1.16-.23s-.646-.393-.883-.713h-.07c.047.375.07.73.07 1.066v2.642h-.985v-9.305h.802l.137.88h.048c.254-.353.55-.606.885-.763.337-.156.723-.234 1.158-.234.863 0 1.53.29 2 .873.468.582.702 1.398.702 2.45 0 1.054-.238 1.873-.716 2.457-.478.584-1.14.876-1.986.876zm-.143-5.83c-.665 0-1.146.182-1.443.545s-.45.942-.457 1.735v.217c0 .902.152 1.548.457 1.937s.794.582 1.467.582c.563 0 1.004-.225 1.322-.674s.478-1.068.478-1.857c0-.8-.16-1.414-.478-1.842s-.767-.642-1.345-.642zM486.936 180.982c0 1.047-.267 1.864-.8 2.452s-1.273.882-2.216.882c-.582 0-1.1-.135-1.55-.404s-.8-.656-1.045-1.16-.368-1.094-.368-1.77c0-1.047.266-1.862.796-2.446s1.267-.876 2.21-.876c.91 0 1.632.3 2.17.896.535.598.803 1.407.803 2.426zm-4.957 0c0 .82.165 1.445.498 1.875.332.43.82.645 1.466.645s1.135-.214 1.47-.642c.334-.428.502-1.054.502-1.878 0-.816-.168-1.437-.502-1.86-.335-.424-.828-.636-1.48-.636-.647 0-1.133.21-1.46.627-.33.418-.495 1.04-.495 1.87zM493.07 184.2v-4.155c0-.523-.12-.914-.362-1.172s-.62-.387-1.134-.387c-.68 0-1.18.182-1.496.545-.317.364-.476.964-.476 1.8v3.37h-.985v-6.423h.802l.16.88h.047c.2-.317.484-.563.85-.736s.77-.26 1.216-.26c.784 0 1.374.187 1.77.56s.594.97.594 1.79v4.19h-.987zM500.188 182.447c0 .598-.226 1.06-.677 1.383s-1.083.486-1.898.486c-.863 0-1.536-.135-2.02-.404v-.902c.313.156.648.28 1.007.37s.703.134 1.035.134c.515 0 .91-.08 1.188-.243s.416-.408.416-.74c0-.25-.11-.464-.33-.642s-.65-.388-1.286-.63c-.605-.223-1.036-.417-1.29-.583-.257-.166-.446-.354-.57-.565s-.19-.463-.19-.756c0-.523.217-.937.648-1.24s1.023-.453 1.775-.453c.7 0 1.386.142 2.055.423l-.35.79c-.654-.265-1.246-.397-1.776-.397-.467 0-.82.072-1.057.217s-.357.344-.357.598c0 .173.045.32.134.44s.232.236.43.346c.198.11.578.268 1.14.475.772.278 1.294.558 1.565.84s.406.63.406 1.057zM504.558 184.316c-.962 0-1.72-.29-2.277-.867-.555-.58-.833-1.382-.833-2.41 0-1.034.26-1.856.775-2.466s1.21-.914 2.08-.914c.815 0 1.46.265 1.937.794.474.53.71 1.228.71 2.095v.614h-4.48c.02.754.212 1.326.578 1.717s.882.587 1.546.587c.7 0 1.394-.145 2.078-.434v.867c-.348.148-.678.255-.988.32s-.687.096-1.126.096zm-.268-5.84c-.522 0-.938.167-1.25.503-.31.335-.493.8-.55 1.394h3.403c0-.613-.14-1.083-.416-1.41-.276-.326-.672-.49-1.187-.49zM512.845 182.447c0 .598-.226 1.06-.677 1.383s-1.084.486-1.9.486c-.862 0-1.535-.135-2.018-.404v-.902c.312.156.647.28 1.006.37s.704.134 1.036.134c.515 0 .91-.08 1.188-.243s.416-.408.416-.74c0-.25-.11-.464-.33-.642s-.648-.388-1.285-.63c-.604-.223-1.035-.417-1.29-.583-.256-.166-.445-.354-.57-.565s-.188-.463-.188-.756c0-.523.216-.937.647-1.24s1.022-.453 1.774-.453c.7 0 1.386.142 2.055.423l-.352.79c-.653-.265-1.245-.397-1.775-.397-.467 0-.82.072-1.057.217s-.356.344-.356.598c0 .173.045.32.134.44s.232.236.43.346c.198.11.578.268 1.14.475.772.278 1.294.558 1.565.84s.405.63.405 1.057z"/></g><circle fill="#666" cx="442" cy="119.654" r="5"/><circle fill="#5C9349" cx="442" cy="139.654" r="5"/><circle fill="#245D9A" cx="442" cy="159.654" r="5"/><circle fill="#E36233" cx="442" cy="179.654" r="5"/><g fill="#fff"><path d="M626.26 125.2h-.963v-6.106c0-.508.016-.988.048-1.44-.083.08-.177.167-.28.257s-.573.472-1.412 1.144l-.522-.668 2.3-1.752h.83v8.565zM634.668 120.904c0 1.48-.236 2.586-.71 3.316-.473.73-1.195 1.096-2.17 1.096-.934 0-1.645-.374-2.13-1.122-.488-.748-.73-1.845-.73-3.29 0-1.492.234-2.6.706-3.322.47-.723 1.19-1.084 2.155-1.084.94 0 1.656.377 2.145 1.13.49.755.733 1.847.733 3.276zm-4.743 0c0 1.246.148 2.153.445 2.722s.77.853 1.42.853c.655 0 1.132-.29 1.427-.865s.442-1.48.442-2.71-.148-2.132-.443-2.704-.77-.857-1.428-.857c-.65 0-1.123.282-1.42.847s-.445 1.468-.445 2.714zM629.017 141.537c0-1.684.332-2.942.995-3.776s1.644-1.25 2.94-1.25c.448 0 .8.037 1.058.11v.84c-.305-.1-.652-.147-1.045-.147-.93 0-1.64.286-2.13.858-.492.573-.76 1.473-.81 2.7h.072c.436-.673 1.124-1.01 2.066-1.01.78 0 1.394.233 1.843.698s.674 1.096.674 1.893c0 .892-.246 1.592-.74 2.102-.49.51-1.157.765-1.996.765-.898 0-1.61-.333-2.138-1s-.79-1.592-.79-2.78zm2.915 2.953c.562 0 1-.175 1.31-.524s.466-.854.466-1.515c0-.565-.145-1.01-.433-1.335-.29-.324-.72-.486-1.295-.486-.356 0-.683.07-.98.216s-.532.344-.71.598c-.175.254-.263.518-.263.79 0 .403.08.778.237 1.126s.383.623.674.826.622.304.994.304zM634.295 158.648c0 .547-.155.994-.466 1.342s-.752.58-1.322.697v.047c.697.086 1.213.305 1.55.656s.505.812.505 1.383c0 .816-.287 1.444-.86 1.884-.574.44-1.39.66-2.447.66-.46 0-.88-.035-1.262-.104-.382-.068-.753-.188-1.113-.36v-.926c.378.184.778.323 1.204.42.425.095.828.143 1.208.143 1.5 0 2.25-.58 2.25-1.74 0-1.04-.827-1.56-2.48-1.56h-.856v-.837h.867c.677 0 1.213-.147 1.61-.442.395-.294.593-.703.593-1.227 0-.418-.146-.746-.437-.984s-.688-.358-1.186-.358c-.38 0-.738.05-1.075.152-.337.102-.72.29-1.152.562l-.5-.656c.357-.277.768-.495 1.233-.653.466-.158.955-.237 1.47-.237.844 0 1.5.19 1.966.57s.7.904.7 1.568zM632.567 185.2h-.962v-6.106c0-.508.016-.988.048-1.44-.083.08-.177.167-.28.257s-.573.472-1.412 1.144l-.52-.668 2.297-1.752h.83v8.565z"/></g><g fill="#fff"><path d="M685.622 120.29c0 3.35-1.314 5.026-3.942 5.026-.46 0-.823-.04-1.093-.117v-.84c.316.103.677.153 1.08.153.95 0 1.668-.29 2.152-.87.484-.58.748-1.47.792-2.67h-.07c-.22.325-.508.572-.868.742-.36.17-.766.255-1.217.255-.768 0-1.377-.227-1.828-.68-.453-.453-.68-1.086-.68-1.898 0-.89.254-1.594.76-2.11.503-.515 1.167-.772 1.99-.772.59 0 1.105.15 1.547.448s.78.734 1.02 1.307.355 1.247.355 2.024zm-2.922-2.948c-.565 0-1.003.18-1.312.54s-.463.858-.463 1.5c0 .56.142 1.004.427 1.326s.72.483 1.3.483c.36 0 .692-.07.995-.216s.54-.342.716-.592c.174-.25.26-.512.26-.785 0-.41-.08-.79-.242-1.137s-.388-.62-.68-.82-.624-.298-1-.298zM682.63 139.967c.914 0 1.633.224 2.157.67s.787 1.06.787 1.838c0 .887-.286 1.582-.858 2.086-.57.505-1.36.757-2.365.757-.977 0-1.724-.154-2.237-.463v-.938c.276.176.62.313 1.032.413.412.1.817.148 1.218.148.696 0 1.237-.162 1.624-.486.386-.324.578-.793.578-1.406 0-1.195-.742-1.793-2.226-1.793-.378 0-.88.057-1.51.17l-.51-.322.326-4.007h4.316v.896h-3.474l-.22 2.57c.457-.088.91-.133 1.36-.133zM685.295 158.648c0 .547-.155.994-.466 1.342s-.752.58-1.322.697v.047c.697.086 1.213.305 1.55.656s.505.812.505 1.383c0 .816-.287 1.444-.86 1.884-.574.44-1.39.66-2.447.66-.46 0-.88-.035-1.262-.104-.382-.068-.753-.188-1.113-.36v-.926c.378.184.778.323 1.204.42.425.095.828.143 1.208.143 1.5 0 2.25-.58 2.25-1.74 0-1.04-.827-1.56-2.48-1.56h-.856v-.837h.867c.677 0 1.213-.147 1.61-.442.395-.294.593-.703.593-1.227 0-.418-.146-.746-.437-.984s-.688-.358-1.186-.358c-.38 0-.738.05-1.075.152-.337.102-.72.29-1.152.562l-.5-.656c.357-.277.768-.495 1.233-.653.466-.158.955-.237 1.47-.237.844 0 1.5.19 1.966.57s.7.904.7 1.568zM683.567 185.2h-.962v-6.106c0-.508.016-.988.048-1.44-.083.08-.177.167-.28.257s-.573.472-1.412 1.144l-.52-.668 2.297-1.752h.83v8.565z"/></g></g></svg>