<?xml version="1.0" encoding="utf-8"?>
<!-- Generator: Adobe Illustrator 16.0.4, SVG Export Plug-In . SVG Version: 6.00 Build 0)  -->
<!DOCTYPE svg PUBLIC "-//W3C//DTD SVG 1.1//EN" "http://www.w3.org/Graphics/SVG/1.1/DTD/svg11.dtd">
<svg version="1.1" id="Layer_1" xmlns="http://www.w3.org/2000/svg" xmlns:xlink="http://www.w3.org/1999/xlink" x="0px" y="0px"
	 width="160px" height="160px" viewBox="0 0 160 160" enable-background="new 0 0 160 160" xml:space="preserve">
<rect x="79" fill="#E5CA2C" width="2" height="160"/>
<g>
	<rect y="79" fill="#E5CA2C" width="74" height="2"/>
	<rect x="86" y="79" fill="#E5CA2C" width="74" height="2"/>
</g>
<g>
	
		<rect x="12.594" y="109.434" transform="matrix(0.7071 -0.7071 0.7071 0.7071 -63.5632 67.414)" fill="#E5CA2C" width="74" height="2"/>
	
		<rect x="109.405" y="12.624" transform="matrix(-0.7072 -0.707 0.707 -0.7072 153.4036 162.7744)" fill="#E5CA2C" width="2.001" height="73.999"/>
</g>
<g>
	
		<rect x="73.405" y="109.405" transform="matrix(-0.7071 -0.7071 0.7071 -0.7071 110.4044 266.5416)" fill="#E5CA2C" width="74" height="2"/>
	
		<rect x="48.593" y="12.596" transform="matrix(0.7072 -0.707 0.707 0.7072 -20.5434 49.5821)" fill="#E5CA2C" width="2.001" height="73.999"/>
</g>
<g>
	<g>
		
			<rect x="26.555" y="118.726" transform="matrix(0.3827 -0.9239 0.9239 0.3827 -71.3791 132.6258)" fill="#E5CA2C" width="74" height="2.001"/>
		
			<rect x="95.466" y="3.274" transform="matrix(-0.924 -0.3825 0.3825 -0.924 170.1958 114.3807)" fill="#E5CA2C" width="2.002" height="74"/>
	</g>
	<g>
		
			<rect x="82.727" y="95.429" transform="matrix(-0.9239 -0.3827 0.3827 -0.9239 193.4382 231.3344)" fill="#E5CA2C" width="74" height="2"/>
		
			<rect x="39.273" y="26.519" transform="matrix(0.3827 -0.9239 0.9239 0.3827 -33.8229 76.415)" fill="#E5CA2C" width="2" height="73.999"/>
	</g>
</g>
<g>
	<g>
		
			<rect x="59.481" y="118.727" transform="matrix(-0.3827 -0.9239 0.9239 -0.3827 22.7899 254.6809)" fill="#E5CA2C" width="74" height="2"/>
		
			<rect x="62.571" y="3.274" transform="matrix(-0.9237 0.3831 -0.3831 -0.9237 137.7216 53.1235)" fill="#E5CA2C" width="2.001" height="73.999"/>
	</g>
	<g>
		
			<rect x="82.726" y="62.534" transform="matrix(-0.9239 0.3827 -0.3827 -0.9239 254.6529 76.4126)" fill="#E5CA2C" width="74" height="2"/>
		
			<rect x="39.274" y="59.445" transform="matrix(-0.3824 -0.924 0.924 -0.3824 -33.4404 170.5379)" fill="#E5CA2C" width="2" height="73.999"/>
	</g>
</g>
</svg>
