<?xml version="1.0" encoding="utf-8"?>
<!-- Generator: Adobe Illustrator 16.0.4, SVG Export Plug-In . SVG Version: 6.00 Build 0)  -->
<!DOCTYPE svg PUBLIC "-//W3C//DTD SVG 1.1//EN" "http://www.w3.org/Graphics/SVG/1.1/DTD/svg11.dtd">
<svg version="1.1" id="Layer_1" xmlns="http://www.w3.org/2000/svg" xmlns:xlink="http://www.w3.org/1999/xlink" x="0px" y="0px"
	 width="160px" height="160px" viewBox="0 0 160 160" enable-background="new 0 0 160 160" xml:space="preserve">
<g>
	<path fill="#C44524" d="M80.005,2c9.406,0,17.06,7.653,17.06,17.059s-7.653,17.059-17.06,17.059
		c-9.407,0-17.061-7.653-17.061-17.059S70.598,2,80.005,2 M80.005,0C69.48,0,60.944,8.533,60.944,19.059s8.536,19.059,19.061,19.059
		c10.525,0,19.06-8.533,19.06-19.059S90.53,0,80.005,0L80.005,0z"/>
	<path fill="#C44524" d="M80.005,61.687c9.867,0,17.895,8.028,17.895,17.895s-8.027,17.895-17.895,17.895
		c-9.868,0-17.896-8.027-17.896-17.895S70.137,61.687,80.005,61.687 M80.005,59.687c-10.986,0-19.896,8.909-19.896,19.895
		c0,10.986,8.91,19.895,19.896,19.895c10.987,0,19.895-8.908,19.895-19.895C99.899,68.596,90.992,59.687,80.005,59.687
		L80.005,59.687z"/>
	<path fill="#C44524" d="M80.005,122.211c9.867,0,17.895,8.027,17.895,17.895S89.872,158,80.005,158
		c-9.868,0-17.896-8.027-17.896-17.895S70.137,122.211,80.005,122.211 M80.005,120.211c-10.986,0-19.896,8.908-19.896,19.895
		c0,10.987,8.91,19.895,19.896,19.895c10.987,0,19.895-8.907,19.895-19.895C99.899,129.119,90.992,120.211,80.005,120.211
		L80.005,120.211z"/>
	<path fill="#C44524" d="M132.417,31.431c9.867,0,17.896,8.027,17.896,17.895c0,9.868-8.028,17.896-17.896,17.896
		s-17.896-8.028-17.896-17.896C114.521,39.458,122.55,31.431,132.417,31.431 M132.417,29.431c-10.986,0-19.896,8.908-19.896,19.895
		c0,10.988,8.909,19.896,19.896,19.896c10.988,0,19.896-8.909,19.896-19.896C152.312,38.338,143.405,29.431,132.417,29.431
		L132.417,29.431z"/>
	<path fill="#C44524" d="M27.593,31.431c9.867,0,17.895,8.027,17.895,17.895c0,9.868-8.027,17.896-17.895,17.896
		c-9.868,0-17.896-8.028-17.896-17.896C9.696,39.458,17.725,31.431,27.593,31.431 M27.593,29.431
		c-10.987,0-19.896,8.908-19.896,19.895c0,10.988,8.909,19.896,19.896,19.896s19.895-8.909,19.895-19.896
		C47.487,38.338,38.58,29.431,27.593,29.431L27.593,29.431z"/>
	<path fill="#C44524" d="M132.407,91.948c9.868,0,17.896,8.028,17.896,17.896c0,9.867-8.028,17.895-17.896,17.895
		c-9.867,0-17.895-8.027-17.895-17.895C114.513,99.977,122.54,91.948,132.407,91.948 M132.407,89.948
		c-10.987,0-19.895,8.909-19.895,19.896s8.907,19.895,19.895,19.895s19.896-8.907,19.896-19.895S143.395,89.948,132.407,89.948
		L132.407,89.948z"/>
	<path fill="#C44524" d="M27.583,91.948c9.867,0,17.896,8.028,17.896,17.896c0,9.867-8.028,17.895-17.896,17.895
		s-17.896-8.027-17.896-17.895C9.688,99.977,17.716,91.948,27.583,91.948 M27.583,89.948c-10.988,0-19.896,8.909-19.896,19.896
		s8.907,19.895,19.896,19.895c10.986,0,19.896-8.907,19.896-19.895S38.569,89.948,27.583,89.948L27.583,89.948z"/>
</g>
</svg>
