<svg xmlns="http://www.w3.org/2000/svg" width="160" height="160" viewBox="0 0 160 160"><g fill="#C44524"><path d="M80.005 2c9.406 0 17.06 7.653 17.06 17.06s-7.653 17.058-17.06 17.058-17.06-7.653-17.06-17.06S70.597 2 80.004 2m0-2c-10.525 0-19.06 8.533-19.06 19.06s8.535 19.058 19.06 19.058c10.525 0 19.06-8.533 19.06-19.06S90.53 0 80.005 0zM80.005 61.687c9.867 0 17.895 8.028 17.895 17.895s-8.027 17.895-17.895 17.895S62.11 89.45 62.11 79.582s8.027-17.895 17.895-17.895m0-2c-10.986 0-19.896 8.91-19.896 19.895 0 10.986 8.91 19.895 19.895 19.895 10.987 0 19.895-8.908 19.895-19.895 0-10.986-8.908-19.895-19.895-19.895zM80.005 122.21c9.867 0 17.895 8.028 17.895 17.896S89.872 158 80.005 158c-9.868 0-17.896-8.027-17.896-17.895s8.027-17.894 17.895-17.894m0-2c-10.986 0-19.896 8.91-19.896 19.896 0 10.987 8.91 19.895 19.895 19.895 10.987 0 19.895-8.906 19.895-19.894 0-10.987-8.908-19.895-19.895-19.895zM132.417 31.43c9.867 0 17.896 8.028 17.896 17.896s-8.028 17.896-17.896 17.896-17.896-8.028-17.896-17.896 8.03-17.895 17.897-17.895m0-2c-10.986 0-19.896 8.91-19.896 19.896 0 10.988 8.91 19.896 19.897 19.896 10.988 0 19.896-8.91 19.896-19.896 0-10.988-8.908-19.895-19.896-19.895zM27.593 31.43c9.867 0 17.895 8.028 17.895 17.896S37.46 67.222 27.593 67.222 9.697 59.194 9.697 49.326 17.725 31.43 27.593 31.43m0-2c-10.987 0-19.896 8.91-19.896 19.896 0 10.988 8.91 19.896 19.896 19.896s19.895-8.91 19.895-19.896c0-10.988-8.908-19.895-19.895-19.895zM132.407 91.948c9.868 0 17.896 8.028 17.896 17.896 0 9.867-8.028 17.895-17.896 17.895-9.867 0-17.895-8.028-17.895-17.896 0-9.867 8.028-17.896 17.895-17.896m0-2c-10.987 0-19.895 8.91-19.895 19.896s8.907 19.895 19.895 19.895 19.896-8.908 19.896-19.896-8.908-19.896-19.896-19.896zM27.583 91.948c9.867 0 17.896 8.028 17.896 17.896 0 9.867-8.03 17.895-17.897 17.895S9.687 119.71 9.687 109.843c0-9.867 8.03-17.896 17.896-17.896m0-2c-10.988 0-19.896 8.91-19.896 19.896s8.907 19.895 19.896 19.895c10.986 0 19.896-8.908 19.896-19.896s-8.91-19.896-19.897-19.896z"/></g></svg>