<?xml version="1.0" encoding="utf-8"?>
<!-- Generator: Adobe Illustrator 16.0.4, SVG Export Plug-In . SVG Version: 6.00 Build 0)  -->
<!DOCTYPE svg PUBLIC "-//W3C//DTD SVG 1.1//EN" "http://www.w3.org/Graphics/SVG/1.1/DTD/svg11.dtd">
<svg version="1.1" id="Layer_1" xmlns="http://www.w3.org/2000/svg" xmlns:xlink="http://www.w3.org/1999/xlink" x="0px" y="0px"
	 width="114.826px" height="57.5px" viewBox="0 -9.5 114.826 57.5" enable-background="new 0 -9.5 114.826 57.5"
	 xml:space="preserve">
<g>
	<g>
		<g>
			<g>
				<g>
					<g>
						<path fill="#E16120" d="M110.961,8.022h-0.665V7.49h1.865v0.533h-0.667v1.599h-0.665v-1.6H110.961z"/>
						<path fill="#E16120" d="M112.429,7.49h0.666l0.531,0.799l0.533-0.799h0.667v2.131h-0.533V8.422l-0.667,0.933l0,0l-0.531-0.8
							v1.199h-0.535V7.49H112.429z"/>
					</g>
				</g>
			</g>
			<path fill="#E16120" d="M40.093,11.62c-0.531-0.8-1.598-0.933-2.797-0.8c-0.934,0.133-1.733,0.399-1.867,0.533
				c-0.266,0.133-0.266,0.399-0.266,0.533c0,0.4,0.399,0.799,0.134,2.531c-0.134,0.933-1.599,8.925-1.599,8.925
				c-0.798,0.399-1.732,0.799-2.397,0.799c-1.2,0-1.732-0.533-1.465-2.265c0.266-1.732,1.332-7.593,1.332-7.593
				c0.134-1.066,0.134-1.866-0.133-2.398c-0.531-0.799-1.599-1.065-2.797-0.932c-0.933,0.133-1.731,0.399-1.865,0.533
				c-0.268,0.134-0.268,0.399-0.268,0.533c0,0.399,0.401,0.799,0.134,2.531c-0.533,3.064-1.332,7.594-1.465,8.525
				c-0.533,3.464,0.533,5.995,3.863,5.995c0.799,0,2.797-0.532,4.664-1.332c0,0.267,0.132,0.533,0.267,0.666
				c0.933,1.466,3.995,0.8,4.793,0.398c0.268-0.133,0.268-0.398,0.268-0.531c0-0.399-0.399-0.801-0.132-2.533
				c0.132-0.932,1.999-11.455,1.999-11.455C40.494,13.084,40.494,12.152,40.093,11.62z"/>
			<path fill="#E16120" d="M91.913,3.626c-0.533-0.799-1.6-1.066-2.797-0.933c-0.934,0.133-1.733,0.399-1.865,0.533
				c-0.268,0.133-0.268,0.4-0.268,0.533c0,0.4,0.398,0.799,0.134,2.531c-0.134,0.666-3.464,19.448-3.464,19.448
				c-0.133,1.066-0.133,1.867,0.135,2.398c0.531,0.801,1.598,1.067,2.797,0.934c0.932-0.133,1.73-0.399,1.864-0.532
				c0.266-0.134,0.266-0.401,0.266-0.534c0-0.398-0.399-0.799-0.132-2.531c0.132-0.933,3.463-19.45,3.463-19.45
				C92.312,5.091,92.181,4.159,91.913,3.626z"/>
			<path fill="#E16120" d="M111.628,23.075c-0.799-0.532-1.6-0.666-1.865-0.799c-0.266,0-0.398,0.133-0.533,0.267
				c-0.131,0.266-0.933,2.396-3.862,4.795c0.133-1.064,2.264-13.188,2.264-13.188c0.269-1.066,0.269-1.999-0.132-2.531
				c-0.535-0.8-1.6-1.066-2.799-0.933c-0.932,0.133-1.73,0.399-1.865,0.532c-0.133,0.267-0.266,0.4-0.266,0.666
				c0,0.4,0.266,0.667,0.132,1.999l-1.597,9.325c-0.801,0.533-1.733,0.799-2.531,0.799c-1.2,0-1.731-0.532-1.465-2.265
				c0.266-1.332,1.332-7.592,1.332-7.592c0.134-1.066,0.134-1.865-0.135-2.398c-0.799-1.464-3.729-1.065-4.662-0.399
				c-0.267,0.133-0.267,0.399-0.267,0.533c0,0.4,0.399,0.799,0.134,2.265c-0.533,3.063-1.466,7.859-1.6,8.925
				c-0.533,3.464,0.533,5.994,3.863,5.994c0.8,0,2.664-0.531,4.529-1.332l-0.4,2.664c-0.268,0.135-5.062,1.732-7.061,2.666
				c-3.597,1.599-5.328,6.261-2.531,9.191c2.666,2.932,7.062,1.332,8.526,0.268c3.332-2.266,4.795-6.129,5.728-9.859
				c4.531-2.396,7.328-5.061,7.328-5.061c0.799-0.668,1.332-1.334,1.463-2C113.358,24.541,112.694,23.741,111.628,23.075z
				 M97.108,38.395c-0.801,0.666-1.866,0.533-2.266,0c-0.398-0.398-0.533-1.73,1.465-2.397c1.467-0.534,2.932-1.199,2.932-1.199
				C98.84,36.264,97.907,37.863,97.108,38.395z"/>
		</g>
		<path fill="#E16120" d="M82.319,16.148c0.4-1.865,0.135-3.064-0.266-3.863c-0.666-1.332-1.73-1.598-3.063-1.732
			c-1.599-0.133-4.128,1.066-5.595,1.865c-0.399-1.065-1.598-1.865-3.196-1.865c-1.865,0-4.53,1.332-5.462,1.865
			c-0.533-1.332-1.731-1.731-3.064-1.865c-1.865-0.133-4.262,1.066-5.596,1.865c-0.531-1.332-1.731-1.731-3.062-1.865
			c-1.599-0.133-3.464,0.799-5.062,1.466c-0.399-1.199-1.731-1.332-2.931-1.199c-0.932,0.133-1.733,0.399-1.865,0.533
			c-0.267,0.133-0.267,0.399-0.267,0.533c0,0.4,0.267,0.667,0.133,1.999l-2.13,11.989c-0.134,1.065-0.134,1.864,0.132,2.397
			c0.533,0.799,1.599,1.066,2.799,0.934c0.93-0.135,1.73-0.4,1.864-0.534c0.266-0.132,0.266-0.399,0.266-0.532
			c0-0.4-0.399-0.933-0.132-1.865l1.731-9.858c0.667-0.532,1.731-0.932,2.266-0.932c1.066,0,1.465,0.666,1.198,2.132l-1.465,8.259
			c-0.133,1.065-0.133,1.864,0.132,2.397c0.535,0.799,1.601,1.066,2.798,0.934c0.933-0.135,1.731-0.4,1.865-0.534
			c0.268-0.132,0.268-0.399,0.268-0.532c0-0.4-0.401-0.8-0.134-1.865c0.266-1.064,1.732-9.991,1.732-9.991
			c0.665-0.533,1.731-0.932,2.265-0.932c1.065,0,1.465,0.666,1.197,2.131c-0.398,2.664-0.132,0.533-1.465,8.259
			c-0.134,1.066-0.134,1.865,0.135,2.398c0.532,0.799,1.598,1.066,2.799,0.932c0.93-0.131,1.729-0.398,1.863-0.531
			c0.266-0.135,0.266-0.4,0.266-0.534c0-0.399-0.266-0.666-0.131-1.999l1.73-9.725c0.398-0.266,1.6-0.932,2.266-0.932
			c1.066,0,1.332,0.799,1.066,2.265c-0.135,0.799-1.467,8.125-1.467,8.125c-0.135,1.066-0.135,1.867,0.133,2.398
			c0.398,0.666,1.197,0.934,2.266,0.934c0.133,0,0.399,0,0.531,0c0.934-0.133,1.73-0.399,1.865-0.532
			c0.268-0.134,0.268-0.401,0.268-0.534c0-0.398-0.4-0.799-0.134-2.531c0-0.133,0.533-3.464,1.065-6.127l0.533-3.197
			c0.668-0.533,1.731-0.933,2.264-0.933c1.066,0,1.466,0.666,1.201,2.132l-1.334,8.258c-0.131,1.066-0.131,1.865,0.135,2.398
			c0.533,0.799,1.599,1.064,2.797,0.934c0.934-0.135,1.732-0.399,1.865-0.535c0.269-0.133,0.269-0.398,0.269-0.531
			c0-0.4-0.401-0.801-0.134-2.531C80.724,25.473,82.319,16.148,82.319,16.148z"/>
	</g>
	<path fill="#E16120" d="M33.431,34.131c0-0.265-0.264-0.398-0.399-0.398c-0.399-0.133-0.799,0-1.865-0.532
		c-0.932-0.401-5.062-2.397-10.79-3.065l4.13-23.712c0.132-1.065,0.132-1.865-0.134-2.397c-0.533-0.799-1.599-1.065-2.797-0.933
		c-0.934,0.134-1.732,0.401-1.866,0.534c-0.266,0.133-0.266,0.399-0.266,0.533c0,0.399,0.399,0.799,0.134,2.531
		c0,0.399-1.465,7.993-2.531,14.387c-3.065,1.865-7.061,2.664-7.994,1.599c-0.399-0.532-0.266-1.599,0.133-3.063
		c0.134-0.4,1.865-7.061,2.398-9.059c0.798-3.863,0.132-7.327-3.73-7.593C4.523,2.695,1.327,4.56,0.394,5.626
		c-0.666,0.799-0.399,1.598,0.133,2.665c0.534,0.797,1.2,1.33,1.333,1.463c0.267,0.133,0.533,0.133,0.533,0
		c1.066-1.199,3.198-2.131,3.864-1.599c0.666,0.533,0.4,1.466,0.133,2.398c0,0-2.131,8.126-3.064,11.59
		c-0.666,2.53,0,4.794,1.865,5.861c1.332,0.799,3.33,0.799,4.929,0.534c3.463-0.401,5.462-1.866,5.862-2.134
		c-0.399,2.134-0.667,3.598-0.667,3.598s-3.862,0.398-7.06,2.266c-4.263,2.53-5.862,8.26-3.198,11.188
		c2.665,2.931,7.46,1.866,9.326,0.534c1.866-1.2,4.262-3.864,5.328-9.725c6.394,0.266,7.993,3.596,10.658,3.729
		C32.365,37.996,33.698,36.13,33.431,34.131z M11.852,39.861c-0.933,0.531-1.865,0.531-2.398,0
		c-0.532-0.666-0.799-4.397,5.195-5.596C14.648,34.266,13.716,38.794,11.852,39.861z"/>
</g>
</svg>
