<svg xmlns="http://www.w3.org/2000/svg" width="125" height="80" viewBox="0 0 125 80"><path d="M4.62 6.965c0 1.368-.832 2.38-2.26 2.38-1.19 0-2.084-1.012-2.084-2.38 0-1.31.952-2.38 2.202-2.38 1.31 0 2.143 1.07 2.143 2.38zM1.328 78.5V23.78H3.57V78.5H1.327zM78.174 39.512c0 27.588-15.315 40.128-32.08 40.128-17.124 0-30.992-13.565-30.992-38.987 0-26.105 14.35-40.128 32.2-40.128 17.485 0 30.872 13.793 30.872 38.987zm-60.8.57c0 20.918 10.14 37.168 28.827 37.168 18.82 0 29.612-16.75 29.612-37.406 0-19.155-8.648-36.636-28.382-36.636s-30.055 16.46-30.055 36.874zM86.406 72.57c3.763 2.51 10.258 4.93 15.844 4.93 10.602 0 20.03-7.416 20.03-18.333 0-10.13-6.28-15.417-16.944-19.958-9.544-4.065-18.125-8.476-18.125-19.306C87.21 8.62 96.103.638 108.187.638c6.498 0 11.4 1.824 13.68 3.42l-.907 1.968c-1.94-1.367-7.176-3.11-12.875-3.11-12.77 0-18.334 9.65-18.334 16.755 0 9.813 7.607 13.094 17.41 17.768 11.4 5.586 17.442 10.51 17.442 21.227 0 11.514-8.207 20.86-22.8 20.86-6.042 0-12.995-2.05-16.415-4.673l1.02-2.28z"/></svg>