<svg xmlns="http://www.w3.org/2000/svg" width="178.355" height="48" viewBox="0 0 178.355 48"><path fill="#46483E" d="M37.15 25.257c0-.432-.228-.83-.6-1.043l-9.943-5.722c-.167-.1-.356-.15-.547-.158h-.104c-.19.008-.378.06-.55.158l-9.942 5.722c-.372.215-.6.612-.6 1.043l.02 15.408c0 .215.113.414.3.52.185.11.413.11.596 0l5.908-3.384c.375-.222.603-.613.603-1.04v-7.2c0-.428.228-.826.6-1.04l2.516-1.448c.188-.11.393-.16.603-.16.204 0 .414.05.597.16l2.515 1.45c.373.212.6.61.6 1.04v7.197c0 .427.23.82.604 1.04l5.908 3.385c.186.11.417.11.6 0 .184-.104.298-.305.298-.52l.018-15.408zM90.244 4.076c-.188-.104-.414-.102-.598.007-.185.108-.296.305-.296.52V19.86c0 .15-.08.29-.21.363-.13.076-.29.076-.42 0l-2.49-1.435c-.373-.214-.83-.213-1.2 0l-9.95 5.74c-.37.215-.598.61-.598 1.04v11.484c0 .43.227.825.6 1.04l9.945 5.745c.373.215.83.215 1.203 0l9.95-5.745c.37-.215.6-.61.6-1.04V8.427c0-.435-.235-.836-.616-1.05l-5.92-3.3zM89.32 33.28c0 .107-.058.206-.15.26l-3.416 1.97c-.092.052-.207.052-.298 0l-3.416-1.97c-.092-.054-.15-.152-.15-.26v-3.943c0-.107.058-.207.148-.26l3.417-1.974c.092-.053.207-.053.298 0l3.416 1.973c.09.054.15.153.15.26v3.943zM125.83 29.234c.37-.215.597-.61.597-1.04v-2.783c0-.426-.226-.822-.597-1.038l-9.883-5.738c-.37-.216-.832-.217-1.203-.002l-9.944 5.74c-.37.215-.6.612-.6 1.04v11.48c0 .433.23.83.605 1.045l9.882 5.63c.364.208.812.21 1.178.006l5.977-3.32c.19-.107.308-.307.31-.522s-.114-.415-.3-.523l-10.008-5.743c-.188-.107-.303-.306-.303-.52v-3.6c0-.214.115-.412.302-.52l3.113-1.796c.187-.106.415-.106.602 0l3.114 1.796c.188.107.302.306.302.52v2.832c0 .215.114.413.302.52.186.106.415.106.6 0l5.956-3.462z"/><path fill="#8CC84B" d="M55.238 18.573c.37-.214.828-.214 1.2 0l9.946 5.74c.372.213.6.61.6 1.04V36.84c0 .43-.227.826-.6 1.04l-9.945 5.744c-.374.216-.83.216-1.203 0l-9.944-5.744c-.37-.216-.6-.61-.6-1.04V25.352c0-.43.228-.826.6-1.04l9.945-5.74zM145.142 43.79c-.344 0-.684-.09-.984-.264l-3.13-1.853c-.47-.262-.24-.354-.086-.408.623-.217.748-.267 1.414-.645.07-.04.162-.023.234.018l2.404 1.43c.087.05.212.05.29 0l9.38-5.414c.088-.05.143-.15.143-.254V25.577c0-.105-.054-.205-.145-.258l-9.375-5.41c-.087-.05-.202-.05-.29 0l-9.37 5.41c-.093.052-.15.154-.15.257V36.4c0 .104.057.2.15.25l2.567 1.485c1.395.695 2.247-.124 2.247-.95V26.502c0-.15.122-.27.272-.27h1.19c.148 0 .27.12.27.27v10.687c0 1.86-1.013 2.928-2.775 2.928-.54 0-.968 0-2.16-.587l-2.46-1.416c-.606-.352-.983-1.008-.983-1.71V25.576c0-.703.376-1.36.984-1.71l9.378-5.418c.594-.337 1.383-.337 1.972 0l9.377 5.418c.608.35.986 1.007.986 1.71V36.4c0 .703-.376 1.356-.985 1.71l-9.377 5.416c-.3.173-.64.263-.986.263zM148.04 36.33c-4.106 0-4.966-1.882-4.966-3.46 0-.152.12-.272.27-.272h1.214c.135 0 .248.098.27.23.184 1.233.728 1.857 3.21 1.857 1.977 0 2.816-.447 2.816-1.494 0-.603-.237-1.053-3.31-1.353-2.564-.254-4.15-.82-4.15-2.874 0-1.892 1.594-3.02 4.268-3.02 3.005 0 4.492 1.04 4.68 3.28.007.076-.02.15-.07.208-.053.054-.124.087-.2.087h-1.217c-.126 0-.237-.09-.263-.212-.293-1.3-1.003-1.714-2.93-1.714-2.158 0-2.408.753-2.408 1.316 0 .68.296.88 3.21 1.267 2.88.38 4.252.92 4.252 2.945 0 2.044-1.705 3.213-4.677 3.213z"/><g fill="#8CC84B"><path d="M160.97 18.474v.277h-.787v2.058h-.32V18.75h-.785v-.276h1.892zM161.252 18.474h.454l.67 1.973.668-1.973h.45v2.334h-.302V19.43c0-.047 0-.125.002-.235.003-.11.005-.23.005-.355l-.67 1.97h-.31l-.675-1.97v.07c0 .058 0 .145.005.263 0 .116.005.203.005.258v1.378h-.303v-2.334z"/></g><path fill="#8CC84B" d="M115.198 28.695c.072-.04.16-.04.23 0l1.908 1.102c.072.04.116.116.116.2V32.2c0 .083-.044.16-.116.2l-1.907 1.102c-.072.04-.16.04-.232 0L113.29 32.4c-.07-.04-.115-.117-.115-.2v-2.204c0-.083.044-.158.115-.2l1.908-1.1z"/></svg>