<svg xmlns="http://www.w3.org/2000/svg" width="137.568" height="48" viewBox="0 0 137.568 48"><path fill-rule="evenodd" clip-rule="evenodd" fill="#333" d="M38.857 0h-27.43L0 18.286 4.57 48h8.145l-.572-6.857h4L16.715 48h16.857l.57-6.857h4L37.572 48h8.143l4.57-29.714L38.857 0zm0 36.57h-27.43L9.143 18.287l4.572-9.143h7.346l-.487 3.43h9.143l-.49-3.43h7.346l4.572 9.143-2.287 18.285zM32.57 22c.633 0 1.145 1.903 1.145 4.25s-.512 4.252-1.145 4.252c-.63 0-1.143-1.903-1.143-4.25S31.94 22 32.57 22zm-14.427.354c.63 0 1.143 1.903 1.143 4.25 0 2.35-.512 4.253-1.143 4.253S17 28.954 17 26.605c0-2.347.512-4.25 1.143-4.25z"/><g fill="#333"><path d="M60.28 15.255h.724l1.496 3.888h-.73l-.364-1.03h-1.553l-.363 1.03h-.703l1.492-3.888zm-.24 2.342h1.187l-.582-1.67h-.018l-.588 1.67zM62.926 15.255h1.715c.276 0 .5.04.675.12.176.08.31.18.404.3.093.12.157.25.192.39.033.143.05.273.05.393s-.017.25-.05.39c-.035.14-.1.27-.193.388-.097.12-.23.22-.405.297-.174.078-.398.117-.674.117h-1.034v1.492h-.68v-3.887zm.68 1.84h.995c.077 0 .155-.01.235-.03.08-.023.154-.06.22-.107s.122-.114.165-.196c.04-.082.062-.185.062-.308 0-.126-.018-.232-.055-.315s-.086-.15-.146-.2c-.06-.05-.132-.083-.212-.1s-.164-.028-.256-.028h-1.008v1.284zM67.248 15.255h.725l1.496 3.888h-.73l-.365-1.03h-1.55l-.366 1.03h-.704l1.492-3.888zm-.238 2.342h1.186l-.582-1.67h-.018l-.586 1.67zM72.52 16.492c-.03-.113-.07-.216-.12-.31s-.116-.177-.196-.246c-.08-.07-.174-.122-.28-.16-.106-.04-.23-.058-.374-.058-.207 0-.385.042-.535.125s-.273.195-.367.335c-.096.14-.166.298-.21.476-.046.178-.07.36-.07.544s.024.367.07.544c.044.178.114.337.21.477.094.14.217.25.367.334s.328.125.535.125c.154 0 .287-.027.404-.08.115-.052.215-.125.3-.217.083-.093.147-.2.194-.324.05-.124.078-.257.094-.398h.664c-.016.232-.064.445-.15.637-.084.19-.2.357-.346.497-.145.14-.316.248-.512.324-.195.078-.412.116-.648.116-.29 0-.55-.054-.78-.16-.23-.108-.425-.254-.585-.44s-.283-.4-.367-.647c-.086-.248-.13-.51-.13-.79 0-.277.044-.538.13-.785.084-.247.207-.462.367-.647.16-.186.354-.332.584-.44.23-.11.49-.164.78-.164.22 0 .424.03.617.09.19.06.36.147.508.26s.266.254.357.418c.09.164.146.35.168.56h-.68zM73.863 15.255h.682V16.8h1.77v-1.545h.68v3.888h-.68V17.39h-1.77v1.753h-.682v-3.888zM77.865 15.255h2.8v.588h-2.12v1.018h1.96v.556h-1.96v1.138h2.158v.588h-2.838v-3.887z"/></g><g fill="#333"><path d="M132.596 21.252h1.992v.373h-.783v2.09h-.432v-2.09h-.777v-.373zM135.014 21.252h.607l.68 1.927h.007l.662-1.928h.6v2.462h-.41v-1.9h-.01l-.68 1.9h-.356l-.684-1.9h-.006v1.9h-.41v-2.462z"/></g><g fill="#333"><path d="M66.752 23.446c-.22-.346-.484-.636-.8-.87-.313-.234-.66-.413-1.036-.535-.38-.122-.775-.183-1.19-.183-.757 0-1.405.144-1.948.43s-.988.67-1.334 1.143c-.346.474-.602 1.01-.766 1.605-.166.596-.248 1.208-.248 1.836 0 .62.082 1.23.248 1.83.164.602.42 1.14.766 1.613s.79.854 1.334 1.142c.543.287 1.19.43 1.95.43.53 0 1.01-.095 1.435-.287.428-.19.795-.453 1.104-.783.31-.33.56-.716.75-1.158s.314-.918.367-1.43h1.086c-.074.703-.238 1.337-.494 1.9s-.586 1.044-.99 1.44-.88.696-1.43.91-1.158.318-1.828.318c-.895 0-1.68-.163-2.357-.487-.675-.324-1.235-.758-1.683-1.3s-.783-1.172-1.006-1.886c-.224-.713-.335-1.464-.335-2.252 0-.788.11-1.538.336-2.252.224-.713.56-1.344 1.007-1.893s1.008-.984 1.684-1.31c.68-.325 1.464-.487 2.358-.487.543 0 1.072.08 1.588.24.518.16.984.397 1.406.71.42.315.77.7 1.055 1.16.28.457.46.984.533 1.58h-1.084c-.1-.434-.255-.826-.474-1.172zM70.053 24.62c.225-.713.56-1.344 1.006-1.893.446-.548 1.01-.984 1.685-1.31.676-.325 1.46-.487 2.355-.487s1.678.163 2.348.487c.672.325 1.23.76 1.678 1.31s.783 1.18 1.006 1.893c.225.714.336 1.464.336 2.252 0 .788-.11 1.54-.336 2.252-.223.713-.56 1.342-1.006 1.885s-1.006.976-1.678 1.3c-.67.325-1.453.487-2.348.487s-1.68-.163-2.355-.487c-.676-.324-1.238-.758-1.686-1.3-.446-.544-.782-1.172-1.007-1.886-.223-.713-.334-1.464-.334-2.252 0-.788.11-1.54.333-2.252zm.998 4.08c.167.602.423 1.14.77 1.613s.79.854 1.333 1.142c.543.287 1.19.43 1.947.43s1.404-.143 1.94-.43c.538-.288.98-.668 1.327-1.142.346-.474.6-1.01.766-1.613.164-.6.248-1.21.248-1.83 0-.627-.083-1.24-.247-1.835-.166-.596-.42-1.13-.766-1.605-.348-.474-.79-.854-1.326-1.142s-1.185-.43-1.94-.43-1.405.142-1.948.43-.988.668-1.334 1.142c-.346.474-.602 1.01-.768 1.605-.164.596-.246 1.208-.246 1.836 0 .62.083 1.23.247 1.83zM87.562 21.17c.47 0 .912.06 1.334.176.42.117.787.295 1.102.535.314.24.564.55.75.927.188.378.28.823.28 1.333 0 .724-.187 1.353-.56 1.885s-.926.873-1.66 1.022v.032c.373.053.682.15.926.295.244.144.445.327.6.55s.266.483.334.775c.07.293.115.61.137.95.01.192.02.427.03.704.013.277.034.556.065.838s.082.548.152.798c.068.25.162.445.28.583h-1.198c-.064-.106-.115-.237-.152-.39s-.064-.315-.08-.48-.03-.328-.04-.487c-.01-.16-.02-.298-.032-.415-.02-.404-.055-.806-.104-1.205-.047-.4-.148-.756-.303-1.07-.156-.314-.38-.567-.672-.76s-.694-.276-1.204-.255h-4.12v5.063H82.34V21.17h5.222zm-.08 5.414c.33 0 .645-.05.94-.15.3-.102.562-.25.784-.44.225-.19.402-.423.535-.695s.2-.584.2-.935c0-.703-.2-1.256-.605-1.66-.406-.405-1.023-.608-1.854-.608h-4.056v4.488h4.058zM97.11 21.17c1.737.043 3.044.53 3.923 1.46.877.933 1.316 2.346 1.316 4.24 0 1.897-.44 3.31-1.317 4.24-.88.933-2.186 1.42-3.922 1.462h-3.944V21.17h3.945zm-.542 10.477c.82 0 1.525-.088 2.117-.263.59-.176 1.078-.456 1.46-.84s.665-.877.847-1.484.27-1.336.27-2.188c0-.852-.09-1.58-.27-2.188s-.463-1.102-.846-1.485-.87-.664-1.46-.84c-.593-.175-1.298-.263-2.118-.263h-2.314v9.55h2.314zM104.05 24.62c.224-.713.56-1.344 1.005-1.893.447-.548 1.01-.984 1.686-1.31.677-.325 1.462-.487 2.356-.487s1.678.163 2.348.487c.672.325 1.23.76 1.678 1.31s.783 1.18 1.006 1.893c.225.714.336 1.464.336 2.252 0 .788-.11 1.54-.336 2.252-.223.713-.56 1.342-1.006 1.885s-1.006.976-1.678 1.3c-.67.325-1.453.487-2.348.487s-1.68-.163-2.355-.487c-.675-.324-1.237-.758-1.685-1.3-.445-.544-.78-1.172-1.006-1.886-.224-.713-.337-1.464-.337-2.252 0-.788.113-1.54.336-2.252zm.997 4.08c.166.602.42 1.14.768 1.613.346.474.79.854 1.334 1.142.542.287 1.19.43 1.946.43s1.404-.143 1.94-.43c.538-.288.98-.668 1.325-1.142.35-.474.603-1.01.77-1.613.163-.6.247-1.21.247-1.83 0-.627-.084-1.24-.248-1.835-.167-.596-.42-1.13-.77-1.605-.345-.474-.786-.854-1.323-1.142s-1.186-.43-1.94-.43-1.405.143-1.948.43-.99.668-1.335 1.142c-.348.474-.602 1.01-.768 1.605-.164.596-.246 1.208-.246 1.836 0 .62.083 1.23.247 1.83zM115.824 21.17l3.707 10.206h.032l3.672-10.206h1.15l-4.232 11.403h-1.26l-4.217-11.403h1.15zM129.146 21.17l4.47 11.403h-1.163l-1.39-3.545h-5.192l-1.372 3.545h-1.148l4.582-11.403h1.214zm1.55 6.932l-2.204-5.846-2.285 5.846h4.488z"/></g></svg>