<?xml version="1.0" encoding="utf-8"?>
<!-- Generator: Adobe Illustrator 16.0.4, SVG Export Plug-In . SVG Version: 6.00 Build 0)  -->
<!DOCTYPE svg PUBLIC "-//W3C//DTD SVG 1.1//EN" "http://www.w3.org/Graphics/SVG/1.1/DTD/svg11.dtd">
<svg version="1.1" id="Layer_1" xmlns="http://www.w3.org/2000/svg" xmlns:xlink="http://www.w3.org/1999/xlink" x="0px" y="0px"
	 width="124.49px" height="48px" viewBox="0 0 124.49 48" enable-background="new 0 0 124.49 48" xml:space="preserve">
<g>
	<polygon fill-rule="evenodd" clip-rule="evenodd" fill="#FB9A39" points="16.033,46.21 8.714,43.585 8.714,32.858 16.033,35.352 	
		"/>
	<polygon fill-rule="evenodd" clip-rule="evenodd" fill="#FB9A39" points="17.375,46.21 24.692,43.585 24.692,32.858 17.375,35.352 
			"/>
	<polygon fill-rule="evenodd" clip-rule="evenodd" fill="#FB9A39" points="9.466,32.056 16.873,29.971 23.74,32.186 16.873,34.517 	
		"/>
</g>
<g>
	<polygon fill-rule="evenodd" clip-rule="evenodd" fill="#FB9A39" points="7.319,31.225 0,28.6 0,17.873 7.319,20.366 	"/>
	<polygon fill-rule="evenodd" clip-rule="evenodd" fill="#FB9A39" points="8.661,31.225 15.981,28.6 15.981,17.873 8.661,20.366 	
		"/>
	<polygon fill-rule="evenodd" clip-rule="evenodd" fill="#FB9A39" points="0.752,17.07 8.16,14.985 15.028,17.2 8.16,19.532 	"/>
</g>
<g>
	<polygon fill-rule="evenodd" clip-rule="evenodd" fill="#FB9A39" points="24.396,31.225 17.078,28.6 17.078,17.873 24.396,20.366 	
		"/>
	<polygon fill-rule="evenodd" clip-rule="evenodd" fill="#FB9A39" points="25.739,31.225 33.057,28.6 33.057,17.873 25.739,20.366 	
		"/>
	<polygon fill-rule="evenodd" clip-rule="evenodd" fill="#FB9A39" points="17.83,17.07 25.237,14.985 32.104,17.2 25.237,19.532 	
		"/>
</g>
<g>
	<polygon fill-rule="evenodd" clip-rule="evenodd" fill="#FB9A39" points="33.109,16.239 25.791,13.614 25.791,2.888 33.109,5.381 	
		"/>
	<polygon fill-rule="evenodd" clip-rule="evenodd" fill="#FB9A39" points="34.451,16.239 41.77,13.614 41.77,2.888 34.451,5.381 	
		"/>
	<polygon fill-rule="evenodd" clip-rule="evenodd" fill="#FB9A39" points="26.542,2.084 33.949,0 40.817,2.214 33.949,4.546 	"/>
</g>
<g>
	<polygon fill-rule="evenodd" clip-rule="evenodd" fill="#FB9A39" points="50.185,16.239 42.867,13.614 42.867,2.888 50.185,5.381 	
		"/>
	<polygon fill-rule="evenodd" clip-rule="evenodd" fill="#FB9A39" points="51.527,16.239 58.846,13.614 58.846,2.888 51.527,5.381 	
		"/>
	<polygon fill-rule="evenodd" clip-rule="evenodd" fill="#FB9A39" points="43.619,2.084 51.026,0 57.893,2.214 51.026,4.546 	"/>
</g>
<g>
	<path d="M46.462,39.223l-2.459,8.54h-1.068l-1.914-6.343l-1.756,6.343h-1.088l-2.556-8.54h1.321l1.861,6.364l1.771-6.364h0.975
		l1.926,6.384l1.912-6.384H46.462z"/>
	<path d="M53.262,45.215l1.238,0.253c-0.226,0.73-0.665,1.335-1.317,1.813C52.53,47.761,51.762,48,50.878,48
		c-1.164,0-2.106-0.41-2.828-1.232c-0.719-0.821-1.08-1.897-1.08-3.229c0-1.36,0.375-2.459,1.123-3.297
		c0.748-0.838,1.688-1.257,2.819-1.257c1.115,0,2.011,0.386,2.689,1.157c0.678,0.772,1.025,1.926,1.042,3.463h-6.198
		c0,1.292,0.269,2.163,0.81,2.614c0.539,0.451,1.111,0.677,1.713,0.677C52.053,46.896,52.818,46.335,53.262,45.215z M53.19,42.616
		c-0.011-0.479-0.09-0.905-0.236-1.276c-0.146-0.373-0.395-0.689-0.742-0.951c-0.349-0.262-0.769-0.393-1.258-0.393
		c-0.657,0-1.216,0.237-1.674,0.71c-0.459,0.473-0.716,1.109-0.772,1.91H53.19z"/>
	<path d="M57.032,47.763h-0.64V36.232h1.331v4.414c0.606-1.107,1.444-1.661,2.513-1.661c0.978,0,1.797,0.386,2.457,1.16
		c0.661,0.773,0.992,1.896,0.992,3.368c0,1.271-0.325,2.335-0.975,3.196C62.059,47.569,61.213,48,60.173,48
		c-1.159,0-2.049-0.55-2.667-1.65L57.032,47.763z M57.723,44.415c0.062,0.876,0.33,1.513,0.807,1.909
		c0.476,0.396,0.979,0.594,1.508,0.594c0.676,0,1.22-0.294,1.634-0.881c0.414-0.586,0.621-1.39,0.621-2.411
		c0-1.1-0.2-1.964-0.601-2.593c-0.399-0.628-0.954-0.943-1.663-0.943c-0.558,0-1.06,0.224-1.509,0.672
		c-0.447,0.448-0.713,1.026-0.797,1.735V44.415z"/>
	<path d="M67.075,45.549l1.27-0.262c0.281,1.073,1.172,1.609,2.673,1.609c0.552,0,1.021-0.124,1.402-0.371
		c0.384-0.248,0.576-0.596,0.576-1.046c0-0.669-0.487-1.093-1.464-1.273l-1.799-0.342c-0.705-0.135-1.266-0.4-1.682-0.795
		c-0.416-0.394-0.625-0.916-0.625-1.564c0-0.715,0.284-1.314,0.854-1.797c0.567-0.481,1.334-0.723,2.297-0.723
		c1.853,0,2.996,0.724,3.429,2.172l-1.216,0.262c-0.349-0.887-1.067-1.331-2.153-1.331c-0.54,0-0.983,0.111-1.33,0.333
		c-0.346,0.222-0.519,0.531-0.519,0.93c0,0.628,0.442,1.022,1.326,1.186l1.663,0.305c1.741,0.316,2.611,1.161,2.611,2.533
		c0,0.784-0.324,1.418-0.973,1.901C72.767,47.759,71.905,48,70.829,48C68.804,48,67.554,47.183,67.075,45.549z"/>
	<path d="M81.462,45.215l1.239,0.253c-0.226,0.73-0.664,1.335-1.318,1.813C80.732,47.761,79.962,48,79.08,48
		c-1.164,0-2.107-0.41-2.827-1.232c-0.721-0.821-1.081-1.897-1.081-3.229c0-1.36,0.375-2.459,1.124-3.297
		c0.748-0.838,1.688-1.257,2.819-1.257c1.113,0,2.011,0.386,2.688,1.157c0.679,0.772,1.026,1.926,1.043,3.463h-6.198
		c0,1.292,0.27,2.163,0.81,2.614s1.11,0.677,1.713,0.677C80.254,46.896,81.019,46.335,81.462,45.215z M81.391,42.616
		c-0.011-0.479-0.09-0.905-0.237-1.276c-0.145-0.373-0.393-0.689-0.741-0.951c-0.349-0.262-0.768-0.393-1.257-0.393
		c-0.658,0-1.216,0.237-1.675,0.71c-0.459,0.473-0.716,1.109-0.771,1.91H81.391z"/>
	<path d="M85.607,47.763h-1.33v-8.54h1.166v1.99c0.41-0.932,0.823-1.537,1.236-1.812c0.414-0.277,0.838-0.415,1.271-0.415
		c0.135,0,0.31,0.01,0.523,0.031v1.269h-0.27c-0.731,0-1.338,0.272-1.822,0.814c-0.483,0.543-0.741,1.257-0.775,2.142V47.763z"/>
	<path d="M96.738,39.223l-2.948,8.54h-1.379l-3.047-8.54h1.472l2.37,6.941l2.353-6.941H96.738z"/>
	<path d="M99.225,36.232v1.474h-1.424v-1.474H99.225z M99.194,39.223v8.54h-1.33v-8.54H99.194z"/>
	<path d="M106.144,44.772l1.196,0.21c-0.169,0.944-0.544,1.683-1.123,2.217c-0.58,0.534-1.305,0.801-2.171,0.801
		c-1.178,0-2.075-0.435-2.69-1.304c-0.617-0.869-0.926-1.93-0.926-3.183c0-1.297,0.325-2.376,0.976-3.237s1.536-1.291,2.657-1.291
		c0.93,0,1.674,0.278,2.234,0.834s0.907,1.274,1.043,2.156l-1.196,0.228c-0.226-1.409-0.906-2.114-2.043-2.114
		c-0.731,0-1.293,0.311-1.688,0.934s-0.591,1.429-0.591,2.419c0,1.093,0.195,1.941,0.587,2.546c0.391,0.605,0.94,0.908,1.649,0.908
		C105.156,46.896,105.851,46.188,106.144,44.772z"/>
	<path d="M114.844,45.215l1.236,0.253c-0.224,0.73-0.663,1.335-1.315,1.813S113.343,48,112.46,48c-1.166,0-2.108-0.41-2.828-1.232
		c-0.721-0.821-1.08-1.897-1.08-3.229c0-1.36,0.373-2.459,1.123-3.297c0.748-0.838,1.688-1.257,2.819-1.257
		c1.113,0,2.011,0.386,2.689,1.157c0.678,0.772,1.025,1.926,1.042,3.463h-6.199c0,1.292,0.271,2.163,0.811,2.614
		s1.109,0.677,1.713,0.677C113.634,46.896,114.399,46.335,114.844,45.215z M114.771,42.616c-0.012-0.479-0.089-0.905-0.235-1.276
		c-0.146-0.373-0.395-0.689-0.743-0.951c-0.349-0.262-0.768-0.393-1.257-0.393c-0.658,0-1.216,0.237-1.675,0.71
		c-0.458,0.473-0.716,1.109-0.772,1.91H114.771z"/>
	<path d="M116.977,45.549l1.27-0.262c0.281,1.073,1.172,1.609,2.671,1.609c0.554,0,1.021-0.124,1.404-0.371
		c0.384-0.248,0.576-0.596,0.576-1.046c0-0.669-0.489-1.093-1.466-1.273l-1.797-0.342c-0.705-0.135-1.266-0.4-1.682-0.795
		c-0.418-0.394-0.627-0.916-0.627-1.564c0-0.715,0.286-1.314,0.854-1.797c0.569-0.481,1.334-0.723,2.299-0.723
		c1.852,0,2.996,0.724,3.429,2.172l-1.216,0.262c-0.35-0.887-1.067-1.331-2.154-1.331c-0.539,0-0.982,0.111-1.329,0.333
		c-0.346,0.222-0.52,0.531-0.52,0.93c0,0.628,0.443,1.022,1.327,1.186l1.663,0.305c1.74,0.316,2.611,1.161,2.611,2.533
		c0,0.784-0.324,1.418-0.973,1.901c-0.648,0.483-1.511,0.724-2.587,0.724C118.707,48,117.456,47.183,116.977,45.549z"/>
</g>
<g>
	<g>
		<path fill-rule="evenodd" clip-rule="evenodd" d="M86.988,20.97v-2.051c0.002-0.312,0.236-0.521,0.521-0.52l9.193,0
			c0.294,0,0.53,0.214,0.53,0.518v1.759c-0.003,0.295-0.25,0.68-0.692,1.291l-4.763,6.8c1.769-0.042,3.639,0.223,5.245,1.126
			c0.361,0.204,0.459,0.505,0.487,0.8v2.189c0,0.302-0.33,0.651-0.677,0.469c-2.83-1.482-6.586-1.644-9.715,0.018
			c-0.32,0.171-0.654-0.173-0.654-0.475v-2.081c0-0.333,0.006-0.902,0.342-1.41l5.518-7.916l-4.803-0.001
			C87.225,21.486,86.99,21.277,86.988,20.97z"/>
		<path fill-rule="evenodd" clip-rule="evenodd" d="M54.084,33.783h-2.797c-0.268-0.018-0.48-0.218-0.501-0.474l0.002-14.355
			c0-0.288,0.24-0.517,0.539-0.517l2.604-0.001c0.274,0.014,0.492,0.22,0.51,0.482v1.874h0.052c0.68-1.812,1.958-2.658,3.682-2.658
			c1.749,0,2.847,0.846,3.63,2.658c0.679-1.812,2.22-2.658,3.864-2.658c1.175,0,2.454,0.483,3.237,1.571
			c0.889,1.208,0.706,2.96,0.706,4.5l-0.003,9.06c0,0.287-0.241,0.517-0.54,0.517h-2.794c-0.28-0.019-0.502-0.241-0.502-0.516v-7.61
			c0-0.604,0.052-2.115-0.079-2.689c-0.209-0.967-0.835-1.239-1.645-1.239c-0.679,0-1.383,0.453-1.671,1.179
			c-0.287,0.725-0.261,1.933-0.261,2.749v7.609c0,0.287-0.242,0.517-0.539,0.517h-2.795c-0.281-0.019-0.502-0.241-0.502-0.516
			l-0.002-7.61c0-1.602,0.261-3.958-1.724-3.958c-2.011,0-1.932,2.295-1.932,3.958l-0.002,7.609
			C54.624,33.553,54.381,33.783,54.084,33.783z"/>
		<path fill-rule="evenodd" clip-rule="evenodd" d="M103.987,18.134c4.118,0,6.346,3.565,6.346,8.096c0,4.38-2.46,7.854-6.346,7.854
			c-4.041,0-6.242-3.564-6.242-8.006C97.745,21.608,99.972,18.134,103.987,18.134z M104.012,21.434c-2.046,0-2.176,2.81-2.176,4.562
			s-0.025,5.129,2.15,5.129c2.149,0,2.254-2.651,2.254-4.494c0-1.208-0.053-2.659-0.415-3.807
			C105.515,21.827,104.893,21.434,104.012,21.434z"/>
		<path fill-rule="evenodd" clip-rule="evenodd" d="M116.293,33.783h-2.786c-0.28-0.019-0.502-0.241-0.502-0.516l-0.004-14.362
			c0.023-0.263,0.255-0.468,0.537-0.468l2.594-0.001c0.244,0.013,0.446,0.179,0.497,0.402v2.196h0.053
			c0.783-1.964,1.879-2.9,3.812-2.9c1.254,0,2.481,0.453,3.265,1.691c0.731,1.148,0.731,3.082,0.731,4.471v9.034
			c-0.032,0.255-0.261,0.453-0.536,0.453h-2.804c-0.26-0.017-0.469-0.208-0.499-0.453v-7.794c0-1.571,0.183-3.868-1.75-3.868
			c-0.679,0-1.306,0.453-1.618,1.148c-0.392,0.876-0.444,1.751-0.444,2.719v7.73C116.834,33.553,116.592,33.783,116.293,33.783z"/>
		<path fill-rule="evenodd" clip-rule="evenodd" d="M79.975,26.927c0,1.09,0.026,1.998-0.522,2.967
			c-0.444,0.787-1.151,1.271-1.937,1.271c-1.073,0-1.702-0.817-1.702-2.029c0-2.382,2.139-2.815,4.161-2.815V26.927z M82.795,33.747
			c-0.185,0.166-0.452,0.178-0.661,0.065c-0.928-0.772-1.094-1.129-1.603-1.864c-1.536,1.563-2.623,2.033-4.612,2.033
			c-2.354,0-4.187-1.454-4.187-4.36c0-2.271,1.23-3.814,2.983-4.571c1.517-0.666,3.637-0.787,5.259-0.969v-0.364
			c0-0.666,0.054-1.453-0.339-2.028c-0.342-0.515-0.995-0.727-1.57-0.727c-1.067,0-2.016,0.547-2.249,1.68
			c-0.048,0.251-0.232,0.501-0.484,0.514l-2.712-0.294c-0.229-0.051-0.483-0.235-0.417-0.585c0.622-3.289,3.593-4.283,6.255-4.283
			c1.36,0,3.14,0.364,4.212,1.393c1.361,1.271,1.23,2.967,1.23,4.814v4.358c0,1.311,0.544,1.886,1.056,2.593
			c0.179,0.254,0.219,0.557-0.01,0.742c-0.57,0.479-1.586,1.361-2.145,1.858L82.795,33.747z"/>
		<path fill-rule="evenodd" clip-rule="evenodd" d="M43.624,26.927c0,1.09,0.027,1.998-0.522,2.967
			c-0.444,0.787-1.151,1.271-1.936,1.271c-1.074,0-1.701-0.817-1.701-2.029c0-2.382,2.137-2.815,4.159-2.815V26.927z M46.444,33.747
			c-0.186,0.166-0.452,0.178-0.66,0.065c-0.93-0.772-1.096-1.129-1.604-1.864c-1.535,1.563-2.623,2.033-4.611,2.033
			c-2.355,0-4.187-1.454-4.187-4.36c0-2.271,1.229-3.814,2.982-4.571c1.519-0.666,3.637-0.787,5.259-0.969v-0.364
			c0-0.666,0.054-1.453-0.34-2.028c-0.339-0.515-0.994-0.727-1.57-0.727c-1.065,0-2.015,0.547-2.247,1.68
			c-0.049,0.251-0.233,0.501-0.486,0.514l-2.711-0.294c-0.229-0.051-0.483-0.235-0.418-0.585c0.624-3.289,3.594-4.283,6.256-4.283
			c1.36,0,3.139,0.364,4.213,1.393c1.36,1.271,1.229,2.967,1.229,4.814v4.358c0,1.311,0.544,1.886,1.055,2.593
			c0.18,0.254,0.22,0.557-0.007,0.742c-0.572,0.479-1.588,1.361-2.146,1.858L46.444,33.747z"/>
	</g>
</g>
</svg>
