<?xml version="1.0" encoding="utf-8"?>
<!-- Generator: Adobe Illustrator 16.0.4, SVG Export Plug-In . SVG Version: 6.00 Build 0)  -->
<!DOCTYPE svg PUBLIC "-//W3C//DTD SVG 1.1//EN" "http://www.w3.org/Graphics/SVG/1.1/DTD/svg11.dtd">
<svg version="1.1" id="Layer_1" xmlns="http://www.w3.org/2000/svg" xmlns:xlink="http://www.w3.org/1999/xlink" x="0px" y="0px"
	 width="131.504px" height="48px" viewBox="35.102 0 131.504 48" enable-background="new 35.102 0 131.504 48" xml:space="preserve"
	>
<g>
	<path fill="#222222" d="M44.614,8.353l7.188,21.134h0.086L58.69,8.353h9.514v30.735h-6.329V17.306H61.79l-7.533,21.782h-5.208
		l-7.534-21.566h-0.085v21.566h-6.328V8.353H44.614z"/>
	<path fill="#222222" d="M77.734,33.75c0.917,0.891,2.238,1.334,3.96,1.334c1.233,0,2.295-0.309,3.185-0.924
		c0.889-0.618,1.435-1.271,1.635-1.959h5.381c-0.861,2.669-2.181,4.577-3.96,5.725c-1.78,1.147-3.932,1.721-6.457,1.721
		c-1.751,0-3.33-0.28-4.735-0.84c-1.406-0.559-2.597-1.355-3.572-2.389c-0.977-1.033-1.729-2.267-2.26-3.702
		c-0.531-1.435-0.795-3.013-0.795-4.734c0-1.663,0.271-3.214,0.817-4.649c0.545-1.434,1.319-2.675,2.324-3.723
		c1.005-1.047,2.201-1.874,3.594-2.476c1.391-0.602,2.934-0.904,4.627-0.904c1.895,0,3.544,0.367,4.95,1.098
		c1.405,0.731,2.562,1.714,3.465,2.948c0.903,1.234,1.557,2.64,1.958,4.218c0.402,1.579,0.545,3.229,0.431,4.951H76.227
		C76.313,31.427,76.814,32.861,77.734,33.75z M84.642,22.041c-0.732-0.802-1.844-1.205-3.336-1.205
		c-0.976,0-1.786,0.166-2.432,0.496c-0.646,0.33-1.163,0.739-1.548,1.226c-0.388,0.489-0.661,1.005-0.819,1.55
		c-0.158,0.544-0.251,1.032-0.28,1.463h9.943C85.883,24.021,85.375,22.845,84.642,22.041z"/>
	<path fill="#222222" d="M105.596,16.833v4.088h-4.476v11.021c0,1.032,0.172,1.722,0.516,2.066c0.345,0.345,1.034,0.516,2.066,0.516
		c0.344,0,0.673-0.014,0.99-0.044c0.316-0.027,0.615-0.07,0.903-0.127v4.734c-0.517,0.085-1.091,0.143-1.722,0.172
		c-0.632,0.028-1.249,0.043-1.851,0.043c-0.948,0-1.845-0.063-2.69-0.194c-0.847-0.128-1.593-0.38-2.239-0.753
		c-0.646-0.372-1.155-0.903-1.528-1.593c-0.373-0.689-0.56-1.592-0.56-2.712V20.921h-3.702v-4.088h3.702v-6.672h6.112v6.672H105.596
		z"/>
	<path fill="#222222" d="M112.587,33.75c0.918,0.891,2.238,1.334,3.96,1.334c1.233,0,2.295-0.309,3.186-0.924
		c0.889-0.618,1.436-1.271,1.636-1.959h5.38c-0.86,2.669-2.182,4.577-3.961,5.725c-1.778,1.147-3.931,1.721-6.455,1.721
		c-1.75,0-3.33-0.28-4.735-0.84c-1.407-0.559-2.599-1.355-3.573-2.389c-0.976-1.033-1.729-2.267-2.259-3.702
		c-0.532-1.435-0.798-3.013-0.798-4.734c0-1.663,0.273-3.214,0.817-4.649c0.545-1.434,1.319-2.675,2.324-3.723
		c1.004-1.047,2.202-1.874,3.596-2.476c1.391-0.602,2.933-0.904,4.627-0.904c1.894,0,3.544,0.367,4.951,1.098
		c1.404,0.731,2.561,1.714,3.464,2.948c0.905,1.234,1.556,2.64,1.959,4.218c0.401,1.579,0.544,3.229,0.43,4.951h-16.056
		C111.167,31.427,111.667,32.861,112.587,33.75z M119.494,22.041c-0.73-0.802-1.844-1.205-3.335-1.205
		c-0.977,0-1.786,0.166-2.432,0.496c-0.645,0.33-1.162,0.739-1.549,1.226c-0.389,0.489-0.66,1.005-0.818,1.55
		c-0.157,0.544-0.252,1.032-0.279,1.463h9.943C120.736,24.021,120.228,22.845,119.494,22.041z"/>
	<path fill="#222222" d="M128.518,23.14c0.545-1.449,1.319-2.683,2.325-3.702c1.004-1.019,2.208-1.809,3.615-2.367
		c1.404-0.56,2.983-0.84,4.734-0.84c1.749,0,3.337,0.279,4.757,0.84c1.421,0.558,2.632,1.349,3.638,2.367
		c1.005,1.019,1.779,2.252,2.323,3.702c0.545,1.449,0.817,3.063,0.817,4.842c0,1.78-0.272,3.387-0.817,4.821
		c-0.544,1.436-1.318,2.663-2.323,3.682c-1.006,1.017-2.217,1.801-3.638,2.346c-1.42,0.544-3.008,0.816-4.757,0.816
		c-1.751,0-3.329-0.272-4.734-0.816c-1.407-0.545-2.613-1.329-3.615-2.346c-1.006-1.019-1.78-2.246-2.325-3.682
		c-0.546-1.435-0.816-3.041-0.816-4.821C127.7,26.202,127.972,24.589,128.518,23.14z M134.068,30.586
		c0.173,0.846,0.468,1.606,0.885,2.282c0.415,0.673,0.968,1.211,1.657,1.612c0.689,0.403,1.549,0.604,2.582,0.604
		s1.901-0.2,2.604-0.604c0.703-0.401,1.264-0.939,1.68-1.612c0.414-0.676,0.709-1.437,0.882-2.282s0.258-1.714,0.258-2.604
		c0-0.889-0.085-1.765-0.258-2.626c-0.173-0.86-0.468-1.621-0.882-2.281c-0.417-0.66-0.977-1.197-1.68-1.614
		c-0.703-0.416-1.571-0.625-2.604-0.625s-1.894,0.208-2.582,0.625c-0.689,0.417-1.242,0.954-1.657,1.614
		c-0.417,0.66-0.712,1.421-0.885,2.281c-0.171,0.861-0.256,1.737-0.256,2.626C133.812,28.872,133.897,29.74,134.068,30.586z"/>
	<path fill="#222222" d="M158.085,16.833v4.132h0.086c0.286-0.688,0.675-1.326,1.161-1.915c0.488-0.588,1.048-1.09,1.68-1.506
		c0.631-0.416,1.305-0.739,2.024-0.969c0.715-0.23,1.462-0.345,2.237-0.345c0.401,0,0.845,0.072,1.332,0.215v5.682
		c-0.285-0.057-0.63-0.107-1.03-0.151c-0.403-0.043-0.79-0.064-1.163-0.064c-1.117,0-2.065,0.187-2.841,0.559
		c-0.774,0.374-1.399,0.883-1.872,1.529c-0.474,0.645-0.811,1.399-1.012,2.26c-0.202,0.861-0.301,1.794-0.301,2.798v10.029h-6.113
		V16.833H158.085z"/>
</g>
</svg>
