<?xml version="1.0" encoding="utf-8"?>
<!-- Generator: Adobe Illustrator 16.0.4, SVG Export Plug-In . SVG Version: 6.00 Build 0)  -->
<!DOCTYPE svg PUBLIC "-//W3C//DTD SVG 1.1//EN" "http://www.w3.org/Graphics/SVG/1.1/DTD/svg11.dtd">
<svg version="1.1" id="Layer_1" xmlns="http://www.w3.org/2000/svg" xmlns:xlink="http://www.w3.org/1999/xlink" x="0px" y="0px"
	 width="512px" height="512px" viewBox="0 0 512 512" enable-background="new 0 0 512 512" xml:space="preserve">
<g>
	<path fill="#FFFFFF" d="M255.984,31.984c-123.712,0-224,100.289-224,224.002c0,123.709,100.288,223.999,224,223.999
		c123.713,0,224-100.289,224-223.999C479.984,132.273,379.695,31.984,255.984,31.984z M397.406,397.406
		c-18.375,18.375-39.768,32.799-63.58,42.872c-24.643,10.423-50.832,15.707-77.842,15.707s-53.201-5.284-77.842-15.707
		c-23.813-10.071-45.204-24.496-63.58-42.871c-18.375-18.375-32.799-39.767-42.872-63.58c-10.422-24.642-15.707-50.831-15.707-77.84
		c0-27.011,5.285-53.201,15.707-77.843c10.072-23.813,24.496-45.205,42.872-63.58s39.767-32.8,63.58-42.872
		c24.641-10.423,50.831-15.708,77.842-15.708c27.01,0,53.201,5.285,77.842,15.708c23.812,10.072,45.205,24.496,63.58,42.872
		s32.799,39.767,42.871,63.581c10.422,24.642,15.707,50.832,15.707,77.842c0,27.01-5.285,53.199-15.707,77.84
		C430.206,357.641,415.781,379.031,397.406,397.406z"/>
	<path fill="#FFFFFF" d="M255.984,205.984c28.033,0,51.421-19.888,56.824-46.324l11.676-11.676l-11.676-11.676
		c-5.403-26.436-28.791-46.324-56.824-46.324c-32.033,0-58,25.968-58,58S223.951,205.984,255.984,205.984z"/>
	<path fill="#FFFFFF" d="M255.984,305.984c-28.034,0-51.421,19.888-56.824,46.324l-11.676,11.676l11.677,11.676
		c5.403,26.436,28.791,46.324,56.824,46.324c32.032,0,58-25.969,58-58C313.984,331.951,288.017,305.984,255.984,305.984z"/>
	<path fill="#FFFFFF" d="M363.984,197.984c-32.033,0-58,25.968-58,58c0,28.033,19.888,51.421,46.324,56.825l11.676,11.676
		l11.676-11.676c26.437-5.404,46.324-28.792,46.324-56.825C421.984,223.952,396.017,197.984,363.984,197.984z"/>
	<path fill="#FFFFFF" d="M205.984,255.984c0-28.033-19.888-51.42-46.324-56.824l-11.676-11.676l-11.676,11.676
		c-26.436,5.403-46.324,28.791-46.324,56.824c0,32.032,25.968,58,58,58C180.017,313.984,205.984,288.016,205.984,255.984z"/>
</g>
</svg>
