<?xml version="1.0" encoding="utf-8"?>
<!-- Generator: Adobe Illustrator 16.0.4, SVG Export Plug-In . SVG Version: 6.00 Build 0)  -->
<!DOCTYPE svg PUBLIC "-//W3C//DTD SVG 1.1//EN" "http://www.w3.org/Graphics/SVG/1.1/DTD/svg11.dtd">
<svg version="1.1" id="Layer_1" xmlns="http://www.w3.org/2000/svg" xmlns:xlink="http://www.w3.org/1999/xlink" x="0px" y="0px"
	 width="41.277px" height="56.167px" viewBox="0 0 41.277 56.167" enable-background="new 0 0 41.277 56.167" xml:space="preserve">
<g>
	<path fill="#434343" d="M35.474,29.829c-0.586-1.351-0.915-2.864-0.915-4.463c0-0.675,0.059-1.329,0.171-1.958
		c0.482-2.721,1.964-4.967,4.009-6.421c0.366-0.259,0.748-0.494,1.146-0.701c-2.757-4.346-7.242-5.016-8.654-5.163
		c-3.072-0.318-7.397,2.062-9.747,2.101h-0.061c-2.35-0.04-6.674-2.419-9.747-2.101c-1.528,0.159-6.412,1.172-9.357,5.864
		c-1.033,1.646-1.828,3.747-2.156,6.421c-0.118,0.966-0.174,2.006-0.16,3.125c0.016,1.123,0.104,2.224,0.258,3.296
		c0.329,2.287,0.951,4.444,1.753,6.421c0.89,2.191,2.001,4.163,3.185,5.837c2.62,3.707,5.587,5.851,7.258,5.89
		c3.438,0.076,6.425-2.246,8.891-2.187c0.024,0.005,0.052,0.008,0.077,0.005l0.03-0.001l0.03,0.001c0.025,0.002,0.052,0,0.077-0.005
		c2.464-0.063,5.453,2.263,8.893,2.187c1.67-0.039,4.638-2.183,7.258-5.89c1.184-1.674,2.295-3.646,3.186-5.837
		c0.132-0.327,0.26-0.659,0.382-0.995C38.718,34.454,36.61,32.451,35.474,29.829z"/>
	<path fill="#434343" d="M27.491,7.854c2.638-3.125,2.537-7.625,2.298-7.825c-0.238-0.201-4.602,0.6-7.307,3.623
		c-2.705,3.022-2.537,7.625-2.298,7.824C20.421,11.677,24.852,10.98,27.491,7.854z"/>
</g>
</svg>
