<svg xmlns="http://www.w3.org/2000/svg" width="131.504" height="48" viewBox="35.102 0 131.504 48" enable-background="new 35.102 0 131.504 48"><g fill="#222"><path d="M44.614 8.353l7.188 21.134h.086L58.69 8.353h9.514v30.735h-6.33V17.306h-.084l-7.533 21.782H49.05l-7.535-21.566h-.085v21.566h-6.328V8.353h9.512zM77.734 33.75c.917.89 2.238 1.334 3.96 1.334 1.233 0 2.295-.31 3.185-.924.888-.618 1.434-1.27 1.634-1.96h5.38c-.86 2.67-2.18 4.578-3.96 5.726-1.78 1.147-3.93 1.72-6.456 1.72-1.75 0-3.33-.28-4.735-.84-1.406-.558-2.597-1.354-3.572-2.388-.976-1.033-1.728-2.267-2.26-3.702-.53-1.435-.794-3.013-.794-4.734 0-1.663.27-3.214.817-4.65.545-1.433 1.32-2.674 2.324-3.722 1.005-1.047 2.2-1.874 3.594-2.476 1.392-.602 2.935-.904 4.628-.904 1.895 0 3.544.367 4.95 1.098 1.405.73 2.562 1.714 3.465 2.948s1.557 2.64 1.958 4.218c.403 1.58.546 3.23.432 4.95H76.227c.086 1.983.587 3.417 1.507 4.306zm6.908-11.71c-.732-.8-1.844-1.204-3.336-1.204-.976 0-1.786.166-2.432.496-.646.33-1.163.74-1.548 1.226-.388.49-.66 1.005-.82 1.55-.157.544-.25 1.032-.28 1.463h9.944c-.287-1.55-.795-2.725-1.528-3.53zM105.596 16.833v4.088h-4.476v11.022c0 1.032.172 1.722.516 2.066.345.345 1.034.516 2.066.516.344 0 .673-.014.99-.044.316-.027.615-.07.903-.127v4.734c-.517.085-1.09.143-1.722.172-.632.027-1.25.042-1.85.042-.95 0-1.846-.063-2.69-.194-.848-.128-1.594-.38-2.24-.753-.646-.372-1.155-.903-1.528-1.593s-.56-1.592-.56-2.712V20.92h-3.702v-4.087h3.702V10.16h6.112v6.673h4.48zM112.587 33.75c.918.89 2.238 1.334 3.96 1.334 1.233 0 2.295-.31 3.186-.924.89-.618 1.436-1.27 1.636-1.96h5.38c-.86 2.67-2.183 4.578-3.962 5.726-1.778 1.147-3.93 1.72-6.455 1.72-1.75 0-3.33-.28-4.735-.84-1.407-.558-2.6-1.354-3.573-2.388-.976-1.033-1.73-2.267-2.26-3.702-.53-1.435-.797-3.013-.797-4.734 0-1.663.273-3.214.817-4.65.545-1.433 1.32-2.674 2.324-3.722 1.003-1.047 2.2-1.874 3.595-2.476 1.39-.602 2.933-.904 4.627-.904 1.894 0 3.544.367 4.95 1.098 1.405.73 2.562 1.714 3.465 2.948.905 1.234 1.556 2.64 1.96 4.218.4 1.58.543 3.23.43 4.95H111.08c.087 1.983.587 3.417 1.507 4.306zm6.907-11.71c-.73-.8-1.844-1.204-3.335-1.204-.978 0-1.787.166-2.433.496-.645.33-1.162.74-1.55 1.226-.388.49-.66 1.005-.817 1.55-.157.544-.252 1.032-.28 1.463h9.944c-.288-1.55-.796-2.725-1.53-3.53zM128.518 23.14c.545-1.45 1.32-2.683 2.325-3.702 1.004-1.02 2.208-1.81 3.615-2.367 1.404-.56 2.983-.84 4.734-.84 1.75 0 3.337.28 4.757.84 1.42.56 2.63 1.35 3.637 2.368 1.005 1.02 1.78 2.252 2.323 3.702.545 1.45.817 3.063.817 4.842 0 1.78-.272 3.387-.817 4.82-.544 1.437-1.318 2.664-2.323 3.683-1.006 1.017-2.217 1.8-3.638 2.346-1.42.545-3.01.817-4.758.817-1.75 0-3.33-.272-4.734-.816-1.407-.544-2.613-1.328-3.615-2.345-1.006-1.02-1.78-2.246-2.325-3.682-.546-1.435-.816-3.04-.816-4.82-.002-1.78.27-3.394.816-4.843zm5.55 7.446c.173.846.468 1.606.885 2.282.415.673.968 1.21 1.657 1.612.69.403 1.55.604 2.582.604s1.9-.2 2.604-.604c.703-.4 1.264-.94 1.68-1.612.414-.676.71-1.437.882-2.282s.258-1.714.258-2.604c0-.89-.085-1.765-.258-2.626-.173-.86-.468-1.62-.882-2.28-.417-.66-.977-1.198-1.68-1.615-.703-.415-1.57-.624-2.604-.624s-1.894.208-2.582.625c-.69.418-1.242.955-1.657 1.615-.417.66-.712 1.42-.885 2.28-.17.862-.256 1.738-.256 2.627 0 .89.085 1.758.256 2.604zM158.085 16.833v4.132h.086c.287-.688.676-1.326 1.162-1.915.488-.588 1.048-1.09 1.68-1.506.63-.416 1.305-.74 2.024-.97.715-.23 1.462-.344 2.237-.344.4 0 .845.072 1.332.215v5.682c-.285-.057-.63-.107-1.03-.15-.403-.044-.79-.065-1.163-.065-1.117 0-2.065.187-2.84.56-.775.373-1.4.882-1.873 1.528-.475.645-.812 1.4-1.013 2.26-.202.86-.3 1.794-.3 2.798v10.03h-6.114V16.832h5.812z"/></g></svg>