<?xml version="1.0" encoding="utf-8"?>
<!-- Generator: Adobe Illustrator 16.0.4, SVG Export Plug-In . SVG Version: 6.00 Build 0)  -->
<!DOCTYPE svg PUBLIC "-//W3C//DTD SVG 1.1//EN" "http://www.w3.org/Graphics/SVG/1.1/DTD/svg11.dtd">
<svg version="1.1" id="Layer_1" xmlns="http://www.w3.org/2000/svg" xmlns:xlink="http://www.w3.org/1999/xlink" x="0px" y="0px"
	 width="167.375px" height="48px" viewBox="0 0 167.375 48" enable-background="new 0 0 167.375 48" xml:space="preserve">
<linearGradient id="SVGID_1_" gradientUnits="userSpaceOnUse" x1="-1547.2847" y1="-158.397" x2="-1561.9767" y2="-158.4973" gradientTransform="matrix(-0.9771 -0.323 0.2901 -0.8773 -1462.6646 -615.0359)">
	<stop  offset="0.2308" style="stop-color:#9C9879"/>
	<stop  offset="0.5654" style="stop-color:#9D9A7B"/>
	<stop  offset="0.686" style="stop-color:#A39F82"/>
	<stop  offset="0.7719" style="stop-color:#ACA98D"/>
	<stop  offset="0.8414" style="stop-color:#BAB69E"/>
	<stop  offset="0.9009" style="stop-color:#CBC8B4"/>
	<stop  offset="0.9526" style="stop-color:#E0DECF"/>
	<stop  offset="0.9992" style="stop-color:#FAF7EE"/>
	<stop  offset="1" style="stop-color:#FAF8EF"/>
</linearGradient>
<path fill="url(#SVGID_1_)" d="M11.479,46.465l-1.246-0.414c0,0,0.158-6.308-2.116-6.75c-1.5-1.738,0.23-74.247,5.681-0.248
	c0,0-1.865,0.937-2.219,2.526C11.227,43.173,11.479,46.465,11.479,46.465z"/>
<linearGradient id="SVGID_2_" gradientUnits="userSpaceOnUse" x1="-1545.022" y1="-132.6841" x2="-1566.1582" y2="-169.2931" gradientTransform="matrix(-0.9771 -0.323 0.2901 -0.8773 -1462.6646 -615.0359)">
	<stop  offset="0" style="stop-color:#459E55"/>
	<stop  offset="1" style="stop-color:#338D4A"/>
</linearGradient>
<path fill="url(#SVGID_2_)" d="M12.151,40.374c0,0,10.83-7.133,8.292-21.946C18,7.666,12.231,4.128,11.611,2.777
	c-0.683-0.956-1.369-2.65-1.369-2.65l0.461,29.986C10.703,30.113,9.75,39.269,12.151,40.374z"/>
<linearGradient id="SVGID_3_" gradientUnits="userSpaceOnUse" x1="-1543.0771" y1="-159.0176" x2="-1558.0592" y2="-148.9542" gradientTransform="matrix(-0.9771 -0.323 0.2901 -0.8773 -1462.6646 -615.0359)">
	<stop  offset="0" style="stop-color:#2FA352"/>
	<stop  offset="0.1979" style="stop-color:#39A758"/>
	<stop  offset="0.5377" style="stop-color:#55B169"/>
	<stop  offset="0.9759" style="stop-color:#81C283"/>
	<stop  offset="1" style="stop-color:#84C385"/>
</linearGradient>
<path fill="url(#SVGID_3_)" d="M9.599,40.772c0,0-10.158-6.93-9.574-19.158C0.609,9.387,7.785,3.375,9.182,2.284
	C10.086,1.321,10.123,0.95,10.192,0c0.634,1.36,0.528,20.317,0.595,22.533C11.048,31.158,10.31,39.144,9.599,40.772z"/>
<path fill="#947757" d="M125.578,18.352c0.582,0,2.795,0.102,3.822,0.102c1.918,0,3.253-0.102,6.849-0.102
	c3.015,0,5.549,0.812,7.363,2.368c2.192,1.894,3.356,4.532,3.356,7.746c0,4.566-2.089,7.204-4.178,8.692
	c-2.089,1.556-4.795,2.435-8.665,2.435c-2.055,0-5.583-0.068-8.528-0.101h-0.04c-0.137-0.271,0.253-1.326,0.493-1.353
	c0.796-0.09,1.012-0.121,1.382-0.273c0.621-0.256,0.769-0.573,0.838-1.689c0.103-2.097,0.068-4.6,0.068-7.441
	c0-2.029,0.034-5.987-0.035-7.238c-0.103-1.048-0.547-1.319-1.438-1.522c-0.445-0.101-1.062-0.203-1.918-0.304
	C124.88,19.468,125.407,18.554,125.578,18.352z M132.414,37.157c0.719,0.575,2.157,0.812,3.425,0.812
	c1.644,0,3.254-0.305,4.829-1.725c1.609-1.456,2.705-3.688,2.705-7.239c0-3.416-1.302-6.189-3.973-7.813
	c-1.507-0.947-3.459-1.319-5.685-1.319c-0.651,0-1.302,0.034-1.679,0.203c-0.103,0.067-0.309,0.338-0.309,0.474
	c-0.068,0.609-0.068,5.242-0.068,7.982c0,2.807,0,6.731,0.068,7.205C131.764,36.143,131.969,36.853,132.414,37.157z"/>
<path fill="#947757" d="M149.854,18.352c0.309,0,1.221,0.102,3.549,0.102c2.191,0,3.972-0.067,6.096-0.067
	c2.637,0,6.268,0.947,6.268,4.871c0,1.927-1.37,3.483-3.151,4.228c-0.103,0.034-0.103,0.102,0,0.135
	c2.535,0.643,4.761,2.199,4.761,5.175c0,2.909-1.815,4.735-4.452,5.886c-1.609,0.71-3.596,0.946-5.617,0.946
	c-1.541,0-5.671-0.169-7.966-0.135c-0.239-0.102,0.22-1.184,0.425-1.353c0.549-0.034,0.972-0.073,1.554-0.243
	c0.821-0.203,0.919-0.467,1.021-1.686c0.069-1.048,0.069-4.802,0.069-7.475c0-3.653,0.033-6.122,0-7.339
	c-0.035-0.947-0.378-1.252-1.028-1.421c-0.514-0.101-1.369-0.203-2.055-0.304C149.155,19.501,149.683,18.487,149.854,18.352z
	 M163.813,33.538c0-2.976-2.191-4.667-6.199-4.667c-0.171,0-1.438-0.034-1.747,0.034c-0.103,0.034-0.204,0.101-0.204,0.169
	c0,2.131-0.035,5.547,0.067,6.899c0.068,0.575,0.48,1.387,0.993,1.624c0.549,0.305,1.781,0.373,2.638,0.373
	C161.725,37.969,163.813,36.65,163.813,33.538z M156.039,20.009c-0.137,0.034-0.309,0.372-0.309,0.541
	c-0.033,1.217-0.067,4.397-0.067,6.595c0,0.067,0.102,0.169,0.171,0.169c0.445,0.034,1.54,0.068,2.465,0.068
	c1.302,0,2.056-0.169,2.467-0.372c1.096-0.541,1.609-1.725,1.609-3.01c0-2.942-2.056-4.059-5.103-4.059
	C157.066,19.941,156.484,19.941,156.039,20.009z"/>
<path fill="#411306" d="M27.332,39.577c-0.058-0.09-0.118-0.36-0.105-0.683c0.01-0.246,0.059-0.403,0.104-0.456
	c0.646-0.102,0.951-0.171,1.314-0.268c0.605-0.15,0.834-0.477,0.869-1.251c0.1-1.824,0.105-5.245,0.069-7.65v-0.071
	c0.003-0.258,0.007-0.611-0.317-0.86c-0.475-0.313-1.066-0.572-1.816-0.796c-0.286-0.085-0.445-0.236-0.437-0.412
	c0.009-0.169,0.188-0.385,0.562-0.457c0.992-0.102,3.592-0.721,4.612-1.192c0.061,0.073,0.155,0.232,0.138,0.486
	c-0.008,0.107-0.017,0.218-0.026,0.334c-0.029,0.34-0.062,0.725-0.062,1.109c0,0.113,0.122,0.22,0.252,0.22
	c0.066,0,0.128-0.026,0.178-0.075c1.944-1.522,3.684-2.065,4.579-2.065c1.471,0,2.616,0.702,3.501,2.146
	c0.052,0.076,0.122,0.117,0.199,0.117c0.074,0,0.145-0.039,0.186-0.1c1.788-1.354,3.561-2.163,4.744-2.163
	c2.805,0,4.479,2.096,4.479,5.606c0,1.009-0.011,2.288-0.02,3.481c-0.009,1.047-0.016,2.029-0.016,2.708
	c0,0.165,0.22,0.622,0.553,0.713c0.409,0.199,1.002,0.301,1.75,0.43l0.029,0.005c0.057,0.201-0.062,0.983-0.177,1.144
	c-0.186-0.001-0.442-0.015-0.763-0.031c-0.582-0.03-1.38-0.07-2.309-0.07c-1.863,0-2.837,0.037-3.767,0.097
	c-0.069-0.232-0.094-0.981-0.009-1.138c0.542-0.102,0.811-0.17,1.136-0.266c0.593-0.195,0.764-0.464,0.798-1.25
	c0.015-0.56,0.122-5.482-0.069-6.652c-0.176-1.211-1.09-2.629-3.089-2.629c-0.741,0-1.94,0.308-3.082,1.173
	c-0.071,0.069-0.111,0.203-0.111,0.291l0.002,0.022c0.135,0.631,0.135,1.367,0.135,2.48c0,0.634-0.005,1.308-0.008,1.976
	c-0.009,1.357-0.016,2.639,0.008,3.607c0,0.66,0.399,0.817,0.721,0.945c0.174,0.039,0.312,0.072,0.451,0.105
	c0.27,0.065,0.548,0.132,0.96,0.198c0.057,0.13,0.062,0.519-0.016,0.851c-0.043,0.184-0.093,0.265-0.119,0.291
	c-1.036-0.036-2.099-0.067-3.633-0.067c-0.465,0-1.225,0.021-1.894,0.038c-0.543,0.015-1.057,0.029-1.349,0.029
	c-0.043-0.066-0.102-0.281-0.102-0.589c0-0.287,0.053-0.489,0.106-0.551c0.145-0.027,0.281-0.051,0.412-0.075
	c0.359-0.063,0.67-0.119,0.969-0.192c0.508-0.154,0.697-0.437,0.734-1.081c0.1-1.505,0.177-5.841-0.036-6.927
	c-0.363-1.743-1.356-2.625-2.951-2.625c-0.936,0-2.116,0.449-3.081,1.172c-0.162,0.119-0.284,0.419-0.284,0.696
	c0,0.516-0.002,1.131-0.004,1.79c-0.007,2.178-0.015,4.888,0.039,6.062c0.032,0.36,0.158,0.79,0.839,0.948
	c0.148,0.042,0.405,0.084,0.703,0.134c0.172,0.028,0.359,0.06,0.553,0.094c0.069,0.187,0.026,0.917-0.092,1.145
	c-0.298-0.001-0.664-0.019-1.084-0.037c-0.642-0.028-1.44-0.064-2.35-0.064c-1.07,0-1.816,0.036-2.414,0.064
	C28.027,39.559,27.679,39.576,27.332,39.577L27.332,39.577z"/>
<path fill="#411306" d="M61.856,39.882c-5.146,0-6.979-3.77-6.979-7.297c0-2.464,1.008-4.391,2.999-5.727
	c1.415-0.869,3.104-1.368,4.63-1.368c3.927,0,6.67,2.82,6.67,6.858c0,2.746-1.097,4.913-3.17,6.267
	C65.014,39.224,63.288,39.882,61.856,39.882L61.856,39.882z M61.308,26.928c-0.623,0-1.205,0.163-1.638,0.459
	c-1.189,0.722-1.795,2.165-1.795,4.284c0,3.968,1.989,6.739,4.837,6.739c0.84,0,1.525-0.241,2.094-0.738
	c0.875-0.713,1.34-2.17,1.34-4.209C66.146,29.554,64.201,26.928,61.308,26.928L61.308,26.928z"/>
<path fill="#411306" d="M115.14,39.882c-5.146,0-6.979-3.77-6.979-7.297c0-2.465,1.009-4.392,2.999-5.727
	c1.415-0.869,3.104-1.368,4.63-1.368c3.928,0,6.67,2.82,6.67,6.858c0,2.746-1.097,4.913-3.169,6.267
	C118.297,39.224,116.572,39.882,115.14,39.882L115.14,39.882z M114.592,26.928c-0.624,0-1.207,0.163-1.64,0.459
	c-1.188,0.722-1.794,2.164-1.794,4.284c0,3.968,1.989,6.739,4.837,6.739c0.841,0,1.525-0.241,2.095-0.738
	c0.875-0.712,1.339-2.169,1.339-4.208C119.429,29.554,117.484,26.928,114.592,26.928L114.592,26.928z"/>
<path fill="#411306" d="M97.373,48c-1.848,0-3.178-0.39-4.315-1.263c-1.105-0.853-1.602-2.118-1.602-2.991
	c0-0.251,0.06-0.901,0.606-1.521c0.322-0.365,1.067-1.049,2.789-2.232c0.053-0.02,0.09-0.072,0.09-0.136
	c0-0.07-0.046-0.127-0.108-0.141c-1.419-0.543-1.848-1.434-1.976-1.917c-0.003-0.018-0.009-0.045-0.015-0.074
	c-0.041-0.19-0.079-0.369,0.178-0.553c0.198-0.142,0.518-0.331,0.855-0.53c0.499-0.294,1.064-0.627,1.378-0.896
	c0.05-0.048,0.069-0.119,0.058-0.19c-0.012-0.072-0.054-0.131-0.114-0.161c-2.101-0.705-3.159-2.263-3.159-4.637
	c0-1.532,0.708-2.917,1.941-3.8c0.844-0.667,2.965-1.469,4.339-1.469l0.079,0.001c1.414,0.033,2.211,0.329,3.313,0.737
	c0.599,0.221,1.165,0.311,1.958,0.311c1.17,0,1.681-0.37,2.119-0.795c0.025,0.053,0.085,0.22,0.111,0.604
	c0.028,0.393-0.079,0.975-0.38,1.39c-0.239,0.331-0.793,0.571-1.317,0.571c-0.052,0-0.104-0.002-0.153-0.008
	c-0.539-0.053-0.792-0.131-0.794-0.132l-0.133,0.046c-0.041,0.061-0.015,0.128,0.021,0.214c0.008,0.021,0.017,0.04,0.02,0.053
	c0.068,0.274,0.19,1.073,0.19,1.297c0,2.489-0.983,3.574-2.046,4.377c-1.014,0.765-2.199,1.224-3.534,1.365h-0.002
	c-0.026,0-0.153,0.011-0.408,0.034c-0.165,0.015-0.37,0.034-0.4,0.034l-0.029,0.004c-0.232,0.066-0.835,0.352-0.835,0.884
	c0,0.443,0.273,0.992,1.575,1.09c0.264,0.02,0.548,0.039,0.843,0.06c1.72,0.12,3.866,0.269,4.877,0.611
	c1.39,0.506,2.254,1.75,2.254,3.245c0,2.234-1.59,4.334-4.253,5.617C100.103,47.705,98.791,48,97.373,48L97.373,48z M97.168,40.152
	c-0.596,0-1.029,0.173-1.288,0.318c-1.256,0.804-1.838,1.607-1.838,2.531c0,0.872,0.339,1.565,1.067,2.18
	c0.881,0.747,2.07,1.109,3.634,1.109c3.075,0,4.454-1.652,4.454-3.29c0-1.139-0.572-1.903-1.75-2.334
	C100.539,40.335,99.023,40.152,97.168,40.152L97.168,40.152z M97.373,26.792c-1.586,0-2.611,1.251-2.611,3.188
	c0,1.955,0.882,4.236,3.365,4.236c0.427,0,1.199-0.189,1.583-0.611c0.576-0.53,0.953-1.624,0.953-2.78
	C100.663,28.3,99.434,26.792,97.373,26.792L97.373,26.792z"/>
<g>
	<g>
		<path fill="#411306" d="M89.012,38.334c-0.753-0.102-1.301-0.203-1.952-0.507c-0.103-0.068-0.239-0.372-0.239-0.474
			c-0.069-1.048-0.069-4.092-0.069-6.087c0-1.624-0.273-3.044-0.958-4.06c-0.822-1.149-1.986-1.826-3.493-1.826
			c-1.336,0-3.117,0.914-4.589,2.165c-0.035,0.034-0.262,0.248-0.257-0.085c0.006-0.333,0.058-1.01,0.088-1.436
			c0.031-0.426-0.224-0.627-0.224-0.627c-0.959,0.474-3.661,1.115-4.658,1.218c-0.729,0.14-0.944,0.84-0.138,1.082v0
			c0.017,0.005,0.03,0.01,0.047,0.015c0.792,0.241,1.333,0.498,1.735,0.763c0.308,0.237,0.273,0.575,0.273,0.846
			c0.034,2.266,0.034,5.75-0.068,7.644c-0.034,0.726-0.235,0.998-0.754,1.137c-0.403,0.099-0.744,0.167-1.251,0.233
			c-0.172,0.168-0.172,1.15,0,1.353c0.342,0,2.089-0.102,3.527-0.102c1.985,0,3.014,0.102,3.527,0.102
			c0.206-0.237,0.274-1.151,0.137-1.353c-0.582-0.034-0.993-0.102-1.404-0.203c-0.548-0.135-0.685-0.406-0.719-1.015
			c-0.068-1.589-0.068-4.972-0.068-7.272c0-0.643,0.171-0.947,0.377-1.116c0.685-0.609,1.814-1.015,2.808-1.015
			c0.959,0,1.61,0.305,2.09,0.71c0.65,0.542,0.89,1.319,0.959,1.895c0.137,1.286,0.103,3.856,0.103,6.088
			c0,1.218-0.103,1.522-0.549,1.658c-0.205,0.101-0.753,0.203-1.403,0.271c-0.205,0.202-0.138,1.15,0,1.353
			c0.891,0,1.918-0.102,3.425-0.102c1.884,0,3.082,0.102,3.562,0.102C89.08,39.451,89.148,38.571,89.012,38.334z"/>
	</g>
</g>
</svg>
