<?xml version="1.0" encoding="utf-8"?>
<!-- Generator: Adobe Illustrator 16.0.0, SVG Export Plug-In . SVG Version: 6.00 Build 0)  -->
<!DOCTYPE svg PUBLIC "-//W3C//DTD SVG 1.1//EN" "http://www.w3.org/Graphics/SVG/1.1/DTD/svg11.dtd">
<svg version="1.1" id="Layer_1" xmlns="http://www.w3.org/2000/svg" xmlns:xlink="http://www.w3.org/1999/xlink" x="0px" y="0px"
	 width="125px" height="80px" viewBox="0 0 125 80" enable-background="new 0 0 125 80" xml:space="preserve">
<path d="M4.621,6.965c0,1.368-0.833,2.38-2.262,2.38c-1.19,0-2.083-1.012-2.083-2.38c0-1.31,0.952-2.381,2.202-2.381
	C3.788,4.584,4.621,5.655,4.621,6.965z M1.327,78.5V23.78H3.57V78.5H1.327z"/>
<path d="M78.174,39.512c0,27.588-15.315,40.128-32.079,40.128c-17.125,0-30.993-13.565-30.993-38.987
	c0-26.105,14.351-40.128,32.199-40.128C64.787,0.524,78.174,14.318,78.174,39.512z M17.375,40.082
	C17.375,61,27.513,77.25,46.201,77.25c18.818,0,29.611-16.75,29.611-37.406c0-19.155-8.648-36.636-28.382-36.636
	S17.375,19.667,17.375,40.082z"/>
<path d="M86.406,72.571c3.763,2.508,10.258,4.93,15.844,4.93c10.602,0,20.031-7.417,20.031-18.334
	c0-10.131-6.281-15.417-16.945-19.958c-9.544-4.064-18.125-8.475-18.125-19.305c0-11.285,8.891-19.266,20.975-19.266
	c6.498,0,11.4,1.824,13.68,3.42l-0.907,1.968c-1.938-1.367-7.175-3.109-12.874-3.109c-12.771,0-18.334,9.65-18.334,16.754
	c0,9.812,7.606,13.093,17.41,17.767c11.4,5.586,17.441,10.51,17.441,21.227c0,11.514-8.207,20.861-22.799,20.861
	c-6.043,0-12.996-2.052-16.416-4.674L86.406,72.571z"/>
</svg>
