<?xml version="1.0" encoding="utf-8"?>
<!-- Generator: Adobe Illustrator 16.0.4, SVG Export Plug-In . SVG Version: 6.00 Build 0)  -->
<!DOCTYPE svg PUBLIC "-//W3C//DTD SVG 1.1//EN" "http://www.w3.org/Graphics/SVG/1.1/DTD/svg11.dtd">
<svg version="1.1" id="Layer_1" xmlns="http://www.w3.org/2000/svg" xmlns:xlink="http://www.w3.org/1999/xlink" x="0px" y="0px"
	 width="178.355px" height="48px" viewBox="0 0 178.355 48" enable-background="new 0 0 178.355 48" xml:space="preserve">
<g>
	<path fill="#46483E" d="M37.15,25.257c0-0.432-0.228-0.829-0.601-1.043l-9.942-5.722c-0.167-0.099-0.356-0.15-0.547-0.158
		c-0.017,0-0.089,0-0.104,0c-0.189,0.008-0.378,0.059-0.549,0.158l-9.943,5.722c-0.372,0.215-0.601,0.612-0.601,1.043l0.021,15.408
		c0,0.215,0.113,0.414,0.299,0.52c0.186,0.11,0.414,0.11,0.597,0l5.908-3.384c0.375-0.223,0.603-0.614,0.603-1.042v-7.198
		c0-0.429,0.227-0.827,0.599-1.04l2.516-1.449c0.188-0.109,0.393-0.161,0.603-0.161c0.205,0,0.415,0.052,0.598,0.161l2.515,1.449
		c0.373,0.213,0.601,0.61,0.601,1.04v7.198c0,0.428,0.23,0.822,0.603,1.042l5.908,3.384c0.186,0.11,0.417,0.11,0.601,0
		c0.183-0.104,0.297-0.305,0.297-0.52L37.15,25.257z"/>
	<path fill="#46483E" d="M90.244,4.076c-0.188-0.104-0.414-0.102-0.598,0.007c-0.185,0.108-0.296,0.305-0.296,0.519V19.86
		c0,0.149-0.08,0.289-0.21,0.363c-0.13,0.076-0.29,0.076-0.421,0l-2.489-1.435c-0.373-0.214-0.83-0.213-1.2,0l-9.949,5.74
		c-0.371,0.215-0.599,0.611-0.599,1.04v11.484c0,0.43,0.227,0.825,0.599,1.04l9.946,5.745c0.373,0.215,0.83,0.215,1.203,0
		l9.949-5.745c0.37-0.215,0.601-0.61,0.601-1.04V8.427c0-0.435-0.235-0.836-0.616-1.049L90.244,4.076z M89.321,33.279
		c0,0.108-0.059,0.207-0.151,0.261l-3.416,1.969c-0.092,0.053-0.207,0.053-0.298,0L82.04,33.54
		c-0.092-0.054-0.151-0.152-0.151-0.261v-3.942c0-0.107,0.059-0.207,0.149-0.261l3.417-1.973c0.092-0.053,0.207-0.053,0.298,0
		l3.416,1.973c0.092,0.054,0.151,0.153,0.151,0.261V33.279z"/>
	<path fill="#46483E" d="M125.83,29.234c0.37-0.215,0.597-0.611,0.597-1.039v-2.784c0-0.427-0.226-0.823-0.597-1.039l-9.883-5.738
		c-0.371-0.216-0.832-0.217-1.203-0.002l-9.944,5.741c-0.371,0.214-0.601,0.611-0.601,1.04v11.48c0,0.432,0.231,0.829,0.606,1.044
		l9.882,5.63c0.364,0.208,0.812,0.21,1.178,0.006l5.977-3.321c0.19-0.106,0.308-0.306,0.31-0.521s-0.114-0.416-0.301-0.524
		l-10.007-5.743c-0.188-0.107-0.303-0.306-0.303-0.521v-3.599c0-0.214,0.114-0.412,0.301-0.52l3.113-1.796
		c0.187-0.106,0.415-0.106,0.602,0l3.114,1.796c0.187,0.107,0.301,0.306,0.301,0.52v2.832c0,0.215,0.114,0.413,0.302,0.521
		c0.186,0.105,0.415,0.105,0.601-0.002L125.83,29.234z"/>
	<path fill="#8CC84B" d="M55.238,18.573c0.37-0.214,0.828-0.214,1.2,0l9.946,5.739c0.372,0.214,0.601,0.61,0.601,1.041v11.487
		c0,0.429-0.228,0.826-0.601,1.041l-9.945,5.743c-0.373,0.216-0.83,0.216-1.202,0l-9.944-5.744
		c-0.371-0.216-0.601-0.611-0.601-1.041V25.353c0-0.43,0.229-0.826,0.601-1.04L55.238,18.573z"/>
	<path fill="#8CC84B" d="M145.142,43.789c-0.344,0-0.684-0.089-0.984-0.263l-3.131-1.853c-0.468-0.262-0.239-0.354-0.085-0.408
		c0.623-0.217,0.748-0.267,1.414-0.645c0.07-0.039,0.162-0.023,0.234,0.018l2.404,1.43c0.087,0.049,0.212,0.049,0.291,0l9.379-5.414
		c0.088-0.05,0.143-0.15,0.143-0.254V25.577c0-0.105-0.054-0.205-0.145-0.258l-9.375-5.409c-0.087-0.05-0.202-0.05-0.29,0
		l-9.371,5.41c-0.092,0.052-0.149,0.154-0.149,0.257V36.4c0,0.104,0.057,0.201,0.149,0.251l2.568,1.484
		c1.395,0.695,2.247-0.124,2.247-0.949V26.501c0-0.15,0.121-0.271,0.271-0.271h1.19c0.148,0,0.271,0.12,0.271,0.271v10.686
		c0,1.86-1.014,2.928-2.776,2.928c-0.541,0-0.968,0-2.159-0.587l-2.46-1.416c-0.607-0.352-0.984-1.008-0.984-1.711V25.577
		c0-0.703,0.376-1.359,0.984-1.709l9.378-5.419c0.594-0.336,1.383-0.336,1.972,0l9.377,5.419c0.608,0.351,0.986,1.007,0.986,1.709
		V36.4c0,0.703-0.377,1.356-0.986,1.711l-9.377,5.415C145.828,43.699,145.489,43.789,145.142,43.789z"/>
	<path fill="#8CC84B" d="M148.039,36.331c-4.105,0-4.965-1.883-4.965-3.462c0-0.151,0.121-0.271,0.271-0.271h1.213
		c0.135,0,0.248,0.098,0.269,0.229c0.185,1.234,0.729,1.858,3.212,1.858c1.976,0,2.815-0.447,2.815-1.494
		c0-0.604-0.237-1.054-3.31-1.354c-2.564-0.254-4.151-0.821-4.151-2.874c0-1.892,1.595-3.021,4.269-3.021
		c3.005,0,4.492,1.042,4.68,3.28c0.007,0.077-0.021,0.151-0.071,0.209c-0.052,0.053-0.123,0.086-0.198,0.086h-1.218
		c-0.126,0-0.237-0.09-0.263-0.212c-0.293-1.299-1.003-1.714-2.93-1.714c-2.158,0-2.408,0.752-2.408,1.315
		c0,0.681,0.296,0.881,3.21,1.267c2.88,0.381,4.252,0.919,4.252,2.945C152.715,35.162,151.011,36.331,148.039,36.331z"/>
	<g>
		<path fill="#8CC84B" d="M160.97,18.474v0.277h-0.787v2.057h-0.319v-2.057h-0.786v-0.277H160.97z"/>
		<path fill="#8CC84B" d="M161.252,18.474h0.454l0.67,1.973l0.668-1.973h0.449v2.334h-0.301v-1.377c0-0.048,0-0.126,0.002-0.236
			c0.003-0.111,0.005-0.23,0.005-0.355l-0.668,1.969h-0.312l-0.674-1.969v0.07c0,0.058,0,0.145,0.005,0.263
			c0.001,0.116,0.005,0.203,0.005,0.258v1.377h-0.303V18.474L161.252,18.474z"/>
	</g>
	<path fill="#8CC84B" d="M115.198,28.695c0.072-0.04,0.16-0.04,0.231,0l1.907,1.102c0.072,0.041,0.116,0.116,0.116,0.199V32.2
		c0,0.083-0.044,0.159-0.116,0.2l-1.907,1.102c-0.071,0.041-0.159,0.041-0.231,0L113.29,32.4c-0.071-0.041-0.115-0.117-0.115-0.2
		v-2.204c0-0.083,0.044-0.158,0.115-0.199L115.198,28.695z"/>
</g>
</svg>
