<svg xmlns="http://www.w3.org/2000/svg" width="114.826" height="57.5" viewBox="0 -9.5 114.826 57.5" enable-background="new 0 -9.5 114.826 57.5"><g fill="#E16120"><path d="M110.96 8.022h-.664V7.49h1.865v.533h-.666v1.6h-.665v-1.6h.13zM112.43 7.49h.665l.53.8.534-.8h.666v2.13h-.533V8.423l-.667.933-.53-.8v1.2h-.536V7.49h-.13z"/></g><path fill="#E16120" d="M40.093 11.62c-.53-.8-1.598-.933-2.797-.8-.934.133-1.733.4-1.867.533-.267.133-.267.4-.267.533 0 .4.4.8.134 2.53-.134.934-1.6 8.926-1.6 8.926-.797.4-1.73.8-2.396.8-1.2 0-1.73-.534-1.464-2.266s1.332-7.593 1.332-7.593c.134-1.066.134-1.866-.133-2.398-.53-.8-1.6-1.065-2.797-.932-.933.133-1.73.4-1.865.533-.268.134-.268.4-.268.533 0 .398.4.798.134 2.53-.534 3.064-1.333 7.594-1.466 8.525-.533 3.464.533 5.995 3.863 5.995.8 0 2.797-.532 4.664-1.332 0 .267.133.533.268.666.933 1.466 3.995.8 4.793.398.27-.133.27-.398.27-.53 0-.4-.4-.802-.133-2.534.132-.932 2-11.455 2-11.455-.003-1.2-.003-2.13-.404-2.663zM91.913 3.626c-.533-.8-1.6-1.066-2.797-.933-.934.133-1.733.4-1.865.533-.267.133-.267.4-.267.533 0 .4.398.798.134 2.53-.134.666-3.464 19.448-3.464 19.448-.133 1.066-.133 1.867.135 2.398.53.8 1.598 1.067 2.797.934.932-.133 1.73-.4 1.864-.532.265-.134.265-.4.265-.534 0-.398-.4-.8-.132-2.53.132-.934 3.463-19.45 3.463-19.45.266-.933.135-1.865-.133-2.398zM111.628 23.075c-.8-.532-1.6-.666-1.865-.8-.266 0-.398.134-.533.268-.13.266-.933 2.396-3.862 4.795.133-1.064 2.264-13.188 2.264-13.188.27-1.066.27-2-.132-2.53-.535-.8-1.6-1.067-2.8-.934-.93.133-1.73.4-1.864.532-.133.267-.266.4-.266.666 0 .4.266.667.132 2l-1.597 9.324c-.8.533-1.733.8-2.53.8-1.2 0-1.732-.533-1.466-2.266.265-1.332 1.33-7.592 1.33-7.592.135-1.066.135-1.865-.134-2.398-.8-1.464-3.73-1.065-4.662-.4-.267.134-.267.4-.267.534 0 .4.4.8.134 2.265-.532 3.064-1.465 7.86-1.6 8.926-.532 3.464.534 5.994 3.864 5.994.8 0 2.664-.53 4.53-1.332l-.4 2.664c-.27.135-5.063 1.732-7.062 2.666-3.597 1.6-5.328 6.26-2.53 9.19 2.665 2.933 7.06 1.333 8.525.27 3.332-2.267 4.795-6.13 5.728-9.86 4.53-2.396 7.328-5.06 7.328-5.06.8-.67 1.332-1.335 1.463-2 .002-1.067-.662-1.867-1.728-2.533zm-14.52 15.32c-.8.666-1.866.533-2.266 0-.398-.398-.533-1.73 1.465-2.397 1.467-.534 2.932-1.2 2.932-1.2-.4 1.466-1.333 3.065-2.132 3.597zM82.32 16.148c.4-1.865.134-3.064-.267-3.863-.666-1.332-1.73-1.598-3.063-1.732-1.6-.133-4.128 1.066-5.595 1.865-.4-1.065-1.598-1.865-3.196-1.865-1.866 0-4.53 1.332-5.463 1.865-.533-1.332-1.73-1.73-3.064-1.865-1.865-.133-4.262 1.066-5.596 1.865-.53-1.332-1.73-1.73-3.062-1.865-1.6-.133-3.464.8-5.062 1.466-.4-1.2-1.73-1.333-2.93-1.2-.933.133-1.734.4-1.866.533-.267.133-.267.4-.267.533 0 .4.267.667.133 2l-2.13 11.988c-.134 1.065-.134 1.864.132 2.397.533.8 1.6 1.067 2.8.935.93-.135 1.73-.4 1.863-.534.266-.13.266-.398.266-.53 0-.4-.4-.934-.132-1.866l1.73-9.858c.668-.532 1.732-.932 2.267-.932 1.065 0 1.464.666 1.197 2.132l-1.465 8.26c-.133 1.064-.133 1.863.132 2.396.535.8 1.6 1.066 2.798.934.933-.135 1.73-.4 1.865-.534.268-.132.268-.4.268-.532 0-.4-.4-.8-.134-1.865.267-1.064 1.733-9.99 1.733-9.99.665-.534 1.73-.933 2.265-.933 1.065 0 1.465.666 1.197 2.13-.398 2.665-.132.534-1.465 8.26-.134 1.066-.134 1.865.135 2.398.532.8 1.598 1.066 2.8.932.93-.13 1.728-.398 1.862-.53.266-.136.266-.4.266-.535 0-.4-.266-.666-.13-2l1.73-9.724c.397-.266 1.6-.932 2.265-.932 1.066 0 1.332.8 1.066 2.266-.135.8-1.467 8.125-1.467 8.125-.135 1.067-.135 1.868.133 2.4.398.665 1.197.933 2.266.933h.53c.935-.133 1.73-.4 1.866-.532.268-.133.268-.4.268-.533 0-.398-.4-.8-.134-2.53 0-.134.533-3.465 1.065-6.128l.534-3.198c.668-.533 1.73-.933 2.264-.933 1.066 0 1.466.665 1.2 2.13l-1.333 8.26c-.13 1.065-.13 1.864.135 2.397.533.8 1.6 1.064 2.797.934.934-.134 1.732-.398 1.865-.534.27-.133.27-.398.27-.53 0-.4-.402-.802-.135-2.532.397.13 1.992-9.196 1.992-9.196zM33.43 34.13c0-.264-.263-.397-.398-.397-.4-.133-.8 0-1.865-.532-.932-.4-5.062-2.396-10.79-3.064l4.13-23.712c.132-1.065.132-1.865-.134-2.397-.533-.8-1.6-1.065-2.797-.933-.934.134-1.732.4-1.866.534-.266.133-.266.4-.266.533 0 .4.4.8.134 2.532 0 .4-1.465 7.993-2.53 14.387-3.066 1.864-7.062 2.663-7.995 1.598-.4-.532-.266-1.6.133-3.063.134-.4 1.865-7.06 2.398-9.06.798-3.862.132-7.326-3.73-7.592-3.33-.268-6.527 1.597-7.46 2.663-.666.8-.4 1.598.133 2.665.534.798 1.2 1.33 1.333 1.464.267.133.533.133.533 0 1.066-1.2 3.198-2.13 3.864-1.6.666.534.4 1.467.133 2.4 0 0-2.13 8.125-3.064 11.59-.666 2.53 0 4.793 1.865 5.86 1.333.8 3.33.8 4.93.534 3.463-.4 5.462-1.866 5.862-2.134-.4 2.134-.667 3.598-.667 3.598s-3.862.398-7.06 2.266c-4.263 2.53-5.862 8.26-3.198 11.188 2.665 2.93 7.46 1.866 9.326.534 1.866-1.2 4.262-3.864 5.328-9.725 6.395.266 7.994 3.596 10.66 3.73 1.995 0 3.328-1.865 3.06-3.864zm-21.578 5.73c-.933.532-1.865.532-2.398 0-.532-.665-.8-4.396 5.195-5.595-.002 0-.934 4.53-2.798 5.596z"/></svg>