<?xml version="1.0" encoding="utf-8"?>
<!-- Generator: Adobe Illustrator 16.0.4, SVG Export Plug-In . SVG Version: 6.00 Build 0)  -->
<!DOCTYPE svg PUBLIC "-//W3C//DTD SVG 1.1//EN" "http://www.w3.org/Graphics/SVG/1.1/DTD/svg11.dtd">
<svg version="1.1" id="Layer_1" xmlns="http://www.w3.org/2000/svg" xmlns:xlink="http://www.w3.org/1999/xlink" x="0px" y="0px"
	 width="137.568px" height="48px" viewBox="0 0 137.568 48" enable-background="new 0 0 137.568 48" xml:space="preserve">
<path fill-rule="evenodd" clip-rule="evenodd" fill="#333333" d="M38.857,0h-27.43L0,18.286L4.57,48h8.145l-0.572-6.857h4L16.715,48
	h16.857l0.57-6.857h4L37.572,48h8.143l4.57-29.714L38.857,0z M38.857,36.571h-27.43L9.143,18.286l4.572-9.143h7.346l-0.488,3.429
	h9.143l-0.49-3.429h7.346l4.572,9.143L38.857,36.571z M32.57,22c0.633,0,1.145,1.903,1.145,4.251s-0.512,4.251-1.145,4.251
	c-0.631,0-1.143-1.903-1.143-4.251S31.939,22,32.57,22z M18.143,22.354c0.631,0,1.143,1.903,1.143,4.251
	c0,2.348-0.512,4.252-1.143,4.252S17,28.954,17,26.605C17,24.258,17.512,22.354,18.143,22.354z"/>
<g>
	<path fill="#333333" d="M60.279,15.255h0.725l1.496,3.888h-0.729l-0.365-1.029h-1.553l-0.363,1.029h-0.703L60.279,15.255z
		 M60.039,17.597h1.188l-0.582-1.671h-0.018L60.039,17.597z"/>
	<path fill="#333333" d="M62.926,15.255h1.715c0.275,0,0.5,0.041,0.674,0.12c0.176,0.08,0.309,0.18,0.404,0.299
		c0.094,0.12,0.158,0.25,0.193,0.392c0.033,0.142,0.051,0.272,0.051,0.392c0,0.12-0.018,0.25-0.051,0.389
		c-0.035,0.14-0.1,0.27-0.193,0.389c-0.096,0.12-0.229,0.219-0.404,0.297c-0.174,0.078-0.398,0.117-0.674,0.117h-1.035v1.492h-0.68
		V15.255z M63.605,17.096h0.996c0.076,0,0.154-0.011,0.234-0.032c0.08-0.022,0.154-0.058,0.221-0.106s0.121-0.114,0.164-0.196
		c0.041-0.082,0.062-0.185,0.062-0.308c0-0.126-0.018-0.232-0.055-0.315s-0.086-0.15-0.146-0.199
		c-0.062-0.049-0.133-0.083-0.213-0.101s-0.164-0.027-0.256-0.027h-1.008V17.096z"/>
	<path fill="#333333" d="M67.248,15.255h0.725l1.496,3.888H68.74l-0.365-1.029h-1.551l-0.365,1.029h-0.703L67.248,15.255z
		 M67.01,17.597h1.186l-0.582-1.671h-0.018L67.01,17.597z"/>
	<path fill="#333333" d="M72.52,16.492c-0.029-0.113-0.07-0.216-0.121-0.311s-0.115-0.176-0.195-0.245
		c-0.08-0.069-0.174-0.122-0.281-0.161c-0.105-0.038-0.23-0.057-0.373-0.057c-0.207,0-0.385,0.042-0.535,0.125
		s-0.273,0.195-0.367,0.335c-0.096,0.14-0.166,0.298-0.211,0.476c-0.045,0.178-0.068,0.359-0.068,0.544s0.023,0.367,0.068,0.544
		c0.045,0.178,0.115,0.337,0.211,0.477c0.094,0.14,0.217,0.251,0.367,0.335s0.328,0.125,0.535,0.125
		c0.154,0,0.287-0.026,0.404-0.079c0.115-0.052,0.215-0.125,0.299-0.217c0.084-0.093,0.148-0.201,0.195-0.324
		c0.049-0.123,0.078-0.256,0.094-0.397h0.664c-0.016,0.232-0.064,0.445-0.15,0.637c-0.084,0.192-0.199,0.358-0.346,0.498
		c-0.145,0.14-0.316,0.248-0.512,0.324c-0.195,0.077-0.412,0.115-0.648,0.115c-0.289,0-0.551-0.054-0.781-0.161
		c-0.23-0.107-0.424-0.253-0.584-0.438s-0.283-0.401-0.367-0.648c-0.086-0.247-0.129-0.51-0.129-0.79
		c0-0.276,0.043-0.537,0.129-0.784c0.084-0.247,0.207-0.462,0.367-0.647c0.16-0.186,0.354-0.332,0.584-0.441
		c0.23-0.109,0.492-0.163,0.781-0.163c0.219,0,0.424,0.03,0.617,0.09c0.191,0.06,0.361,0.147,0.508,0.261s0.266,0.253,0.357,0.417
		c0.09,0.164,0.146,0.351,0.168,0.561H72.52z"/>
	<path fill="#333333" d="M73.863,15.255h0.682v1.546h1.77v-1.546h0.68v3.888h-0.68V17.39h-1.77v1.753h-0.682V15.255z"/>
	<path fill="#333333" d="M77.865,15.255h2.799v0.588h-2.119v1.018h1.961v0.555h-1.961v1.138h2.158v0.588h-2.838V15.255z"/>
</g>
<g>
	<path fill="#333333" d="M132.596,21.252h1.992v0.373h-0.783v2.089h-0.432v-2.089h-0.777V21.252z"/>
	<path fill="#333333" d="M135.014,21.252h0.607l0.678,1.927h0.008l0.662-1.927h0.6v2.462h-0.41v-1.9h-0.008l-0.682,1.9h-0.355
		l-0.684-1.9h-0.006v1.9h-0.41V21.252z"/>
</g>
<g>
	<path fill="#333333" d="M66.752,23.446c-0.219-0.346-0.484-0.636-0.799-0.87c-0.314-0.234-0.66-0.413-1.037-0.535
		c-0.379-0.123-0.775-0.184-1.189-0.184c-0.758,0-1.406,0.144-1.949,0.431s-0.988,0.668-1.334,1.142
		c-0.346,0.474-0.602,1.009-0.766,1.605c-0.166,0.596-0.248,1.208-0.248,1.836c0,0.618,0.082,1.228,0.248,1.829
		c0.164,0.602,0.42,1.14,0.766,1.613s0.791,0.854,1.334,1.142c0.543,0.287,1.191,0.431,1.949,0.431c0.531,0,1.012-0.096,1.436-0.288
		c0.428-0.191,0.795-0.453,1.104-0.783c0.309-0.33,0.559-0.716,0.75-1.158s0.314-0.918,0.367-1.429h1.086
		c-0.074,0.702-0.238,1.336-0.494,1.9s-0.586,1.043-0.99,1.438s-0.881,0.697-1.43,0.91s-1.158,0.319-1.828,0.319
		c-0.895,0-1.68-0.163-2.357-0.487c-0.676-0.324-1.236-0.758-1.684-1.301s-0.783-1.171-1.006-1.885
		c-0.225-0.713-0.336-1.464-0.336-2.252c0-0.788,0.111-1.538,0.336-2.252c0.223-0.713,0.559-1.344,1.006-1.893
		s1.008-0.984,1.684-1.31c0.678-0.325,1.463-0.487,2.357-0.487c0.543,0,1.072,0.08,1.588,0.24c0.518,0.16,0.984,0.397,1.406,0.711
		c0.42,0.314,0.771,0.7,1.055,1.158c0.281,0.458,0.459,0.985,0.533,1.581h-1.084C67.127,24.184,66.971,23.792,66.752,23.446z"/>
	<path fill="#333333" d="M70.053,24.62c0.225-0.713,0.561-1.344,1.006-1.893c0.447-0.548,1.01-0.984,1.686-1.31
		c0.676-0.325,1.461-0.487,2.355-0.487s1.678,0.163,2.348,0.487c0.672,0.325,1.23,0.761,1.678,1.31s0.783,1.18,1.006,1.893
		c0.225,0.714,0.336,1.464,0.336,2.252c0,0.788-0.111,1.539-0.336,2.252c-0.223,0.713-0.559,1.342-1.006,1.885
		s-1.006,0.977-1.678,1.301c-0.67,0.325-1.453,0.487-2.348,0.487s-1.68-0.163-2.355-0.487c-0.676-0.324-1.238-0.758-1.686-1.301
		c-0.445-0.543-0.781-1.171-1.006-1.885c-0.223-0.713-0.334-1.464-0.334-2.252C69.719,26.084,69.83,25.333,70.053,24.62z
		 M71.051,28.7c0.166,0.602,0.422,1.14,0.768,1.613s0.791,0.854,1.334,1.142c0.543,0.287,1.191,0.431,1.947,0.431
		s1.404-0.144,1.941-0.431c0.537-0.288,0.979-0.668,1.326-1.142c0.346-0.474,0.6-1.011,0.766-1.613
		c0.164-0.601,0.248-1.211,0.248-1.829c0-0.628-0.084-1.24-0.248-1.836c-0.166-0.596-0.42-1.131-0.766-1.605
		c-0.348-0.474-0.789-0.854-1.326-1.142s-1.186-0.431-1.941-0.431S73.695,22,73.152,22.288s-0.988,0.668-1.334,1.142
		c-0.346,0.474-0.602,1.009-0.768,1.605c-0.164,0.596-0.246,1.208-0.246,1.836C70.805,27.489,70.887,28.099,71.051,28.7z"/>
	<path fill="#333333" d="M87.562,21.17c0.469,0,0.912,0.059,1.334,0.176c0.42,0.117,0.787,0.295,1.102,0.535
		c0.314,0.239,0.564,0.548,0.75,0.926c0.188,0.378,0.279,0.823,0.279,1.333c0,0.724-0.186,1.353-0.559,1.885
		s-0.926,0.873-1.66,1.022v0.032c0.373,0.054,0.682,0.152,0.926,0.296c0.244,0.144,0.445,0.327,0.6,0.551s0.266,0.482,0.334,0.774
		c0.07,0.293,0.115,0.61,0.137,0.951c0.01,0.191,0.021,0.426,0.031,0.703c0.012,0.277,0.033,0.556,0.064,0.838
		s0.082,0.548,0.152,0.798c0.068,0.25,0.162,0.445,0.279,0.583h-1.197c-0.064-0.106-0.115-0.237-0.152-0.391
		s-0.064-0.314-0.08-0.479s-0.029-0.328-0.039-0.487c-0.012-0.16-0.021-0.298-0.033-0.415c-0.021-0.405-0.055-0.807-0.104-1.206
		c-0.047-0.399-0.148-0.756-0.303-1.07c-0.156-0.314-0.379-0.567-0.672-0.759s-0.695-0.277-1.205-0.256h-4.121v5.063H82.34V21.17
		H87.562z M87.482,26.584c0.33,0,0.645-0.05,0.941-0.151c0.299-0.101,0.561-0.248,0.783-0.439c0.225-0.191,0.402-0.423,0.535-0.695
		s0.199-0.583,0.199-0.934c0-0.703-0.201-1.256-0.605-1.661c-0.406-0.404-1.023-0.607-1.854-0.607h-4.057v4.488H87.482z"/>
	<path fill="#333333" d="M97.111,21.17c1.736,0.043,3.043,0.53,3.922,1.461c0.877,0.932,1.316,2.345,1.316,4.24
		c0,1.896-0.439,3.309-1.316,4.24c-0.879,0.932-2.186,1.419-3.922,1.461h-3.945V21.17H97.111z M96.568,31.647
		c0.82,0,1.525-0.088,2.117-0.263c0.59-0.176,1.078-0.456,1.461-0.839s0.664-0.878,0.846-1.485s0.271-1.336,0.271-2.188
		c0-0.852-0.09-1.581-0.271-2.188s-0.463-1.102-0.846-1.485s-0.871-0.663-1.461-0.838c-0.592-0.176-1.297-0.264-2.117-0.264h-2.314
		v9.551H96.568z"/>
	<path fill="#333333" d="M104.049,24.62c0.225-0.713,0.561-1.344,1.006-1.893c0.447-0.548,1.01-0.984,1.686-1.31
		c0.676-0.325,1.461-0.487,2.355-0.487s1.678,0.163,2.348,0.487c0.672,0.325,1.23,0.761,1.678,1.31s0.783,1.18,1.006,1.893
		c0.225,0.714,0.336,1.464,0.336,2.252c0,0.788-0.111,1.539-0.336,2.252c-0.223,0.713-0.559,1.342-1.006,1.885
		s-1.006,0.977-1.678,1.301c-0.67,0.325-1.453,0.487-2.348,0.487s-1.68-0.163-2.355-0.487c-0.676-0.324-1.238-0.758-1.686-1.301
		c-0.445-0.543-0.781-1.171-1.006-1.885c-0.223-0.713-0.336-1.464-0.336-2.252C103.713,26.084,103.826,25.333,104.049,24.62z
		 M105.047,28.7c0.166,0.602,0.42,1.14,0.768,1.613c0.346,0.474,0.791,0.854,1.334,1.142c0.543,0.287,1.191,0.431,1.947,0.431
		s1.404-0.144,1.941-0.431c0.537-0.288,0.979-0.668,1.324-1.142c0.348-0.474,0.602-1.011,0.768-1.613
		c0.164-0.601,0.248-1.211,0.248-1.829c0-0.628-0.084-1.24-0.248-1.836c-0.166-0.596-0.42-1.131-0.768-1.605
		c-0.346-0.474-0.787-0.854-1.324-1.142s-1.186-0.431-1.941-0.431s-1.404,0.144-1.947,0.431s-0.988,0.668-1.334,1.142
		c-0.348,0.474-0.602,1.009-0.768,1.605c-0.164,0.596-0.246,1.208-0.246,1.836C104.801,27.489,104.883,28.099,105.047,28.7z"/>
	<path fill="#333333" d="M115.824,21.17l3.707,10.206h0.031l3.672-10.206h1.15l-4.232,11.403h-1.26l-4.217-11.403H115.824z"/>
	<path fill="#333333" d="M129.146,21.17l4.471,11.403h-1.164l-1.391-3.545h-5.191l-1.373,3.545h-1.148l4.582-11.403H129.146z
		 M130.695,28.102l-2.203-5.846l-2.285,5.846H130.695z"/>
</g>
</svg>
