<?xml version="1.0" encoding="utf-8"?>
<!-- Generator: Adobe Illustrator 16.0.4, SVG Export Plug-In . SVG Version: 6.00 Build 0)  -->
<!DOCTYPE svg PUBLIC "-//W3C//DTD SVG 1.1//EN" "http://www.w3.org/Graphics/SVG/1.1/DTD/svg11.dtd">
<svg version="1.1" id="Layer_1" xmlns="http://www.w3.org/2000/svg" xmlns:xlink="http://www.w3.org/1999/xlink" x="0px" y="0px"
	 width="160px" height="160px" viewBox="0 0 160 160" enable-background="new 0 0 160 160" xml:space="preserve">
<path fill="#C43E23" d="M80,2c43.01,0,78,34.991,78,78c0,43.01-34.99,78-78,78c-43.009,0-78-34.99-78-78C2,36.991,36.991,2,80,2
	 M80,0C35.817,0,0,35.817,0,80s35.817,80,80,80s80-35.817,80-80S124.183,0,80,0L80,0z"/>
<path fill="#C43E23" d="M80,19c33.636,0,61,27.364,61,61s-27.364,61-61,61s-61-27.364-61-61S46.364,19,80,19 M80,17
	c-34.794,0-63,28.206-63,63s28.206,63,63,63s63-28.206,63-63S114.794,17,80,17L80,17z"/>
<path fill="#C43E23" d="M80,35c24.812,0,45,20.187,45,45c0,24.813-20.188,45-45,45c-24.813,0-45-20.187-45-45
	C35,55.187,55.187,35,80,35 M80,33c-25.957,0-47,21.043-47,47s21.043,47,47,47s47-21.043,47-47S105.957,33,80,33L80,33z"/>
<path fill="#C43E23" d="M80,51c15.99,0,29,13.009,29,29c0,15.99-13.01,29-29,29c-15.991,0-29-13.01-29-29C51,64.009,64.009,51,80,51
	 M80,49c-17.121,0-31,13.879-31,31c0,17.121,13.879,31,31,31c17.121,0,31-13.879,31-31C111,62.879,97.121,49,80,49L80,49z"/>
<path fill="#C43E23" d="M80,66c7.72,0,14,6.28,14,14s-6.28,14-14,14s-14-6.28-14-14S72.28,66,80,66 M80,64c-8.836,0-16,7.164-16,16
	s7.164,16,16,16c8.836,0,16-7.164,16-16S88.836,64,80,64L80,64z"/>
</svg>
