<?xml version="1.0" encoding="utf-8"?>
<!-- Generator: Adobe Illustrator 16.0.4, SVG Export Plug-In . SVG Version: 6.00 Build 0)  -->
<!DOCTYPE svg PUBLIC "-//W3C//DTD SVG 1.1//EN" "http://www.w3.org/Graphics/SVG/1.1/DTD/svg11.dtd">
<svg version="1.1" id="Layer_1" xmlns="http://www.w3.org/2000/svg" xmlns:xlink="http://www.w3.org/1999/xlink" x="0px" y="0px"
	 width="160px" height="160px" viewBox="0 0 160 160" enable-background="new 0 0 160 160" xml:space="preserve">
<g>
	<g>
		<polygon fill="#00AC9D" points="82.51,138.392 83.837,136.392 76.163,136.392 77.49,138.392 		"/>
	</g>
	<g>
		<polygon fill="#00AC9D" points="54.402,103.597 55.729,105.597 104.271,105.597 105.598,103.597 		"/>
	</g>
	<g>
		<polygon fill="#00AC9D" points="65.283,119.994 66.609,121.994 93.391,121.994 94.718,119.994 		"/>
	</g>
	<g>
		<polygon fill="#00AC9D" points="158.673,23.608 160,21.608 0,21.608 1.327,23.608 		"/>
	</g>
	<g>
		<polygon fill="#00AC9D" points="43.521,87.199 44.849,89.199 115.151,89.199 116.479,87.199 		"/>
	</g>
	<g>
		<polygon fill="#00AC9D" points="21.761,54.403 23.088,56.403 136.912,56.403 138.239,54.403 		"/>
	</g>
	<g>
		<polygon fill="#00AC9D" points="10.881,38.006 12.207,40.006 147.793,40.006 149.119,38.006 		"/>
	</g>
	<g>
		<polygon fill="#00AC9D" points="32.641,70.801 33.969,72.801 126.032,72.801 127.359,70.801 		"/>
	</g>
</g>
</svg>
