<svg xmlns="http://www.w3.org/2000/svg" width="1200" height="432.654" viewBox="0 0 1200 432.654"><g><path fill="#11BA71" d="M432.95 223.54c-213.968 29.513-323.946-7.548-432.884-6.3v133.168H1200V1.595C875.06 40.37 686.68 188.54 432.95 223.54z"/><path fill="#338CC2" d="M432.95 291.07C218.983 320.586 109.005 300.373.067 301.62v80.446H1200v-229.23c-328.436 0-513.32 103.24-767.05 138.237z"/><path fill="#EE5B30" d="M522.5 358.73c-213.972 29.513-413.496 1.577-522.433 2.823v71.1H1200v-159.63c-96.742 2.727-423.773 50.71-677.5 85.706z"/><path fill-opacity=".3" d="M1200 0c-42.033 5.022-82.756 11.933-124.482 21.125-37.03 8.158-73.88 17.91-112.652 29.813-71.768 22.035-137.627 47.69-201.316 72.5-108.777 42.374-211.523 82.4-328.15 98.493-55.744 7.693-108.202 11.433-160.37 11.433-62.397 0-114.333-5.424-160.154-10.21-37.224-3.888-72.384-7.56-106.606-7.56-1.824 0-3.662.01-5.457.03l-.813.012v1.556h1.634v.035c1.47-.014 3.085-.02 4.63-.02 34.136 0 69.255 3.666 106.436 7.55 45.862 4.79 97.844 10.22 160.325 10.22 52.246 0 104.78-3.745 160.6-11.448 116.82-16.12 219.652-56.18 328.523-98.59 63.662-24.8 129.492-50.444 201.2-72.46 38.73-11.892 75.51-21.633 112.497-29.78 41.41-9.124 81.84-15.996 123.502-21.004v-.098h.653V0z"/><g opacity=".5" fill="#fff"><path d="M40.47 259.582c0-.104.093-.196.196-.196h.958c.113 0 .196.093.196.196v2.73h3.357v-2.73c0-.104.083-.196.196-.196h.948c.104 0 .197.093.197.196v6.818c0 .103-.093.195-.196.195h-.947c-.113 0-.196-.093-.196-.195v-2.843H41.82v2.843c0 .103-.083.195-.196.195h-.958c-.103 0-.195-.093-.195-.195v-6.818zM51.46 259.582c0-.104.082-.196.195-.196h4.192c.114 0 .196.093.196.196v.844c0 .104-.082.196-.196.196H52.8v1.688h2.543c.103 0 .196.093.196.196v.854c0 .113-.094.196-.197.196H52.8v1.802h3.047c.114 0 .196.093.196.196v.845c0 .102-.082.194-.196.194h-4.192c-.113 0-.195-.093-.195-.195v-6.818zM60.63 259.582c0-.104.083-.196.196-.196h.948c.103 0 .196.093.196.196v5.777h2.626c.113 0 .195.092.195.195v.845c0 .103-.08.195-.194.195h-3.77c-.113 0-.195-.093-.195-.195v-6.818zM68.88 259.582c0-.104.082-.196.195-.196h2.42c1.267 0 2.307 1.03 2.307 2.276 0 1.277-1.04 2.317-2.297 2.317h-1.287v2.42c0 .103-.093.195-.196.195h-.948c-.113 0-.195-.093-.195-.195v-6.818zm2.534 3.14c.577 0 1.06-.462 1.06-1.07 0-.566-.483-1-1.06-1H70.22v2.07h1.194zM77.995 259.582c0-.104.082-.196.195-.196h4.192c.113 0 .196.093.196.196v.844c0 .104-.083.196-.196.196h-3.048v1.937h2.544c.103 0 .196.092.196.194v.845c0 .102-.093.194-.196.194h-2.544v2.606c0 .103-.093.195-.196.195h-.948c-.113 0-.195-.093-.195-.195v-6.818zM86.71 259.582c0-.104.092-.196.195-.196h.98c.112 0 .195.093.195.196v4.212c0 .876.598 1.565 1.494 1.565s1.503-.69 1.503-1.556v-4.223c0-.103.083-.195.196-.195h.98c.102 0 .195.093.195.196v4.285c0 1.565-1.247 2.832-2.874 2.832-1.617 0-2.863-1.267-2.863-2.832v-4.283zM97.312 259.582c0-.104.082-.196.195-.196h.948c.103 0 .196.093.196.196v5.777h2.627c.113 0 .195.092.195.195v.845c0 .103-.082.195-.195.195h-3.77c-.113 0-.195-.093-.195-.195v-6.818zM105.37 265.586l.372-.64c.083-.143.257-.143.35-.07.052.03.886.64 1.555.64.536 0 .938-.352.938-.795 0-.523-.443-.885-1.308-1.234-.968-.392-1.937-1.01-1.937-2.225 0-.916.68-1.977 2.317-1.977 1.05 0 1.854.535 2.06.69.103.06.134.236.062.34l-.393.587c-.082.123-.237.206-.36.123-.083-.052-.865-.566-1.432-.566-.587 0-.906.392-.906.72 0 .485.38.815 1.214 1.155 1 .4 2.152 1 2.152 2.327 0 1.06-.917 2.038-2.37 2.038-1.297 0-2.06-.607-2.265-.803-.09-.092-.142-.144-.05-.31z"/></g><g opacity=".5" fill="#fff"><path d="M43.664 330.007c1.04 0 1.792.33 2.492.958.093.082.093.206.01.288l-.628.648c-.072.084-.175.084-.258 0-.433-.38-1.01-.606-1.586-.606-1.318 0-2.297 1.103-2.297 2.4 0 1.287.99 2.38 2.307 2.38.618 0 1.143-.238 1.576-.588.083-.072.196-.062.258 0l.638.66c.083.07.062.205-.01.276-.7.68-1.586 1-2.502 1-2.06 0-3.718-1.638-3.718-3.698s1.658-3.717 3.718-3.717zM53.595 330.007c2.06 0 3.708 1.658 3.708 3.718s-1.648 3.697-3.708 3.697c-2.06 0-3.698-1.637-3.698-3.697s1.638-3.718 3.698-3.718zm0 6.076c1.297 0 2.37-1.06 2.37-2.358s-1.072-2.38-2.37-2.38-2.36 1.082-2.36 2.38 1.062 2.358 2.36 2.358zM62.427 330.16c.01-.08.072-.153.186-.153h.165c.082 0 .144.04.175.103l2.266 4.86h.03l2.266-4.86c.03-.062.082-.103.175-.103h.166c.113 0 .175.072.185.154l1.217 6.922c.03.145-.052.237-.186.237h-.937c-.093 0-.175-.083-.195-.155l-.608-3.903h-.03l-1.804 4.047c-.02.06-.082.112-.175.112h-.185c-.093 0-.144-.05-.175-.113l-1.823-4.048h-.03l-.6 3.903c-.01.072-.092.154-.185.154h-.927c-.134 0-.216-.094-.196-.238l1.227-6.92zM74.532 330.16c.01-.08.072-.153.186-.153h.165c.082 0 .144.04.175.103l2.266 4.86h.03l2.267-4.86c.032-.062.083-.103.176-.103h.165c.114 0 .176.072.186.154l1.216 6.922c.03.145-.052.237-.186.237h-.938c-.093 0-.175-.083-.195-.155l-.608-3.903h-.03L77.6 337.31c-.02.06-.08.112-.174.112h-.186c-.093 0-.144-.05-.175-.113l-1.823-4.048h-.03l-.6 3.903c-.01.072-.092.154-.185.154H73.5c-.134 0-.216-.094-.196-.238l1.228-6.92zM85.843 330.306c0-.104.082-.196.195-.196h4.192c.114 0 .196.093.196.196v.844c0 .104-.082.196-.196.196h-3.048v1.69h2.544c.103 0 .196.09.196.194v.854c0 .113-.093.196-.196.196h-2.544v1.802h3.048c.114 0 .196.093.196.196v.845c0 .103-.082.195-.196.195h-4.192c-.113 0-.195-.093-.195-.195v-6.817zM95.014 330.192c0-.104.092-.186.195-.186h.257l4.285 4.552h.01v-4.253c0-.104.082-.196.196-.196h.947c.103 0 .196.092.196.195v6.932c0 .103-.092.185-.195.185h-.247l-4.305-4.728h-.01v4.43c0 .103-.083.195-.196.195h-.938c-.104 0-.196-.094-.196-.196v-6.932zM106.98 331.346h-1.575c-.113 0-.196-.093-.196-.196v-.844c0-.104.082-.196.195-.196h4.5c.114 0 .197.093.197.196v.844c0 .104-.083.196-.196.196h-1.576v5.778c0 .103-.093.195-.196.195h-.958c-.103 0-.196-.094-.196-.196v-5.778zM113.96 336.31l.37-.638c.083-.145.257-.145.35-.072.052.03.886.64 1.555.64.536 0 .938-.352.938-.795 0-.524-.443-.886-1.308-1.235-.968-.392-1.937-1.01-1.937-2.225 0-.917.68-1.978 2.318-1.978 1.05 0 1.854.535 2.06.69.103.06.134.236.062.34l-.392.587c-.083.123-.237.206-.36.123-.083-.052-.865-.566-1.432-.566-.587 0-.906.393-.906.722 0 .484.38.814 1.215 1.154 1 .4 2.152 1 2.152 2.327 0 1.062-.917 2.04-2.37 2.04-1.297 0-2.06-.608-2.265-.804-.093-.094-.144-.145-.05-.31z"/></g><g opacity=".5" fill="#fff"><path d="M40.47 394.654c0-.104.083-.196.196-.196h2.946c1.236 0 2.246.99 2.246 2.215 0 .947-.628 1.72-1.524 2.08l1.41 2.616c.073.133 0 .298-.174.298h-1.082c-.093 0-.144-.052-.165-.093l-1.37-2.73H41.81v2.628c0 .103-.093.195-.196.195h-.948c-.113 0-.195-.093-.195-.195v-6.82zm3.03 3.09c.545 0 1.02-.475 1.02-1.05 0-.547-.475-1-1.02-1h-1.68v2.05h1.68zM50.418 394.654c0-.104.082-.196.195-.196h4.192c.114 0 .196.093.196.196v.844c0 .104-.08.196-.195.196h-3.048v1.688H54.3c.104 0 .197.093.197.196v.854c0 .113-.093.196-.196.196h-2.543v1.802h3.048c.114 0 .196.093.196.196v.845c0 .104-.08.196-.195.196h-4.192c-.113 0-.195-.093-.195-.195v-6.816zM59.14 400.658l.37-.64c.084-.143.258-.143.35-.07.053.03.887.64 1.556.64.536 0 .938-.352.938-.795 0-.524-.443-.886-1.308-1.235-.968-.392-1.937-1.01-1.937-2.225 0-.917.68-1.978 2.317-1.978 1.05 0 1.854.535 2.06.69.103.06.134.236.062.34l-.393.587c-.083.123-.237.206-.36.123-.083-.052-.865-.566-1.432-.566-.587 0-.906.39-.906.72 0 .484.38.814 1.214 1.154 1 .4 2.152 1 2.152 2.327 0 1.063-.917 2.04-2.37 2.04-1.297 0-2.06-.607-2.265-.803-.092-.092-.143-.144-.05-.31zM68.258 394.654c0-.104.082-.196.195-.196h2.42c1.267 0 2.307 1.03 2.307 2.276 0 1.277-1.04 2.317-2.297 2.317h-1.287v2.422c0 .103-.093.195-.196.195h-.948c-.113 0-.195-.093-.195-.195v-6.818zm2.534 3.14c.577 0 1.06-.462 1.06-1.07 0-.566-.483-1-1.06-1h-1.195v2.07h1.195zM80.726 394.355c2.06 0 3.708 1.658 3.708 3.718s-1.648 3.697-3.708 3.697c-2.06 0-3.698-1.637-3.698-3.697s1.638-3.718 3.698-3.718zm0 6.077c1.297 0 2.37-1.06 2.37-2.358s-1.072-2.38-2.37-2.38-2.36 1.082-2.36 2.38 1.062 2.358 2.36 2.358zM88.89 394.54c0-.103.093-.185.196-.185h.258l4.285 4.552h.01v-4.253c0-.104.082-.196.195-.196h.947c.103 0 .196.093.196.196v6.932c0 .103-.093.185-.196.185h-.247l-4.305-4.727h-.01v4.43c0 .103-.083.195-.196.195h-.938c-.103 0-.195-.093-.195-.195v-6.932zM99.548 400.658l.37-.64c.084-.143.258-.143.35-.07.053.03.887.64 1.556.64.536 0 .938-.352.938-.795 0-.524-.443-.886-1.308-1.235-.968-.392-1.937-1.01-1.937-2.225 0-.917.68-1.978 2.318-1.978 1.05 0 1.854.535 2.06.69.103.06.134.236.062.34l-.392.587c-.083.123-.237.206-.36.123-.083-.052-.865-.566-1.432-.566-.587 0-.906.39-.906.72 0 .484.38.814 1.215 1.154 1 .4 2.152 1 2.152 2.327 0 1.063-.917 2.04-2.37 2.04-1.297 0-2.06-.607-2.265-.803-.094-.092-.145-.144-.052-.31zM108.666 394.654c0-.104.082-.196.195-.196h4.193c.113 0 .196.093.196.196v.844c0 .104-.084.196-.197.196h-3.048v1.688h2.544c.102 0 .195.093.195.196v.854c0 .113-.093.196-.196.196h-2.545v1.802h3.048c.113 0 .196.093.196.196v.845c0 .104-.084.196-.197.196h-4.192c-.112 0-.194-.093-.194-.195v-6.816zM117.388 400.658l.37-.64c.084-.143.258-.143.35-.07.053.03.887.64 1.556.64.536 0 .938-.352.938-.795 0-.524-.443-.886-1.308-1.235-.968-.392-1.937-1.01-1.937-2.225 0-.917.68-1.978 2.318-1.978 1.05 0 1.854.535 2.06.69.103.06.134.236.062.34l-.392.587c-.083.123-.237.206-.36.123-.083-.052-.865-.566-1.432-.566-.587 0-.906.39-.906.72 0 .484.38.814 1.215 1.154 1 .4 2.152 1 2.152 2.327 0 1.063-.917 2.04-2.37 2.04-1.297 0-2.06-.607-2.265-.803-.094-.092-.145-.144-.052-.31z"/></g><path fill-opacity=".3" d="M332.847 186.943c-2.827 0-5.118 2.292-5.118 5.12v240.733h10.235V192.062c0-2.827-2.29-5.12-5.118-5.12z"/></g><g><path fill="#333" d="M469.847 44.103h-274c-1.657 0-3 1.343-3 3v124c0 1.657 1.343 3 3 3h132.497l4.503 5.984 4.503-5.984h132.497c1.657 0 3-1.343 3-3v-124c0-1.658-1.343-3-3-3z" opacity=".902"/><g fill="#fff"><path d="M212.468 69.647l-2.09-6.72h-.054c.075 1.366.113 2.278.113 2.735v3.984h-1.645V61.08h2.505l2.055 6.55h.035l2.18-6.55h2.505v8.566h-1.716V65.59c0-.19.003-.41.01-.66s.032-.915.08-1.993h-.054l-2.238 6.71h-1.686zM228.167 69.647l-.63-2.04h-3.164l-.63 2.04h-1.982l3.064-8.602h2.25l3.076 8.602h-1.983zm-1.068-3.562c-.583-1.848-.91-2.893-.983-3.135-.074-.242-.126-.434-.158-.574-.13.5-.505 1.736-1.123 3.71h2.262zM235.724 64.608l1.81-3.527h1.984l-2.88 5.233v3.334h-1.828v-3.275l-2.88-5.29h1.995l1.8 3.526zM253.757 62.997c0 .535-.165.99-.493 1.365-.33.375-.79.633-1.384.773v.035c.7.086 1.23.296 1.592.63.36.334.54.784.54 1.35 0 .825-.303 1.467-.908 1.926s-1.47.688-2.595.688c-.943 0-1.778-.154-2.507-.463v-1.54c.337.168.707.305 1.11.41.404.105.804.158 1.2.158.604 0 1.052-.102 1.34-.305s.435-.53.435-.98c0-.4-.166-.687-.5-.854-.33-.17-.86-.253-1.59-.253h-.66V64.55h.672c.673 0 1.165-.087 1.476-.26s.466-.473.466-.895c0-.648-.41-.973-1.234-.973-.285 0-.575.047-.87.14s-.622.257-.982.487l-.85-1.25c.792-.56 1.736-.843 2.832-.843.898 0 1.608.18 2.13.54s.78.86.78 1.5zM269.057 69.647h-6.067v-1.26l2.18-2.174c.644-.652 1.065-1.104 1.264-1.356.197-.252.34-.485.428-.7.087-.215.13-.438.13-.668 0-.345-.096-.6-.288-.77-.19-.167-.448-.25-.77-.25-.335 0-.662.075-.978.228s-.647.37-.99.65l-1-1.166c.43-.36.783-.613 1.063-.762.28-.148.587-.263.92-.343.332-.08.704-.12 1.116-.12.542 0 1.02.098 1.437.293.416.195.738.47.968.82s.346.754.346 1.207c0 .395-.07.765-.21 1.11s-.36.7-.654 1.063-.814.88-1.56 1.553l-1.115 1.037v.082h3.782v1.525zM278.586 65.364c0 1.496-.248 2.604-.745 3.322-.495.72-1.26 1.078-2.293 1.078-1.002 0-1.757-.37-2.266-1.113s-.762-1.837-.762-3.286c0-1.512.247-2.626.742-3.343.494-.716 1.257-1.074 2.286-1.074 1 0 1.758.375 2.27 1.125s.77 1.85.77 3.294zm-4.245 0c0 1.05.094 1.804.277 2.26.185.454.494.682.93.682.427 0 .735-.23.926-.69s.285-1.212.285-2.25c0-1.052-.096-1.807-.288-2.266s-.5-.688-.923-.688c-.432 0-.74.23-.927.688-.185.46-.28 1.213-.28 2.264zM286.516 69.647h-1.834V64.69l.018-.814.03-.89c-.306.3-.517.497-.636.59l-.997.792-.885-1.09 2.796-2.197h1.508v8.567zM297.265 67.872h-1.045v1.775h-1.793v-1.775h-3.705v-1.26l3.806-5.53h1.692v5.384h1.045v1.406zm-2.838-1.406v-1.453c0-.242.01-.594.03-1.055s.034-.73.047-.803h-.048c-.146.32-.322.633-.528.938l-1.592 2.373h2.09z"/></g><g fill="#fff"><path d="M441.23 69.647l-.866-2.38h-3.318l-.85 2.38H434.7l3.248-8.602h1.543l3.25 8.602h-1.51zm-1.24-3.585l-.813-2.332c-.06-.156-.142-.402-.246-.738-.104-.336-.177-.582-.216-.738-.107.48-.264 1.006-.47 1.576l-.783 2.232h2.53zM445.064 69.647l-2.493-6.48h1.474l1.336 3.768c.23.633.368 1.145.415 1.535h.048c.035-.28.174-.793.416-1.535l1.334-3.768h1.484l-2.505 6.48h-1.51zM455.644 63.167v.756l-1.122.205c.103.137.188.305.255.504s.102.41.102.633c0 .668-.235 1.193-.702 1.576s-1.11.575-1.93.575c-.21 0-.4-.016-.57-.047-.3.184-.45.398-.45.645 0 .148.07.26.21.334s.4.11.775.11h1.146c.724 0 1.273.153 1.65.458s.563.744.563 1.318c0 .734-.307 1.3-.92 1.7-.614.397-1.5.597-2.66.597-.895 0-1.577-.156-2.05-.47-.47-.31-.705-.757-.705-1.335 0-.398.128-.733.383-1.005s.613-.46 1.072-.565c-.186-.078-.34-.204-.46-.378-.12-.174-.18-.356-.18-.548 0-.243.068-.448.207-.616.137-.168.343-.334.616-.498-.34-.145-.616-.38-.828-.706s-.318-.708-.318-1.146c0-.703.225-1.248.675-1.635.448-.388 1.09-.58 1.92-.58.187 0 .38.012.585.037s.357.052.46.08h2.274zm-5.16 7.488c0 .297.135.525.406.686s.652.24 1.143.24c.76 0 1.326-.106 1.698-.32s.56-.5.56-.856c0-.28-.103-.48-.306-.6-.204-.12-.583-.18-1.138-.18h-1.057c-.4 0-.72.093-.954.278s-.352.437-.352.753zm.6-5.39c0 .406.105.72.317.938s.517.328.912.328c.808 0 1.21-.425 1.21-1.276 0-.422-.1-.747-.3-.976-.198-.23-.502-.343-.91-.343-.403 0-.71.113-.917.34s-.31.556-.31.99z"/></g><g fill="#fff"><path d="M376.845 69.647h-1.42v-7.365h-2.553v-1.2h6.525v1.2h-2.553v7.365zM385.497 66.396c0 1.06-.275 1.885-.825 2.48-.55.593-1.316.89-2.298.89-.614 0-1.156-.137-1.627-.41-.472-.273-.833-.666-1.087-1.178-.253-.512-.38-1.105-.38-1.78 0-1.052.273-1.872.82-2.462s1.315-.885 2.31-.885c.95 0 1.7.303 2.255.906.555.603.832 1.416.832 2.44zm-4.78 0c0 1.496.56 2.244 1.68 2.244 1.11 0 1.663-.748 1.663-2.244 0-1.48-.558-2.22-1.674-2.22-.586 0-1.01.19-1.273.573-.264.382-.396.93-.396 1.646zM389.343 69.765c-.82 0-1.458-.293-1.918-.88-.46-.585-.688-1.407-.688-2.466 0-1.063.232-1.89.698-2.482.465-.592 1.108-.888 1.932-.888.863 0 1.52.314 1.972.943h.07c-.067-.465-.1-.832-.1-1.102v-2.36h1.4v9.117h-1.093l-.244-.85h-.064c-.45.645-1.104.968-1.967.968zm.374-1.114c.574 0 .99-.158 1.253-.477s.396-.835.403-1.55v-.193c0-.816-.134-1.396-.403-1.74s-.69-.516-1.265-.516c-.49 0-.87.196-1.134.59-.265.392-.397.95-.397 1.678 0 .72.13 1.267.387 1.644.256.377.642.565 1.157.565zM398.733 69.647l-.28-.902h-.047c-.316.395-.635.663-.956.806-.32.144-.732.215-1.234.215-.646 0-1.15-.172-1.512-.516-.36-.345-.543-.83-.543-1.46 0-.668.253-1.172.755-1.512.503-.34 1.27-.525 2.298-.557l1.134-.034v-.346c0-.414-.098-.724-.294-.93-.195-.204-.5-.307-.91-.307-.337 0-.66.05-.97.146s-.604.212-.89.345l-.45-.984c.355-.183.745-.322 1.17-.418s.822-.144 1.198-.144c.836 0 1.467.18 1.892.54.426.358.64.923.64 1.692v4.365h-1zm-2.078-.937c.506 0 .913-.14 1.22-.42s.46-.67.46-1.174v-.562l-.843.035c-.657.022-1.135.13-1.434.324s-.448.49-.448.888c0 .29.087.513.26.67s.437.238.785.238zM400.546 63.167h1.52l1.336 3.674c.202.524.337 1.017.404 1.478h.047c.036-.215.102-.476.196-.782s.597-1.763 1.507-4.368h1.51l-2.81 7.342c-.51 1.348-1.362 2.02-2.553 2.02-.31 0-.61-.032-.903-.1v-1.09c.21.048.45.07.72.07.673 0 1.146-.384 1.42-1.153l.242-.61-2.636-6.48z"/></g><g fill="#fff"><path d="M228.565 94.647h-1.01v-7.682h-2.75v-.885h6.51v.885h-2.75v7.682zM237.144 91.43c0 1.048-.267 1.865-.8 2.453s-1.273.882-2.216.882c-.582 0-1.1-.135-1.55-.404s-.8-.655-1.045-1.16-.368-1.093-.368-1.77c0-1.046.266-1.86.796-2.445s1.268-.876 2.21-.876c.91 0 1.633.298 2.17.895.536.598.804 1.406.804 2.426zm-4.957 0c0 .82.166 1.446.5 1.876.33.43.82.645 1.465.645.646 0 1.135-.213 1.47-.64.334-.43.502-1.055.502-1.88 0-.815-.168-1.436-.502-1.86-.335-.423-.828-.635-1.48-.635-.647 0-1.133.21-1.46.627-.33.417-.495 1.04-.495 1.87zM240.875 93.962c.175 0 .343-.013.505-.038s.29-.052.386-.08v.745c-.106.05-.264.092-.472.125s-.395.05-.562.05c-1.26 0-1.888-.654-1.888-1.963v-3.82h-.933v-.47l.934-.403.416-1.372h.57v1.488h1.888v.756h-1.89v3.78c0 .386.094.683.28.89.187.206.443.31.767.31zM247.28 94.647l-.197-.914h-.047c-.325.402-.648.675-.972.817-.322.143-.725.214-1.208.214-.645 0-1.15-.164-1.517-.492s-.55-.795-.55-1.4c0-1.297 1.05-1.977 3.152-2.04l1.104-.034V90.4c0-.504-.11-.876-.33-1.116s-.57-.36-1.054-.36c-.542 0-1.155.164-1.84.492l-.304-.744c.32-.172.672-.307 1.054-.404.383-.098.766-.146 1.15-.146.774 0 1.35.17 1.724.51s.562.885.562 1.635v4.383h-.73zm-2.227-.685c.613 0 1.096-.166 1.445-.498.35-.332.525-.797.525-1.395v-.58l-.985.04c-.783.027-1.35.147-1.695.36-.346.213-.52.544-.52.993 0 .352.108.62.324.803s.518.276.906.276zM250.963 94.647h-.985V85.53h.985v9.117zM261.198 94.647h-4.84V86.08h4.84v.886h-3.83v2.76h3.6v.88h-3.6v3.15h3.83v.89zM267.262 94.647v-4.154c0-.523-.12-.914-.362-1.172s-.62-.386-1.134-.386c-.68 0-1.18.182-1.496.545-.317.362-.476.962-.476 1.798v3.37h-.985v-6.423h.8l.16.88h.05c.2-.317.483-.563.848-.736s.77-.262 1.217-.262c.784 0 1.374.187 1.77.56s.594.97.594 1.79v4.19h-.988zM275.533 88.226v.615l-1.206.142c.11.137.21.315.297.536s.13.47.13.747c0 .63-.217 1.13-.652 1.506s-1.033.563-1.793.563c-.194 0-.377-.016-.547-.047-.42.22-.63.494-.63.826 0 .176.073.306.22.39s.398.126.755.126h1.15c.705 0 1.247.146 1.625.44s.566.718.566 1.276c0 .71-.29 1.253-.867 1.626s-1.42.56-2.53.56c-.85 0-1.506-.156-1.968-.47-.46-.31-.69-.753-.69-1.323 0-.39.126-.73.38-1.014.253-.285.608-.48 1.068-.58-.167-.074-.307-.19-.42-.346-.112-.156-.168-.338-.168-.545 0-.234.062-.44.19-.615s.326-.346.6-.51c-.337-.137-.61-.37-.823-.697s-.317-.703-.317-1.125c0-.703.214-1.245.642-1.626.427-.382 1.032-.572 1.816-.572.34 0 .647.04.92.117h2.25zm-5.19 7.5c0 .348.15.61.446.79s.72.27 1.275.27c.827 0 1.44-.12 1.838-.365.397-.243.597-.574.597-.992 0-.348-.11-.59-.327-.724s-.627-.202-1.23-.202h-1.18c-.448 0-.797.105-1.046.316s-.373.513-.373.908zm.535-5.444c0 .45.13.79.386 1.02.258.23.615.346 1.075.346.96 0 1.44-.46 1.44-1.383 0-.965-.485-1.447-1.46-1.447-.463 0-.82.123-1.068.37s-.374.61-.374 1.094zM280.768 94.647l-.196-.914h-.047c-.325.402-.648.675-.972.817-.322.143-.725.214-1.208.214-.645 0-1.15-.164-1.517-.492s-.55-.795-.55-1.4c0-1.297 1.052-1.977 3.153-2.04l1.105-.034V90.4c0-.504-.11-.876-.33-1.116s-.57-.36-1.054-.36c-.54 0-1.154.164-1.84.492l-.303-.744c.32-.172.672-.307 1.054-.404.384-.098.767-.146 1.15-.146.775 0 1.35.17 1.725.51s.562.885.562 1.635v4.383h-.73zm-2.227-.685c.614 0 1.097-.166 1.446-.498.35-.332.525-.797.525-1.395v-.58l-.984.04c-.783.027-1.35.147-1.695.36s-.52.544-.52.993c0 .352.11.62.325.803s.518.276.906.276zM288.787 88.226v.615l-1.206.142c.112.137.21.315.298.536s.13.47.13.747c0 .63-.217 1.13-.652 1.506s-1.033.563-1.793.563c-.193 0-.376-.016-.546-.047-.42.22-.63.494-.63.826 0 .176.073.306.22.39s.398.126.755.126h1.15c.705 0 1.247.146 1.625.44s.566.718.566 1.276c0 .71-.288 1.253-.866 1.626s-1.42.56-2.53.56c-.85 0-1.506-.156-1.968-.47-.462-.31-.692-.753-.692-1.323 0-.39.127-.73.38-1.014.254-.285.61-.48 1.07-.58-.168-.074-.308-.19-.42-.346-.113-.156-.17-.338-.17-.545 0-.234.063-.44.19-.615s.327-.346.6-.51c-.336-.137-.61-.37-.822-.697s-.317-.703-.317-1.125c0-.703.213-1.245.64-1.626.428-.382 1.033-.572 1.817-.572.34 0 .647.04.92.117h2.25zm-5.19 7.5c0 .348.15.61.446.79s.722.27 1.276.27c.826 0 1.438-.12 1.837-.365.397-.243.597-.574.597-.992 0-.348-.11-.59-.327-.724s-.627-.202-1.23-.202h-1.18c-.448 0-.797.105-1.046.316s-.372.513-.372.908zm.535-5.444c0 .45.13.79.386 1.02.258.23.615.346 1.075.346.962 0 1.442-.46 1.442-1.383 0-.965-.486-1.447-1.46-1.447-.464 0-.82.123-1.07.37s-.373.61-.373 1.094zM292.677 94.765c-.962 0-1.72-.29-2.277-.867-.556-.578-.834-1.38-.834-2.408 0-1.035.26-1.857.775-2.467s1.21-.914 2.082-.914c.814 0 1.46.264 1.936.793.475.53.712 1.228.712 2.095v.615h-4.482c.02.754.213 1.326.58 1.717s.88.586 1.545.586c.7 0 1.394-.145 2.078-.434v.867c-.347.147-.677.254-.987.318s-.687.097-1.126.097zm-.268-5.842c-.523 0-.94.168-1.25.504-.312.336-.494.8-.55 1.395h3.402c0-.613-.14-1.083-.416-1.41-.276-.326-.672-.49-1.187-.49zM305.004 94.647V90.47c0-.512-.11-.896-.332-1.15s-.566-.385-1.033-.385c-.614 0-1.067.174-1.36.52s-.44.884-.44 1.606v3.587h-.984V90.47c0-.512-.11-.896-.333-1.15s-.567-.385-1.04-.385c-.616 0-1.068.183-1.355.548s-.43.964-.43 1.796v3.368h-.986v-6.422h.802l.16.88h.048c.186-.313.448-.558.786-.733.34-.176.718-.264 1.137-.264 1.018 0 1.683.362 1.995 1.09h.048c.193-.337.475-.603.843-.798s.79-.293 1.26-.293c.736 0 1.287.186 1.653.56s.55.97.55 1.79v4.188h-.99zM310.73 94.765c-.963 0-1.722-.29-2.278-.867-.556-.578-.834-1.38-.834-2.408 0-1.035.26-1.857.775-2.467s1.21-.914 2.08-.914c.815 0 1.46.264 1.937.793.475.53.712 1.228.712 2.095v.615h-4.482c.02.754.213 1.326.58 1.717s.88.586 1.545.586c.7 0 1.394-.145 2.078-.434v.867c-.348.147-.678.254-.988.318s-.686.097-1.126.097zm-.268-5.842c-.522 0-.938.168-1.25.504-.31.336-.493.8-.55 1.395h3.403c0-.613-.14-1.083-.416-1.41-.277-.326-.673-.49-1.188-.49zM319.216 94.647v-4.154c0-.523-.12-.914-.362-1.172s-.62-.386-1.134-.386c-.68 0-1.18.182-1.496.545-.317.362-.476.962-.476 1.798v3.37h-.985v-6.423h.802l.16.88h.048c.2-.317.484-.563.85-.736s.77-.262 1.216-.262c.783 0 1.373.187 1.77.56s.593.97.593 1.79v4.19h-.987zM324.303 93.962c.175 0 .343-.013.505-.038s.29-.052.386-.08v.745c-.106.05-.264.092-.472.125s-.395.05-.562.05c-1.26 0-1.888-.654-1.888-1.963v-3.82h-.933v-.47l.932-.403.416-1.372h.57v1.488h1.888v.756h-1.89v3.78c0 .386.094.683.28.89.187.206.443.31.767.31zM232.484 114.647h-1.01v-4.03h-4.57v4.03h-1.01v-8.566h1.01v3.646h4.57v-3.645h1.01v8.567zM237.434 114.765c-.962 0-1.72-.29-2.277-.867-.556-.578-.834-1.38-.834-2.408 0-1.035.26-1.857.775-2.467s1.21-.914 2.08-.914c.815 0 1.46.264 1.937.793.475.53.712 1.228.712 2.095v.615h-4.482c.02.754.213 1.326.58 1.717s.88.586 1.545.586c.7 0 1.394-.145 2.078-.434v.867c-.348.147-.678.254-.988.318s-.687.097-1.126.097zm-.268-5.842c-.522 0-.938.168-1.25.504-.31.336-.493.8-.55 1.395h3.403c0-.613-.14-1.083-.417-1.41-.276-.326-.672-.49-1.187-.49zM242.46 114.647h-.985v-9.117h.985v9.117zM247.483 114.765c-.424 0-.81-.077-1.16-.23s-.646-.393-.883-.713h-.07c.047.375.07.73.07 1.066v2.643h-.985v-9.304h.802l.137.88h.047c.255-.353.55-.606.886-.763.337-.156.723-.234 1.158-.234.862 0 1.528.29 1.998.872.47.582.703 1.398.703 2.45 0 1.054-.238 1.873-.716 2.457-.478.583-1.14.875-1.987.875zm-.142-5.83c-.664 0-1.145.182-1.442.545s-.45.94-.457 1.734v.217c0 .903.153 1.55.458 1.938s.794.583 1.467.583c.562 0 1.003-.224 1.32-.673s.48-1.068.48-1.857c0-.8-.16-1.415-.48-1.843s-.766-.642-1.344-.642zM254.803 108.98h-1.656v5.667h-.985v-5.666h-1.164v-.438l1.164-.352v-.357c0-1.578.698-2.367 2.096-2.367.345 0 .748.068 1.21.205l-.254.78c-.38-.12-.705-.182-.974-.182-.372 0-.647.122-.825.366-.18.244-.268.636-.268 1.175v.415h1.656v.756zM257.044 108.226v4.166c0 .523.12.914.362 1.172.242.258.62.387 1.135.387.682 0 1.18-.183 1.494-.55.314-.367.472-.967.472-1.8v-3.374h.985v6.422h-.812l-.143-.86h-.053c-.202.315-.482.558-.84.726s-.768.252-1.227.252c-.792 0-1.385-.186-1.778-.557s-.59-.966-.59-1.782v-4.2h.997zM264.473 114.647h-.985v-9.117h.985v9.117zM270.692 112.896c0 .598-.226 1.06-.677 1.383s-1.084.485-1.9.485c-.862 0-1.535-.135-2.018-.404v-.9c.312.155.647.278 1.006.368s.704.135 1.036.135c.514 0 .91-.08 1.187-.243s.416-.41.416-.74c0-.25-.11-.465-.33-.643s-.648-.388-1.285-.63c-.605-.223-1.036-.417-1.29-.583-.257-.166-.446-.354-.57-.565s-.19-.464-.19-.757c0-.523.217-.937.648-1.24s1.023-.453 1.775-.453c.7 0 1.387.14 2.056.422l-.35.79c-.654-.265-1.246-.397-1.776-.397-.467 0-.82.072-1.057.217s-.356.344-.356.598c0 .172.045.318.134.44s.233.235.432.345c.197.11.577.268 1.14.475.77.277 1.293.557 1.564.838s.406.632.406 1.058zM229.61 126.85c-.954 0-1.707.312-2.26.94-.552.626-.828 1.484-.828 2.574 0 1.12.267 1.987.8 2.6s1.29.916 2.276.916c.605 0 1.296-.107 2.072-.322v.873c-.603.224-1.344.335-2.227.335-1.28 0-2.266-.383-2.96-1.148s-1.042-1.854-1.042-3.264c0-.883.168-1.656.503-2.32.334-.664.817-1.176 1.448-1.535.633-.36 1.376-.54 2.23-.54.91 0 1.706.165 2.387.493l-.428.856c-.655-.305-1.312-.457-1.97-.457zM238.844 131.43c0 1.048-.267 1.865-.8 2.453s-1.273.882-2.216.882c-.582 0-1.1-.135-1.55-.404s-.8-.655-1.045-1.16-.368-1.093-.368-1.77c0-1.046.266-1.86.796-2.445s1.268-.876 2.21-.876c.91 0 1.633.298 2.17.895.536.598.804 1.406.804 2.426zm-4.957 0c0 .82.166 1.446.5 1.876.33.43.82.645 1.465.645.646 0 1.135-.213 1.47-.64.334-.43.502-1.055.502-1.88 0-.815-.168-1.436-.502-1.86-.335-.423-.828-.635-1.48-.635-.647 0-1.133.21-1.46.627-.33.417-.495 1.04-.495 1.87zM248.82 134.647v-4.178c0-.513-.11-.897-.332-1.152s-.566-.384-1.033-.384c-.613 0-1.066.174-1.36.52s-.438.884-.438 1.606v3.586h-.985v-4.178c0-.512-.11-.896-.333-1.15s-.568-.385-1.04-.385c-.617 0-1.07.183-1.356.548s-.43.965-.43 1.797v3.37h-.986v-6.423h.802l.16.88h.048c.186-.313.448-.558.786-.733.34-.175.718-.263 1.137-.263 1.02 0 1.684.363 1.996 1.09h.048c.193-.336.475-.602.843-.797s.788-.293 1.26-.293c.735 0 1.286.187 1.652.56s.55.97.55 1.79v4.19h-.99zM260.064 134.647v-4.178c0-.513-.11-.897-.332-1.152s-.566-.384-1.033-.384c-.614 0-1.067.174-1.36.52s-.44.884-.44 1.606v3.586h-.984v-4.178c0-.512-.11-.896-.333-1.15s-.567-.385-1.04-.385c-.616 0-1.068.183-1.355.548s-.43.965-.43 1.797v3.37h-.986v-6.423h.802l.16.88h.048c.186-.313.448-.558.786-.733.34-.175.718-.263 1.137-.263 1.018 0 1.683.363 1.995 1.09h.048c.193-.336.475-.602.843-.797s.79-.293 1.26-.293c.736 0 1.287.187 1.653.56s.55.97.55 1.79v4.19h-.99zM265.795 134.765c-.962 0-1.72-.29-2.277-.867-.556-.578-.834-1.38-.834-2.408 0-1.035.26-1.857.775-2.467s1.21-.914 2.08-.914c.814 0 1.46.264 1.936.793.475.53.712 1.228.712 2.095v.615h-4.482c.02.754.213 1.326.58 1.717s.88.586 1.545.586c.702 0 1.395-.145 2.08-.434v.867c-.35.147-.68.254-.99.318s-.686.097-1.125.097zm-.268-5.842c-.522 0-.938.168-1.25.504-.31.336-.493.8-.55 1.395h3.403c0-.613-.14-1.083-.416-1.41-.276-.326-.672-.49-1.187-.49zM274.286 134.647v-4.154c0-.523-.12-.914-.362-1.172s-.62-.386-1.134-.386c-.68 0-1.18.182-1.496.545-.317.362-.476.962-.476 1.798v3.37h-.985v-6.423h.802l.16.88h.048c.2-.317.484-.563.85-.736s.77-.262 1.216-.262c.783 0 1.373.187 1.77.56s.593.97.593 1.79v4.19h-.987zM279.373 133.962c.175 0 .343-.013.505-.038s.29-.052.386-.08v.745c-.106.05-.264.092-.472.125s-.395.05-.562.05c-1.26 0-1.888-.654-1.888-1.963v-3.82h-.933v-.47l.932-.403.416-1.372h.57v1.488h1.888v.756h-1.89v3.78c0 .386.094.683.28.89.187.206.443.31.767.31zM285.998 132.896c0 .598-.226 1.06-.677 1.383s-1.083.485-1.898.485c-.863 0-1.536-.135-2.02-.404v-.9c.313.155.648.278 1.007.368s.703.135 1.035.135c.515 0 .91-.08 1.188-.243s.416-.41.416-.74c0-.25-.11-.465-.33-.643s-.65-.388-1.286-.63c-.605-.223-1.036-.417-1.29-.583-.257-.166-.446-.354-.57-.565s-.19-.464-.19-.757c0-.523.217-.937.648-1.24s1.023-.453 1.775-.453c.7 0 1.386.14 2.055.422l-.35.79c-.654-.265-1.246-.397-1.776-.397-.467 0-.82.072-1.057.217s-.357.344-.357.598c0 .172.045.318.134.44s.232.235.43.345c.198.11.578.268 1.14.475.772.277 1.294.557 1.565.838s.406.632.406 1.058zM226.903 151.085v3.562h-1.01v-8.566h2.38c1.065 0 1.853.202 2.36.605.51.402.764 1.008.764 1.816 0 1.134-.582 1.9-1.745 2.298l2.356 3.85h-1.193l-2.102-3.562h-1.81zm0-.856h1.383c.713 0 1.235-.14 1.567-.42.333-.28.5-.698.5-1.257 0-.566-.17-.975-.51-1.225-.337-.25-.88-.375-1.63-.375h-1.31v3.276zM235.902 154.765c-.962 0-1.72-.29-2.277-.867-.556-.578-.834-1.38-.834-2.408 0-1.035.26-1.857.776-2.467s1.21-.914 2.08-.914c.815 0 1.46.264 1.937.793.475.53.712 1.228.712 2.095v.615h-4.482c.02.754.213 1.326.58 1.717s.88.586 1.545.586c.7 0 1.394-.145 2.078-.434v.867c-.348.147-.678.254-.988.318s-.686.097-1.126.097zm-.267-5.842c-.522 0-.938.168-1.25.504-.31.336-.493.8-.55 1.395h3.403c0-.613-.14-1.083-.416-1.41-.276-.326-.673-.49-1.187-.49zM244.19 152.896c0 .598-.226 1.06-.677 1.383s-1.084.485-1.9.485c-.862 0-1.535-.135-2.018-.404v-.9c.312.155.647.278 1.006.368s.705.135 1.037.135c.515 0 .91-.08 1.188-.243s.416-.41.416-.74c0-.25-.11-.465-.33-.643s-.647-.388-1.284-.63c-.605-.223-1.036-.417-1.29-.583-.257-.166-.446-.354-.57-.565s-.19-.464-.19-.757c0-.523.217-.937.648-1.24s1.023-.453 1.775-.453c.7 0 1.385.14 2.054.422l-.35.79c-.654-.265-1.246-.397-1.776-.397-.467 0-.82.072-1.057.217s-.355.344-.355.598c0 .172.045.318.134.44s.23.235.43.345c.197.11.577.268 1.14.475.77.277 1.293.557 1.564.838s.406.632.406 1.058zM248.736 154.765c-.424 0-.81-.077-1.16-.23s-.646-.393-.883-.713h-.07c.047.375.07.73.07 1.066v2.643h-.985v-9.304h.802l.137.88h.047c.254-.353.55-.606.885-.763.336-.156.722-.234 1.157-.234.862 0 1.528.29 1.998.872.47.582.703 1.398.703 2.45 0 1.054-.238 1.873-.716 2.457-.477.583-1.14.875-1.986.875zm-.142-5.83c-.665 0-1.146.182-1.443.545s-.448.94-.456 1.734v.217c0 .903.152 1.55.457 1.938s.795.583 1.468.583c.562 0 1.003-.224 1.32-.673s.48-1.068.48-1.857c0-.8-.16-1.415-.48-1.843s-.766-.642-1.344-.642zM258.782 151.43c0 1.048-.267 1.865-.8 2.453s-1.273.882-2.216.882c-.582 0-1.1-.135-1.55-.404s-.8-.655-1.045-1.16-.367-1.093-.367-1.77c0-1.046.266-1.86.796-2.445s1.266-.876 2.208-.876c.91 0 1.633.298 2.17.895.537.598.804 1.406.804 2.426zm-4.957 0c0 .82.166 1.446.5 1.876.33.43.82.645 1.465.645.646 0 1.135-.213 1.47-.64.334-.43.502-1.055.502-1.88 0-.815-.168-1.436-.502-1.86-.335-.423-.828-.635-1.48-.635-.647 0-1.133.21-1.46.627-.33.417-.495 1.04-.495 1.87zM264.917 154.647v-4.154c0-.523-.12-.914-.362-1.172s-.62-.386-1.134-.386c-.68 0-1.18.182-1.495.545-.317.362-.476.962-.476 1.798v3.37h-.986v-6.423h.802l.16.88h.048c.2-.317.484-.563.85-.736s.77-.262 1.216-.262c.784 0 1.374.187 1.77.56s.594.97.594 1.79v4.19h-.987zM272.034 152.896c0 .598-.226 1.06-.677 1.383s-1.084.485-1.9.485c-.862 0-1.535-.135-2.018-.404v-.9c.31.155.646.278 1.005.368s.704.135 1.036.135c.516 0 .91-.08 1.19-.243s.415-.41.415-.74c0-.25-.11-.465-.33-.643s-.648-.388-1.285-.63c-.605-.223-1.036-.417-1.29-.583-.257-.166-.446-.354-.57-.565s-.19-.464-.19-.757c0-.523.217-.937.648-1.24s1.023-.453 1.775-.453c.7 0 1.386.14 2.055.422l-.35.79c-.654-.265-1.246-.397-1.776-.397-.467 0-.82.072-1.057.217s-.356.344-.356.598c0 .172.044.318.133.44s.232.235.43.345c.198.11.578.268 1.14.475.772.277 1.294.557 1.565.838s.406.632.406 1.058zM276.404 154.765c-.962 0-1.72-.29-2.277-.867-.556-.578-.834-1.38-.834-2.408 0-1.035.26-1.857.775-2.467s1.21-.914 2.08-.914c.815 0 1.46.264 1.937.793.475.53.712 1.228.712 2.095v.615h-4.482c.02.754.213 1.326.58 1.717s.88.586 1.545.586c.7 0 1.394-.145 2.078-.434v.867c-.348.147-.678.254-.988.318s-.686.097-1.126.097zm-.267-5.842c-.522 0-.938.168-1.25.504-.31.336-.493.8-.55 1.395h3.403c0-.613-.14-1.083-.416-1.41-.276-.326-.673-.49-1.187-.49zM284.69 152.896c0 .598-.225 1.06-.676 1.383s-1.084.485-1.9.485c-.862 0-1.535-.135-2.018-.404v-.9c.312.155.647.278 1.006.368s.704.135 1.036.135c.515 0 .91-.08 1.188-.243s.416-.41.416-.74c0-.25-.11-.465-.33-.643s-.648-.388-1.285-.63c-.605-.223-1.036-.417-1.29-.583-.257-.166-.446-.354-.57-.565s-.19-.464-.19-.757c0-.523.217-.937.648-1.24s1.023-.453 1.775-.453c.7 0 1.386.14 2.055.422l-.35.79c-.654-.265-1.246-.397-1.776-.397-.468 0-.82.072-1.058.217s-.356.344-.356.598c0 .172.045.318.134.44s.232.235.43.345c.198.11.578.268 1.14.475.772.277 1.294.557 1.565.838s.406.632.406 1.058z"/></g><circle fill="#666" cx="213.847" cy="90.103" r="5"/><circle fill="#5C9349" cx="213.847" cy="110.103" r="5"/><circle fill="#245D9A" cx="213.847" cy="130.103" r="5"/><circle fill="#E36233" cx="213.847" cy="150.103" r="5"/><g fill="#fff"><path d="M398.105 95.647h-.962v-6.105c0-.508.016-.988.048-1.44-.082.08-.176.167-.278.257s-.574.47-1.413 1.142l-.523-.668 2.298-1.752h.83v8.565zM406.515 91.353c0 1.48-.236 2.586-.71 3.316-.473.73-1.195 1.095-2.17 1.095-.934 0-1.645-.374-2.13-1.122-.488-.748-.73-1.845-.73-3.29 0-1.492.234-2.6.706-3.322s1.19-1.083 2.156-1.083c.94 0 1.657.377 2.146 1.13.49.754.733 1.846.733 3.276zm-4.744 0c0 1.246.15 2.153.446 2.722s.77.853 1.42.853c.655 0 1.132-.288 1.427-.864s.442-1.48.442-2.71-.147-2.132-.442-2.704-.77-.858-1.428-.858c-.65 0-1.122.282-1.42.847s-.444 1.466-.444 2.713zM400.863 111.985c0-1.684.332-2.942.995-3.776s1.644-1.252 2.94-1.252c.448 0 .8.037 1.058.11v.84c-.305-.1-.652-.147-1.045-.147-.93 0-1.64.287-2.13.86-.49.57-.76 1.47-.808 2.697h.07c.437-.672 1.125-1.008 2.067-1.008.778 0 1.393.23 1.842.696s.674 1.096.674 1.893c0 .89-.246 1.59-.74 2.1-.49.51-1.157.765-1.996.765-.898 0-1.61-.333-2.138-1s-.79-1.592-.79-2.78zm2.915 2.953c.562 0 1-.175 1.31-.524s.466-.854.466-1.515c0-.567-.145-1.013-.433-1.337-.288-.324-.72-.486-1.294-.486-.356 0-.683.072-.98.217s-.532.344-.71.598c-.175.254-.263.518-.263.79 0 .403.08.778.237 1.126s.383.623.674.826.622.304.994.304zM406.142 129.097c0 .547-.155.994-.466 1.342s-.75.58-1.32.696v.047c.696.086 1.212.305 1.55.656s.504.81.504 1.382c0 .816-.287 1.444-.86 1.884-.574.44-1.39.66-2.447.66-.46 0-.88-.035-1.262-.104-.38-.068-.752-.188-1.112-.36v-.926c.377.184.777.323 1.203.42.426.095.83.143 1.21.143 1.5 0 2.25-.58 2.25-1.74 0-1.04-.828-1.56-2.482-1.56h-.855v-.838h.867c.677 0 1.213-.147 1.61-.442.395-.295.593-.704.593-1.228 0-.418-.146-.746-.437-.984s-.687-.357-1.185-.357c-.38 0-.737.052-1.074.153-.336.102-.72.29-1.15.562l-.5-.656c.356-.278.767-.496 1.232-.654.465-.158.954-.237 1.47-.237.843 0 1.498.19 1.965.57s.7.903.7 1.567zM404.414 155.647h-.962v-6.105c0-.508.016-.988.048-1.44-.083.08-.177.167-.28.257s-.573.47-1.412 1.142l-.522-.668 2.298-1.752h.83v8.565z"/></g><g fill="#fff"><path d="M457.47 90.737c0 3.352-1.315 5.027-3.943 5.027-.46 0-.823-.04-1.093-.117v-.837c.316.102.677.152 1.08.152.95 0 1.668-.29 2.152-.87.485-.58.75-1.47.793-2.67h-.072c-.218.325-.507.572-.867.742-.358.17-.765.255-1.216.255-.768 0-1.377-.228-1.828-.68-.452-.454-.678-1.087-.678-1.9 0-.89.253-1.593.758-2.108.504-.516 1.168-.773 1.99-.773.59 0 1.106.148 1.548.447s.78.734 1.02 1.307.355 1.246.355 2.023zm-2.923-2.947c-.565 0-1.003.18-1.312.54s-.463.858-.463 1.5c0 .56.142 1.004.427 1.326s.718.483 1.3.483c.36 0 .69-.073.994-.218s.54-.342.716-.592c.174-.25.26-.512.26-.785 0-.41-.08-.79-.242-1.137s-.39-.62-.68-.82-.625-.298-1-.298zM454.476 110.415c.915 0 1.634.224 2.158.67s.787 1.06.787 1.838c0 .887-.285 1.582-.857 2.086-.57.503-1.36.755-2.365.755-.978 0-1.725-.154-2.238-.463v-.938c.276.176.62.313 1.032.413.412.1.817.15 1.218.15.696 0 1.237-.163 1.624-.487.386-.324.578-.793.578-1.406 0-1.195-.742-1.793-2.226-1.793-.377 0-.88.058-1.51.17l-.51-.32.327-4.01h4.316v.897h-3.475l-.22 2.572c.456-.09.91-.135 1.36-.135zM457.142 129.097c0 .547-.155.994-.466 1.342s-.75.58-1.32.696v.047c.696.086 1.212.305 1.55.656s.504.81.504 1.382c0 .816-.287 1.444-.86 1.884-.574.44-1.39.66-2.447.66-.46 0-.88-.035-1.262-.104-.38-.068-.752-.188-1.112-.36v-.926c.377.184.777.323 1.203.42.426.095.83.143 1.21.143 1.5 0 2.25-.58 2.25-1.74 0-1.04-.828-1.56-2.482-1.56h-.855v-.838h.867c.677 0 1.213-.147 1.61-.442.395-.295.593-.704.593-1.228 0-.418-.146-.746-.437-.984s-.687-.357-1.185-.357c-.38 0-.737.052-1.074.153-.336.102-.72.29-1.15.562l-.5-.656c.356-.278.767-.496 1.232-.654.465-.158.954-.237 1.47-.237.843 0 1.498.19 1.965.57s.7.903.7 1.567zM455.414 155.647h-.962v-6.105c0-.508.016-.988.048-1.44-.083.08-.177.167-.28.257s-.573.47-1.412 1.142l-.522-.668 2.298-1.752h.83v8.565z"/></g></g></svg>